<?xml version="1.0" standalone="no"?>
<!DOCTYPE svg PUBLIC "-//W3C//DTD SVG 20010904//EN"
 "http://www.w3.org/TR/2001/REC-SVG-20010904/DTD/svg10.dtd">
<svg version="1.0" xmlns="http://www.w3.org/2000/svg"
 width="777.000000pt" height="500.000000pt" viewBox="0 0 777.000000 500.000000"
 preserveAspectRatio="xMidYMid meet">

<g transform="translate(0.000000,500.000000) scale(0.100000,-0.100000)"
fill="#000000" stroke="none">
<path d="M10 2495 l0 -2475 3870 0 3870 0 0 2475 0 2475 -3870 0 -3870 0 0
-2475z m820 2393 l0 -72 -47 -48 -47 -48 -358 0 -358 0 0 120 0 120 405 0 405
0 0 -72z m6910 -2393 l0 -2465 -3860 0 -3860 0 0 2340 0 2340 357 0 357 0 53
52 53 52 0 73 0 73 3450 0 3450 0 0 -2465z"/>
<path d="M245 4871 c-3 -6 -17 -11 -30 -11 -25 0 -40 -26 -29 -53 4 -11 17
-15 42 -14 36 1 37 2 35 40 -1 42 -7 54 -18 38z m-21 -27 c28 -11 13 -44 -20
-44 -2 0 -4 11 -4 25 0 27 1 28 24 19z"/>
<path d="M322 4873 c12 -3 18 -17 21 -46 l4 -42 1 42 c2 30 7 43 20 46 9 3 -1
5 -23 5 -22 0 -32 -2 -23 -5z"/>
<path d="M116 4852 c-4 -6 3 -8 16 -5 23 6 23 6 -1 -14 -28 -23 -21 -43 15
-43 22 0 25 4 22 33 -2 24 -8 33 -25 35 -11 2 -24 -1 -27 -6z m30 -49 c-10
-10 -19 5 -10 18 6 11 8 11 12 0 2 -7 1 -15 -2 -18z"/>
<path d="M397 4854 c-4 -4 -7 -18 -7 -31 0 -26 26 -41 42 -25 8 8 5 9 -11 5
-12 -3 -21 -1 -21 6 0 6 9 11 21 11 14 0 19 5 17 17 -3 19 -29 29 -41 17z m33
-14 c0 -5 -7 -10 -15 -10 -8 0 -15 5 -15 10 0 6 7 10 15 10 8 0 15 -4 15 -10z"/>
<path d="M467 4853 c-11 -10 -8 -51 4 -59 6 -3 16 -1 22 5 9 9 8 11 -5 6 -15
-6 -18 -2 -18 20 0 20 4 26 16 21 8 -3 12 -2 9 4 -7 12 -19 13 -28 3z"/>
<path d="M521 4821 c1 -35 2 -35 8 -7 9 42 29 44 34 4 l5 -33 -2 35 c-1 29 -5
35 -23 36 -20 1 -23 -3 -22 -35z"/>
<path d="M593 4825 c0 -22 2 -30 4 -17 2 12 2 30 0 40 -3 9 -5 -1 -4 -23z"/>
<path d="M617 4853 c-11 -10 -8 -51 4 -59 6 -3 16 -1 22 5 9 9 8 11 -5 6 -15
-6 -18 -2 -18 20 0 20 4 26 16 21 8 -3 12 -2 9 4 -7 12 -19 13 -28 3z"/>
<path d="M674 4846 c-10 -26 0 -51 21 -51 16 0 20 7 20 30 0 33 -30 49 -41 21z
m36 -21 c0 -16 -6 -25 -15 -25 -9 0 -15 9 -15 25 0 16 6 25 15 25 9 0 15 -9
15 -25z"/>
<path d="M3770 3810 c132 -11 216 -35 282 -80 100 -69 145 -167 158 -345 l7
-100 1 75 c3 135 -32 248 -100 326 -74 84 -176 122 -343 129 l-110 4 105 -9z"/>
<path d="M3545 3799 c-102 -17 -291 -71 -423 -120 -307 -115 -678 -310 -806
-423 l-29 -26 -352 0 c-260 0 -354 -3 -363 -12 -7 -7 -12 -31 -12 -54 0 -29
-5 -44 -16 -48 -9 -3 -267 -6 -575 -6 l-559 0 0 21 c0 11 -13 34 -29 50 -24
24 -38 29 -76 29 -38 0 -52 -5 -76 -29 -24 -24 -29 -38 -29 -76 0 -38 5 -52
29 -76 24 -24 38 -29 76 -29 38 0 52 5 76 29 16 16 29 39 29 50 l0 21 560 0
c308 0 560 -2 560 -5 0 -2 -18 -14 -41 -25 -23 -12 -39 -23 -36 -26 2 -2 24 7
48 21 24 13 47 25 52 25 4 0 7 -17 7 -38 0 -21 5 -43 12 -50 9 -9 81 -12 261
-12 l250 0 -7 -37 c-3 -21 -9 -49 -12 -63 -4 -14 -4 -22 0 -18 4 3 13 28 20
54 l12 47 61 -184 c123 -372 213 -587 303 -719 49 -72 162 -178 230 -216 117
-66 274 -114 501 -153 87 -15 658 -91 684 -91 3 0 5 -37 5 -83 0 -51 5 -88 12
-95 17 -17 1179 -17 1196 0 15 15 16 181 2 209 -10 17 -22 19 -132 19 l-121 0
7 73 c3 39 8 128 10 197 l5 125 -10 -127 c-5 -69 -12 -157 -16 -195 l-8 -68
-212 -3 -212 -2 -6 37 c-11 67 -25 94 -18 37 3 -30 1 -54 -5 -58 -5 -3 -27 1
-47 10 -20 8 -39 13 -42 11 -2 -3 11 -11 29 -18 30 -13 10 -14 -187 -17 -206
-2 -221 -3 -237 -22 -16 -20 -17 -20 -299 15 -498 63 -676 102 -848 186 -89
43 -117 63 -185 133 -88 89 -137 166 -217 345 -60 136 -230 636 -223 656 5 13
39 15 208 15 144 0 205 3 214 12 7 7 12 29 12 50 0 21 3 38 6 38 3 0 26 -12
52 -27 54 -31 50 -21 -5 13 l-38 23 713 1 712 0 0 -44 c0 -24 6 -48 13 -54 7
-6 44 -12 82 -14 l70 -3 6 -40 6 -40 2 43 1 42 273 -2 c174 -2 272 -7 271 -13
-12 -85 -13 -108 -5 -90 5 11 10 33 10 50 2 54 20 13 55 -125 40 -156 63 -298
76 -460 l9 -115 -4 120 c-6 167 -60 459 -111 601 -7 18 -6 18 17 -1 52 -44 62
-47 24 -7 l-39 42 115 0 c76 0 119 4 127 12 7 7 12 34 12 60 l0 48 855 0 c470
0 855 -2 855 -5 0 -2 -18 -14 -41 -25 -23 -12 -39 -23 -36 -26 2 -2 24 7 48
21 52 29 59 30 59 9 0 -8 13 -29 29 -45 24 -24 38 -29 76 -29 38 0 52 5 76 29
24 24 29 38 29 76 0 38 -5 52 -29 76 -24 24 -38 29 -76 29 -38 0 -52 -5 -76
-29 -16 -16 -29 -36 -29 -44 0 -8 -7 -18 -16 -21 -9 -3 -400 -6 -870 -6 l-854
0 0 36 c0 19 -5 44 -10 55 -10 18 -25 19 -385 19 -312 0 -375 2 -375 14 0 7 7
19 16 26 8 8 20 23 25 34 6 12 -5 3 -25 -19 -29 -33 -35 -36 -36 -20 0 15 -3
17 -9 7 -6 -10 -13 -1 -25 28 -9 24 -19 40 -22 37 -3 -3 4 -23 15 -46 12 -22
21 -45 21 -51 0 -6 -34 -10 -88 -10 -55 0 -92 -4 -100 -12 -7 -7 -12 -34 -12
-60 l0 -48 -712 0 -713 1 38 23 c55 34 59 44 5 13 -26 -15 -49 -27 -52 -27 -3
0 -6 16 -6 36 0 69 -8 74 -125 74 -58 0 -105 4 -105 9 0 27 194 149 408 255
327 164 602 260 857 301 44 7 64 13 45 13 -19 0 -58 -4 -85 -9z m-1020 -689
l0 -95 -470 0 -470 0 -3 84 c-2 46 -1 90 2 98 5 11 89 13 473 11 l468 -3 0
-95z m2450 0 l0 -95 -480 0 -480 0 -3 84 c-2 46 -1 90 2 98 5 11 91 13 483 11
l478 -3 0 -95z m1930 65 c56 -55 18 -147 -60 -147 -52 0 -85 33 -85 86 0 54
30 86 82 86 28 0 46 -7 63 -25z m-1830 -1635 l0 -95 -585 0 -585 0 -3 84 c-2
46 -1 90 2 98 5 11 108 13 588 11 l583 -3 0 -95z"/>
<path d="M1770 3095 c0 -40 2 -45 23 -45 29 0 47 18 47 45 0 27 -18 45 -47 45
-21 0 -23 -5 -23 -45z m55 0 c0 -23 -5 -31 -22 -33 -20 -3 -23 1 -23 33 0 32
3 36 23 33 17 -2 22 -10 22 -33z"/>
<path d="M2303 3095 c0 -27 2 -38 4 -22 2 15 2 37 0 50 -2 12 -4 0 -4 -28z"/>
<path d="M1863 3085 c0 -22 2 -30 4 -17 2 12 2 30 0 40 -3 9 -5 -1 -4 -23z"/>
<path d="M1885 3110 c-8 -14 3 -30 21 -30 8 0 14 -5 14 -11 0 -6 -9 -9 -20 -6
-11 3 -18 1 -14 -4 7 -13 31 -11 40 2 4 7 -4 20 -17 31 l-24 20 23 -5 c12 -3
20 -1 16 4 -7 12 -31 11 -39 -1z"/>
<path d="M1941 3071 c0 -25 3 -39 7 -31 4 8 14 15 22 15 10 0 15 10 15 30 0
24 -4 30 -22 31 -21 1 -23 -3 -22 -45z m39 14 c0 -26 -14 -33 -25 -15 -9 14 1
40 15 40 5 0 10 -11 10 -25z"/>
<path d="M2014 3106 c-10 -26 0 -51 21 -51 16 0 20 7 20 30 0 33 -30 49 -41
21z m36 -21 c0 -16 -6 -25 -15 -25 -9 0 -15 9 -15 25 0 16 6 25 15 25 9 0 15
-9 15 -25z"/>
<path d="M2081 3081 c1 -35 2 -35 8 -7 9 42 29 44 34 4 l5 -33 -2 35 c-1 29
-5 35 -23 36 -20 1 -23 -3 -22 -35z"/>
<path d="M2143 3085 c0 -22 2 -30 4 -17 2 12 2 30 0 40 -3 9 -5 -1 -4 -23z"/>
<path d="M2176 3100 c13 -50 21 -54 33 -20 6 18 9 35 7 37 -2 3 -7 -6 -11 -18
l-7 -22 -15 24 -14 24 7 -25z"/>
<path d="M2247 3114 c-4 -4 -7 -18 -7 -31 0 -26 26 -41 42 -25 8 8 5 9 -11 5
-12 -3 -21 -1 -21 6 0 6 9 11 21 11 14 0 19 5 17 17 -3 19 -29 29 -41 17z m33
-14 c0 -5 -7 -10 -15 -10 -8 0 -15 5 -15 10 0 6 7 10 15 10 8 0 15 -4 15 -10z"/>
<path d="M4670 3126 c0 -8 -8 -13 -17 -12 -14 1 -18 -7 -18 -29 0 -24 4 -30
23 -31 20 -1 22 3 22 42 0 24 -2 44 -5 44 -3 0 -5 -6 -5 -14z m-5 -41 c0 -10
-6 -20 -12 -22 -8 -3 -13 5 -13 22 0 17 5 25 13 23 6 -3 12 -13 12 -23z"/>
<path d="M4207 3114 c-4 -4 -7 -18 -7 -31 0 -26 26 -41 42 -25 8 8 5 9 -11 5
-12 -3 -21 -1 -21 6 0 6 9 11 21 11 14 0 19 5 17 17 -3 19 -29 29 -41 17z m33
-14 c0 -5 -7 -10 -15 -10 -8 0 -15 5 -15 10 0 6 7 10 15 10 8 0 15 -4 15 -10z"/>
<path d="M4275 3110 c-8 -14 3 -30 21 -30 8 0 14 -5 14 -11 0 -6 -9 -9 -20 -6
-11 3 -18 1 -14 -4 7 -13 31 -11 40 2 4 7 -4 20 -17 31 l-24 20 23 -5 c12 -3
20 -1 16 4 -7 12 -31 11 -39 -1z"/>
<path d="M4331 3071 c0 -25 3 -39 7 -31 4 8 14 15 22 15 10 0 15 10 15 30 0
24 -4 30 -22 31 -21 1 -23 -3 -22 -45z m39 14 c0 -26 -14 -33 -25 -15 -9 14 1
40 15 40 5 0 10 -11 10 -25z"/>
<path d="M4397 3114 c-4 -4 -7 -18 -7 -31 0 -26 26 -41 42 -25 8 8 5 9 -11 5
-12 -3 -21 -1 -21 6 0 6 9 11 21 11 14 0 19 5 17 17 -3 19 -29 29 -41 17z m33
-14 c0 -5 -7 -10 -15 -10 -8 0 -15 5 -15 10 0 6 7 10 15 10 8 0 15 -4 15 -10z"/>
<path d="M4463 3085 c0 -22 2 -30 4 -17 2 12 2 30 0 40 -3 9 -5 -1 -4 -23z"/>
<path d="M4506 3111 c-3 -5 3 -7 14 -4 26 7 26 -14 -1 -22 -26 -8 -19 -30 10
-31 19 -1 22 3 19 30 -3 30 -29 48 -42 27z m29 -41 c-3 -5 -11 -10 -16 -10 -6
0 -7 5 -4 10 3 6 11 10 16 10 6 0 7 -4 4 -10z"/>
<path d="M4571 3081 c1 -35 2 -35 8 -7 9 42 29 44 34 4 l5 -33 -2 35 c-1 29
-5 35 -23 36 -20 1 -23 -3 -22 -35z"/>
<path d="M4704 3106 c-10 -26 0 -51 21 -51 16 0 20 7 20 30 0 33 -30 49 -41
21z m36 -21 c0 -16 -6 -25 -15 -25 -9 0 -15 9 -15 25 0 16 6 25 15 25 9 0 15
-9 15 -25z"/>
<path d="M6790 3170 c-26 -26 -26 -81 -2 -103 23 -21 86 -22 106 -1 20 20 20
73 0 102 -20 29 -76 30 -104 2z"/>
<path d="M4111 1548 c-5 -13 -11 -34 -15 -48 -6 -21 -5 -22 4 -7 6 9 17 17 25
17 8 0 19 -8 25 -17 9 -15 10 -14 4 7 -11 41 -23 70 -29 70 -3 0 -9 -10 -14
-22z m23 -13 c3 -9 0 -15 -9 -15 -9 0 -12 6 -9 15 4 8 7 15 9 15 2 0 5 -7 9
-15z"/>
<path d="M4178 1560 c-5 -17 3 -80 11 -80 7 0 6 79 -2 86 -3 3 -7 0 -9 -6z"/>
<path d="M4390 1556 c0 -8 -8 -13 -17 -12 -14 1 -18 -7 -18 -29 0 -24 4 -30
23 -31 20 -1 22 3 22 42 0 24 -2 44 -5 44 -3 0 -5 -6 -5 -14z m-5 -41 c0 -10
-6 -20 -12 -22 -8 -3 -13 5 -13 22 0 17 5 25 13 23 6 -3 12 -13 12 -23z"/>
<path d="M4613 1525 c0 -27 2 -38 4 -22 2 15 2 37 0 50 -2 12 -4 0 -4 -28z"/>
<path d="M4798 1560 c-5 -17 3 -80 11 -80 7 0 6 79 -2 86 -3 3 -7 0 -9 -6z"/>
<path d="M4217 1544 c-4 -4 -7 -18 -7 -31 0 -26 26 -41 42 -25 8 8 5 9 -11 5
-12 -3 -21 -1 -21 6 0 6 9 11 21 11 14 0 19 5 17 17 -3 19 -29 29 -41 17z m33
-14 c0 -5 -7 -10 -15 -10 -8 0 -15 5 -15 10 0 6 7 10 15 10 8 0 15 -4 15 -10z"/>
<path d="M4281 1511 c1 -35 2 -35 8 -7 9 42 29 44 34 4 l5 -33 -2 35 c-1 29
-5 35 -23 36 -20 1 -23 -3 -22 -35z"/>
<path d="M4417 1544 c-4 -4 -7 -18 -7 -31 0 -26 26 -41 42 -25 8 8 5 9 -11 5
-12 -3 -21 -1 -21 6 0 6 9 11 21 11 14 0 19 5 17 17 -3 19 -29 29 -41 17z m33
-14 c0 -5 -7 -10 -15 -10 -8 0 -15 5 -15 10 0 6 7 10 15 10 8 0 15 -4 15 -10z"/>
<path d="M4483 1515 c0 -22 2 -30 4 -17 2 12 2 30 0 40 -3 9 -5 -1 -4 -23z"/>
<path d="M4557 1543 c-11 -10 -8 -51 4 -59 6 -3 16 -1 22 5 9 9 8 11 -5 6 -15
-6 -18 -2 -18 20 0 20 4 26 16 21 8 -3 12 -2 9 4 -7 12 -19 13 -28 3z"/>
<path d="M4643 1515 c0 -22 2 -30 4 -17 2 12 2 30 0 40 -3 9 -5 -1 -4 -23z"/>
<path d="M4677 1544 c-4 -4 -7 -18 -7 -31 0 -26 26 -41 42 -25 8 8 5 9 -11 5
-12 -3 -21 -1 -21 6 0 6 9 11 21 11 14 0 19 5 17 17 -3 19 -29 29 -41 17z m33
-14 c0 -5 -7 -10 -15 -10 -8 0 -15 5 -15 10 0 6 7 10 15 10 8 0 15 -4 15 -10z"/>
<path d="M4731 1511 c1 -35 2 -35 8 -7 9 42 29 44 34 4 l5 -33 -2 35 c-1 29
-5 35 -23 36 -20 1 -23 -3 -22 -35z"/>
<path d="M4837 1544 c-4 -4 -7 -18 -7 -31 0 -26 26 -41 42 -25 8 8 5 9 -11 5
-12 -3 -21 -1 -21 6 0 6 9 11 21 11 14 0 19 5 17 17 -3 19 -29 29 -41 17z m33
-14 c0 -5 -7 -10 -15 -10 -8 0 -15 5 -15 10 0 6 7 10 15 10 8 0 15 -4 15 -10z"/>
<path d="M5347 3263 c-13 -46 -17 -77 -9 -63 10 17 24 80 17 80 -2 0 -6 -8 -8
-17z"/>
<path d="M5411 3233 c1 -27 4 -38 6 -26 2 12 12 24 21 26 15 4 15 5 0 6 -26 2
-22 29 5 34 19 4 18 4 -5 6 -27 1 -28 -1 -27 -46z"/>
<path d="M5643 3235 c0 -27 2 -38 4 -22 2 15 2 37 0 50 -2 12 -4 0 -4 -28z"/>
<path d="M5930 3266 c0 -8 -8 -13 -17 -12 -14 1 -18 -7 -18 -29 0 -24 4 -30
23 -31 20 -1 22 3 22 42 0 24 -2 44 -5 44 -3 0 -5 -6 -5 -14z m-5 -41 c0 -10
-6 -20 -12 -22 -8 -3 -13 5 -13 22 0 17 5 25 13 23 6 -3 12 -13 12 -23z"/>
<path d="M6093 3235 c0 -27 2 -38 4 -22 2 15 2 37 0 50 -2 12 -4 0 -4 -28z"/>
<path d="M527 3243 c-13 -46 -17 -77 -9 -63 10 17 24 80 17 80 -2 0 -6 -8 -8
-17z"/>
<path d="M970 3246 c0 -8 -8 -13 -17 -12 -14 1 -18 -7 -18 -29 0 -24 4 -30 23
-31 20 -1 22 3 22 42 0 24 -2 44 -5 44 -3 0 -5 -6 -5 -14z m-5 -41 c0 -10 -6
-20 -12 -22 -8 -3 -13 5 -13 22 0 17 5 25 13 23 6 -3 12 -13 12 -23z"/>
<path d="M1133 3215 c0 -27 2 -38 4 -22 2 15 2 37 0 50 -2 12 -4 0 -4 -28z"/>
<path d="M5483 3225 c0 -22 2 -30 4 -17 2 12 2 30 0 40 -3 9 -5 -1 -4 -23z"/>
<path d="M5511 3221 c1 -35 2 -35 8 -7 9 42 29 44 34 4 l5 -33 -2 35 c-1 29
-5 35 -23 36 -20 1 -23 -3 -22 -35z"/>
<path d="M5576 3251 c-3 -5 3 -7 14 -4 11 3 20 0 20 -6 0 -6 -6 -11 -12 -11
-10 0 -9 -3 1 -9 10 -7 10 -10 1 -16 -7 -4 -17 -1 -22 6 -8 12 -9 11 -5 -1 2
-8 14 -16 26 -16 19 -1 22 3 19 30 -3 30 -29 48 -42 27z"/>
<path d="M5670 3225 c0 -33 2 -35 33 -34 17 1 24 3 15 6 -19 5 -22 13 -10 29
4 5 -1 1 -10 -9 -18 -19 -18 -19 -18 6 0 20 6 27 28 30 25 4 25 4 -5 6 -31 1
-33 -1 -33 -34z"/>
<path d="M5756 3251 c-3 -5 3 -7 14 -4 11 3 20 0 20 -6 0 -6 -6 -11 -12 -11
-10 0 -9 -3 1 -9 10 -7 10 -10 1 -16 -7 -4 -17 -1 -22 6 -8 12 -9 11 -5 -1 2
-8 14 -16 26 -16 19 -1 22 3 19 30 -3 30 -29 48 -42 27z"/>
<path d="M5821 3221 c1 -35 2 -35 8 -7 9 42 29 44 34 4 l5 -33 -2 35 c-1 29
-5 35 -23 36 -20 1 -23 -3 -22 -35z"/>
<path d="M5954 3246 c-10 -26 0 -51 21 -51 16 0 20 7 20 30 0 33 -30 49 -41
21z m36 -21 c0 -16 -6 -25 -15 -25 -9 0 -15 9 -15 25 0 16 6 25 15 25 9 0 15
-9 15 -25z"/>
<path d="M6114 3246 c-10 -26 0 -51 21 -51 16 0 20 7 20 30 0 33 -30 49 -41
21z m36 -21 c0 -16 -6 -25 -15 -25 -9 0 -15 9 -15 25 0 16 6 25 15 25 9 0 15
-9 15 -25z"/>
<path d="M6184 3245 c-9 -24 1 -50 19 -49 25 2 21 -14 -5 -19 -20 -5 -20 -5 2
-4 22 2 25 7 28 42 3 35 0 41 -18 42 -12 1 -23 -4 -26 -12z m31 -20 c0 -10 -6
-20 -12 -22 -8 -3 -13 5 -13 22 0 17 5 25 13 23 6 -3 12 -13 12 -23z"/>
<path d="M6253 3225 c0 -22 2 -30 4 -17 2 12 2 30 0 40 -3 9 -5 -1 -4 -23z"/>
<path d="M6271 3221 c1 -35 2 -35 8 -7 9 42 29 44 34 4 l5 -33 -2 35 c-1 29
-5 35 -23 36 -20 1 -23 -3 -22 -35z"/>
<path d="M593 3205 c0 -22 2 -30 4 -17 2 12 2 30 0 40 -3 9 -5 -1 -4 -23z"/>
<path d="M611 3201 c1 -35 2 -35 8 -7 9 42 29 44 34 4 l5 -33 -2 35 c-1 29 -5
35 -23 36 -20 1 -23 -3 -22 -35z"/>
<path d="M683 3205 c0 -22 2 -30 4 -17 2 12 2 30 0 40 -3 9 -5 -1 -4 -23z"/>
<path d="M717 3233 c-11 -10 -8 -51 4 -59 6 -3 16 -1 22 5 9 9 8 11 -5 6 -15
-6 -18 -2 -18 20 0 20 4 26 16 21 8 -3 12 -2 9 4 -7 12 -19 13 -28 3z"/>
<path d="M773 3205 c0 -22 2 -30 4 -17 2 12 2 30 0 40 -3 9 -5 -1 -4 -23z"/>
<path d="M796 3231 c-3 -5 3 -7 14 -4 11 3 20 0 20 -6 0 -6 -6 -11 -12 -11
-10 0 -9 -3 1 -9 10 -7 10 -10 1 -16 -7 -4 -17 -1 -22 6 -8 12 -9 11 -5 -1 2
-8 14 -16 26 -16 19 -1 22 3 19 30 -3 30 -29 48 -42 27z"/>
<path d="M861 3201 c1 -35 2 -35 8 -7 9 42 29 44 34 4 l5 -33 -2 35 c-1 29 -5
35 -23 36 -20 1 -23 -3 -22 -35z"/>
<path d="M994 3226 c-10 -26 0 -51 21 -51 16 0 20 7 20 30 0 33 -30 49 -41 21z
m36 -21 c0 -16 -6 -25 -15 -25 -9 0 -15 9 -15 25 0 16 6 25 15 25 9 0 15 -9
15 -25z"/>
<path d="M1154 3226 c-10 -26 0 -51 21 -51 16 0 20 7 20 30 0 33 -30 49 -41
21z m36 -21 c0 -16 -6 -25 -15 -25 -9 0 -15 9 -15 25 0 16 6 25 15 25 9 0 15
-9 15 -25z"/>
<path d="M1224 3225 c-9 -24 1 -50 19 -49 25 2 21 -14 -5 -19 -20 -5 -20 -5 2
-4 22 2 25 7 28 42 3 35 0 41 -18 42 -12 1 -23 -4 -26 -12z m31 -20 c0 -10 -6
-20 -12 -22 -8 -3 -13 5 -13 22 0 17 5 25 13 23 6 -3 12 -13 12 -23z"/>
<path d="M1293 3205 c0 -22 2 -30 4 -17 2 12 2 30 0 40 -3 9 -5 -1 -4 -23z"/>
<path d="M1311 3201 c1 -35 2 -35 8 -7 9 42 29 44 34 4 l5 -33 -2 35 c-1 29
-5 35 -23 36 -20 1 -23 -3 -22 -35z"/>
<path d="M6028 3173 c12 -2 30 -2 40 0 9 3 -1 5 -23 4 -22 0 -30 -2 -17 -4z"/>
<path d="M6630 3175 c0 -6 76 -45 87 -45 4 0 -12 11 -36 25 -44 26 -51 28 -51
20z"/>
<path d="M1450 3165 c0 -6 76 -45 87 -45 4 0 -12 11 -36 25 -44 26 -51 28 -51
20z"/>
<path d="M1068 3153 c12 -2 30 -2 40 0 9 3 -1 5 -23 4 -22 0 -30 -2 -17 -4z"/>
<path d="M2120 2967 c0 -2 15 -16 33 -33 l32 -29 -29 33 c-28 30 -36 37 -36
29z"/>
<path d="M4154 2790 c0 -58 1 -81 3 -52 2 28 2 76 0 105 -2 28 -3 5 -3 -53z"/>
<path d="M4145 2370 c1 -286 3 -309 24 -372 12 -38 24 -68 27 -68 4 0 3 8 -1
18 -33 86 -39 136 -45 427 l-7 300 2 -305z"/>
<path d="M2677 2393 c-13 -46 -17 -77 -9 -63 10 17 24 80 17 80 -2 0 -6 -8 -8
-17z"/>
<path d="M2810 2381 l-13 -33 -13 24 -12 23 -8 -29 -7 -29 -13 29 c-16 37 -18
27 -3 -16 12 -33 12 -33 24 -10 l13 23 7 -24 8 -24 13 30 13 30 2 -30 1 -30 7
29 c9 42 29 44 34 4 l5 -33 -2 35 c-1 24 -6 35 -16 35 -8 0 -18 6 -21 14 -3 9
-10 3 -19 -18z"/>
<path d="M3030 2391 c-14 -28 -13 -54 5 -77 14 -18 14 -17 3 9 -9 21 -9 36 -1
58 13 33 9 39 -7 10z"/>
<path d="M3128 2400 c-5 -17 3 -80 11 -80 7 0 6 79 -2 86 -3 3 -7 0 -9 -6z"/>
<path d="M3340 2396 c0 -8 -8 -13 -17 -12 -14 1 -18 -7 -18 -29 0 -24 4 -30
23 -31 20 -1 22 3 22 42 0 24 -2 44 -5 44 -3 0 -5 -6 -5 -14z m-5 -41 c0 -10
-6 -20 -12 -22 -8 -3 -13 5 -13 22 0 17 5 25 13 23 6 -3 12 -13 12 -23z"/>
<path d="M3617 2397 c-3 -9 -16 -13 -31 -12 -24 3 -26 0 -25 -33 1 -35 2 -36
8 -8 9 43 31 45 32 4 l2 -33 7 35 7 35 2 -32 c0 -18 4 -33 9 -33 7 0 7 78 -1
86 -2 3 -7 -2 -10 -9z"/>
<path d="M3788 2400 c-5 -17 3 -80 11 -80 7 0 6 79 -2 86 -3 3 -7 0 -9 -6z"/>
<path d="M4002 2383 c9 -24 9 -38 0 -60 -11 -26 -11 -27 3 -9 19 25 19 57 0
82 -13 17 -13 16 -3 -13z"/>
<path d="M2897 2384 c-4 -4 -7 -18 -7 -31 0 -26 26 -41 42 -25 8 8 5 9 -11 5
-12 -3 -21 -1 -21 6 0 6 9 11 21 11 14 0 19 5 17 17 -3 19 -29 29 -41 17z m33
-14 c0 -5 -7 -10 -15 -10 -8 0 -15 5 -15 10 0 6 7 10 15 10 8 0 15 -4 15 -10z"/>
<path d="M2961 2351 c1 -35 2 -35 8 -7 9 42 29 44 34 4 l5 -33 -2 35 c-1 29
-5 35 -23 36 -20 1 -23 -3 -22 -35z"/>
<path d="M3066 2381 c-3 -5 3 -7 14 -4 11 3 20 0 20 -6 0 -6 -6 -11 -12 -11
-10 0 -9 -3 1 -9 10 -7 10 -10 1 -16 -7 -4 -17 -1 -22 6 -8 12 -9 11 -5 -1 2
-8 14 -16 26 -16 19 -1 22 3 19 30 -3 30 -29 48 -42 27z"/>
<path d="M3167 2384 c-4 -4 -7 -18 -7 -31 0 -26 26 -41 42 -25 8 8 5 9 -11 5
-12 -3 -21 -1 -21 6 0 6 9 11 21 11 14 0 19 5 17 17 -3 19 -29 29 -41 17z m33
-14 c0 -5 -7 -10 -15 -10 -8 0 -15 5 -15 10 0 6 7 10 15 10 8 0 15 -4 15 -10z"/>
<path d="M3231 2351 c1 -35 2 -35 8 -7 9 42 29 44 34 4 l5 -33 -2 35 c-1 29
-5 35 -23 36 -20 1 -23 -3 -22 -35z"/>
<path d="M3363 2355 c0 -22 2 -30 4 -17 2 12 2 30 0 40 -3 9 -5 -1 -4 -23z"/>
<path d="M3391 2351 c1 -35 2 -35 8 -7 9 42 29 44 34 4 l5 -33 -2 35 c-1 29
-5 35 -23 36 -20 1 -23 -3 -22 -35z"/>
<path d="M3457 2383 c6 -4 13 -22 16 -38 4 -27 5 -27 3 4 0 21 -7 36 -16 38
-10 3 -11 2 -3 -4z"/>
<path d="M3497 2384 c-4 -4 -7 -18 -7 -31 0 -26 26 -41 42 -25 8 8 5 9 -11 5
-12 -3 -21 -1 -21 6 0 6 9 11 21 11 14 0 19 5 17 17 -3 19 -29 29 -41 17z m33
-14 c0 -5 -7 -10 -15 -10 -8 0 -15 5 -15 10 0 6 7 10 15 10 8 0 15 -4 15 -10z"/>
<path d="M3666 2383 c-3 -3 -6 -17 -6 -30 0 -27 24 -41 43 -25 6 6 26 12 42
15 l30 4 -32 2 c-42 1 -43 21 -1 21 17 0 29 2 27 4 -8 7 -97 15 -103 9z m34
-28 c0 -16 -6 -25 -15 -25 -9 0 -15 9 -15 25 0 16 6 25 15 25 9 0 15 -9 15
-25z"/>
<path d="M3833 2355 c0 -22 2 -30 4 -17 2 12 2 30 0 40 -3 9 -5 -1 -4 -23z"/>
<path d="M3873 2358 c1 -26 7 -33 25 -34 19 -1 22 3 21 35 -1 35 -2 35 -8 7
-8 -40 -28 -44 -35 -7 l-6 31 3 -32z"/>
<path d="M3937 2384 c-4 -4 -7 -18 -7 -31 0 -26 26 -41 42 -25 8 8 5 9 -11 5
-12 -3 -21 -1 -21 6 0 6 9 11 21 11 14 0 19 5 17 17 -3 19 -29 29 -41 17z m33
-14 c0 -5 -7 -10 -15 -10 -8 0 -15 5 -15 10 0 6 7 10 15 10 8 0 15 -4 15 -10z"/>
<path d="M4930 2285 c0 -30 3 -55 8 -55 4 0 7 25 7 55 0 30 -3 55 -7 55 -5 0
-8 -25 -8 -55z"/>
<path d="M5052 2295 c0 -39 2 -43 7 -21 9 42 29 44 34 4 l5 -33 -2 35 c-1 24
-6 35 -16 35 -8 0 -18 7 -22 15 -4 8 -6 -7 -6 -35z"/>
<path d="M5260 2321 c-14 -28 -13 -54 5 -77 14 -18 14 -17 3 9 -9 21 -9 36 -1
58 13 33 9 39 -7 10z"/>
<path d="M5293 2328 c-5 -7 -6 -29 -2 -48 l6 -35 2 33 c0 17 1 35 0 39 0 4 8
10 18 14 15 6 15 8 2 8 -9 1 -21 -5 -26 -11z"/>
<path d="M5353 2295 c0 -27 2 -38 4 -22 2 15 2 37 0 50 -2 12 -4 0 -4 -28z"/>
<path d="M5520 2326 c0 -8 -8 -13 -17 -12 -14 1 -18 -7 -18 -29 0 -24 4 -30
23 -31 20 -1 22 3 22 42 0 24 -2 44 -5 44 -3 0 -5 -6 -5 -14z m-5 -41 c0 -10
-6 -20 -12 -22 -8 -3 -13 5 -13 22 0 17 5 25 13 23 6 -3 12 -13 12 -23z"/>
<path d="M5708 2330 c-5 -17 3 -80 11 -80 7 0 6 79 -2 86 -3 3 -7 0 -9 -6z"/>
<path d="M5920 2326 c0 -8 -8 -13 -17 -12 -14 1 -18 -7 -18 -29 0 -24 4 -30
23 -31 20 -1 22 3 22 42 0 24 -2 44 -5 44 -3 0 -5 -6 -5 -14z m-5 -41 c0 -10
-6 -20 -12 -22 -8 -3 -13 5 -13 22 0 17 5 25 13 23 6 -3 12 -13 12 -23z"/>
<path d="M6197 2327 c-3 -9 -16 -13 -31 -12 -24 3 -26 0 -25 -33 1 -35 2 -36
8 -8 9 43 31 45 32 4 l2 -33 7 35 7 35 2 -32 c0 -18 4 -33 9 -33 7 0 7 78 -1
86 -2 3 -7 -2 -10 -9z"/>
<path d="M6444 2327 c-3 -9 -4 -28 -2 -44 2 -20 8 -28 23 -28 17 0 20 7 20 40
0 30 -4 41 -18 43 -9 2 -20 -3 -23 -11z m31 -32 c0 -16 -6 -30 -12 -32 -9 -3
-13 7 -13 32 0 25 4 35 13 33 6 -3 12 -17 12 -33z"/>
<path d="M6512 2313 c9 -24 9 -38 0 -60 -11 -26 -11 -27 3 -9 19 25 19 57 0
82 -13 17 -13 16 -3 -13z"/>
<path d="M6545 2285 c0 -30 3 -55 8 -55 4 0 7 25 7 55 0 30 -3 55 -7 55 -5 0
-8 -25 -8 -55z"/>
<path d="M6617 2323 c-13 -46 -17 -77 -9 -63 10 17 24 80 17 80 -2 0 -6 -8 -8
-17z"/>
<path d="M6753 2328 c-5 -7 -6 -29 -2 -48 l6 -35 2 33 c1 40 21 43 21 2 0 -16
3 -30 8 -30 6 0 7 38 3 83 -1 12 -28 8 -38 -5z"/>
<path d="M6956 2331 c-3 -5 3 -7 14 -4 22 6 26 -7 8 -25 -9 -9 -9 -12 0 -12 7
0 12 -7 12 -16 0 -12 -6 -15 -21 -11 -16 4 -19 3 -11 -5 21 -21 41 -1 39 39
-2 37 -27 58 -41 34z"/>
<path d="M7024 2327 c-3 -9 -4 -28 -2 -44 2 -20 8 -28 23 -28 17 0 20 7 20 40
0 30 -4 41 -18 43 -9 2 -20 -3 -23 -11z m31 -32 c0 -16 -6 -30 -12 -32 -9 -3
-13 7 -13 32 0 25 4 35 13 33 6 -3 12 -17 12 -33z"/>
<path d="M7378 2330 c-5 -17 3 -80 11 -80 7 0 6 79 -2 86 -3 3 -7 0 -9 -6z"/>
<path d="M4956 2300 c12 -46 21 -56 29 -30 l7 23 13 -23 c12 -23 12 -23 24 10
6 18 9 35 7 37 -2 3 -7 -6 -11 -18 l-7 -22 -13 24 -13 24 -8 -29 -7 -29 -13
29 c-12 25 -13 26 -8 4z"/>
<path d="M5127 2314 c-4 -4 -7 -18 -7 -31 0 -26 26 -41 42 -25 8 8 5 9 -11 5
-12 -3 -21 -1 -21 6 0 6 9 11 21 11 14 0 19 5 17 17 -3 19 -29 29 -41 17z m33
-14 c0 -5 -7 -10 -15 -10 -8 0 -15 5 -15 10 0 6 7 10 15 10 8 0 15 -4 15 -10z"/>
<path d="M5181 2281 c1 -35 2 -35 8 -7 9 42 29 44 34 4 l5 -33 -2 35 c-1 29
-5 35 -23 36 -20 1 -23 -3 -22 -35z"/>
<path d="M5323 2285 c0 -22 2 -30 4 -17 2 12 2 30 0 40 -3 9 -5 -1 -4 -23z"/>
<path d="M5386 2311 c-3 -5 3 -7 14 -4 11 3 20 0 20 -6 0 -6 -6 -11 -12 -11
-10 0 -9 -3 1 -9 10 -7 10 -10 1 -16 -7 -4 -17 -1 -22 6 -8 12 -9 11 -5 -1 2
-8 14 -16 26 -16 19 -1 22 3 19 30 -3 30 -29 48 -42 27z"/>
<path d="M5547 2314 c-4 -4 -7 -18 -7 -31 0 -26 26 -41 42 -25 8 8 5 9 -11 5
-12 -3 -21 -1 -21 6 0 6 9 11 21 11 14 0 19 5 17 17 -3 19 -29 29 -41 17z m33
-14 c0 -5 -7 -10 -15 -10 -8 0 -15 5 -15 10 0 6 7 10 15 10 8 0 15 -4 15 -10z"/>
<path d="M5646 2311 c-3 -5 3 -7 14 -4 11 3 20 0 20 -6 0 -6 -6 -11 -12 -11
-10 0 -9 -3 1 -9 10 -7 10 -10 1 -16 -7 -4 -17 -1 -22 6 -8 12 -9 11 -5 -1 2
-8 14 -16 26 -16 19 -1 22 3 19 30 -3 30 -29 48 -42 27z"/>
<path d="M5747 2314 c-4 -4 -7 -18 -7 -31 0 -26 26 -41 42 -25 8 8 5 9 -11 5
-12 -3 -21 -1 -21 6 0 6 9 11 21 11 14 0 19 5 17 17 -3 19 -29 29 -41 17z m33
-14 c0 -5 -7 -10 -15 -10 -8 0 -15 5 -15 10 0 6 7 10 15 10 8 0 15 -4 15 -10z"/>
<path d="M5811 2281 c1 -35 2 -35 8 -7 9 42 29 44 34 4 l5 -33 -2 35 c-1 29
-5 35 -23 36 -20 1 -23 -3 -22 -35z"/>
<path d="M5943 2285 c0 -22 2 -30 4 -17 2 12 2 30 0 40 -3 9 -5 -1 -4 -23z"/>
<path d="M5971 2281 c1 -35 2 -35 8 -7 9 42 29 44 34 4 l5 -33 -2 35 c-1 29
-5 35 -23 36 -20 1 -23 -3 -22 -35z"/>
<path d="M6037 2313 c6 -4 13 -22 16 -38 4 -27 5 -27 3 4 0 21 -7 36 -16 38
-10 3 -11 2 -3 -4z"/>
<path d="M6077 2314 c-4 -4 -7 -18 -7 -31 0 -26 26 -41 42 -25 8 8 5 9 -11 5
-12 -3 -21 -1 -21 6 0 6 9 11 21 11 14 0 19 5 17 17 -3 19 -29 29 -41 17z m33
-14 c0 -5 -7 -10 -15 -10 -8 0 -15 5 -15 10 0 6 7 10 15 10 8 0 15 -4 15 -10z"/>
<path d="M6244 2306 c-10 -26 0 -51 21 -51 16 0 20 7 20 30 0 33 -30 49 -41
21z m36 -21 c0 -16 -6 -25 -15 -25 -9 0 -15 9 -15 25 0 16 6 25 15 25 9 0 15
-9 15 -25z"/>
<path d="M6686 2311 c-3 -5 3 -7 14 -4 11 3 20 0 20 -6 0 -6 -6 -11 -12 -11
-10 0 -9 -3 1 -9 10 -7 10 -10 1 -16 -7 -4 -17 -1 -22 6 -8 12 -9 11 -5 -1 2
-8 14 -16 26 -16 19 -1 22 3 19 30 -3 30 -29 48 -42 27z"/>
<path d="M6817 2314 c-4 -4 -7 -18 -7 -31 0 -26 26 -41 42 -25 8 8 5 9 -11 5
-12 -3 -21 -1 -21 6 0 6 9 11 21 11 14 0 19 5 17 17 -3 19 -29 29 -41 17z m33
-14 c0 -5 -7 -10 -15 -10 -8 0 -15 5 -15 10 0 6 7 10 15 10 8 0 15 -4 15 -10z"/>
<path d="M6883 2285 c0 -22 2 -30 4 -17 2 12 2 30 0 40 -3 9 -5 -1 -4 -23z"/>
<path d="M7121 2281 c1 -35 2 -35 8 -7 9 42 29 44 34 4 l5 -33 -2 35 c-1 29
-5 35 -23 36 -20 1 -23 -3 -22 -35z"/>
<path d="M7187 2313 c6 -4 13 -22 16 -38 4 -27 5 -27 3 4 0 21 -7 36 -16 38
-10 3 -11 2 -3 -4z"/>
<path d="M7223 2285 c0 -22 2 -30 4 -17 2 12 2 30 0 40 -3 9 -5 -1 -4 -23z"/>
<path d="M7251 2281 c1 -35 2 -35 8 -7 9 42 29 44 34 4 l5 -33 -2 35 c-1 29
-5 35 -23 36 -20 1 -23 -3 -22 -35z"/>
<path d="M7313 2288 c1 -26 7 -33 25 -34 19 -1 22 3 21 35 -1 35 -2 35 -8 7
-8 -40 -28 -44 -35 -7 l-6 31 3 -32z"/>
<path d="M7414 2306 c-10 -26 0 -51 21 -51 16 0 20 7 20 30 0 33 -30 49 -41
21z m36 -21 c0 -16 -6 -25 -15 -25 -9 0 -15 9 -15 25 0 16 6 25 15 25 9 0 15
-9 15 -25z"/>
<path d="M7485 2310 c-8 -14 3 -30 21 -30 8 0 14 -5 14 -11 0 -6 -9 -9 -20 -6
-11 3 -18 1 -14 -4 7 -13 31 -11 40 2 4 7 -4 20 -17 31 l-24 20 23 -5 c12 -3
20 -1 16 4 -7 12 -31 11 -39 -1z"/>
<path d="M6343 2303 c9 -2 25 -2 35 0 9 3 1 5 -18 5 -19 0 -27 -2 -17 -5z"/>
<path d="M6343 2273 c9 -2 25 -2 35 0 9 3 1 5 -18 5 -19 0 -27 -2 -17 -5z"/>
<path d="M4863 2155 c0 -33 2 -45 4 -27 2 18 2 45 0 60 -2 15 -4 0 -4 -33z"/>
<path d="M1317 1873 c-13 -46 -17 -77 -9 -63 10 17 24 80 17 80 -2 0 -6 -8 -8
-17z"/>
<path d="M1381 1843 c1 -27 4 -38 6 -26 2 12 12 24 21 26 15 4 15 5 0 6 -26 2
-22 29 5 34 19 4 18 4 -5 6 -27 1 -28 -1 -27 -46z"/>
<path d="M1613 1845 c0 -27 2 -38 4 -22 2 15 2 37 0 50 -2 12 -4 0 -4 -28z"/>
<path d="M1928 1880 c-5 -17 3 -80 11 -80 7 0 6 79 -2 86 -3 3 -7 0 -9 -6z"/>
<path d="M2140 1876 c0 -8 -8 -13 -17 -12 -14 1 -18 -7 -18 -29 0 -24 4 -30
23 -31 20 -1 22 3 22 42 0 24 -2 44 -5 44 -3 0 -5 -6 -5 -14z m-5 -41 c0 -10
-6 -20 -12 -22 -8 -3 -13 5 -13 22 0 17 5 25 13 23 6 -3 12 -13 12 -23z"/>
<path d="M2417 1877 c-3 -9 -16 -13 -31 -12 -24 3 -26 0 -25 -33 1 -35 2 -36
8 -8 9 43 31 45 32 4 l2 -33 7 35 7 35 2 -32 c0 -18 4 -33 9 -33 7 0 7 78 -1
86 -2 3 -7 -2 -10 -9z"/>
<path d="M4238 1848 c32 -50 125 -168 130 -164 2 3 -18 31 -45 63 -27 33 -59
76 -72 96 -12 20 -25 37 -28 37 -3 0 4 -15 15 -32z"/>
<path d="M1453 1835 c0 -22 2 -30 4 -17 2 12 2 30 0 40 -3 9 -5 -1 -4 -23z"/>
<path d="M1481 1831 c1 -35 2 -35 8 -7 9 42 29 44 34 4 l5 -33 -2 35 c-1 29
-5 35 -23 36 -20 1 -23 -3 -22 -35z"/>
<path d="M1546 1861 c-3 -5 3 -7 14 -4 11 3 20 0 20 -6 0 -6 -6 -11 -12 -11
-10 0 -9 -3 1 -9 10 -7 10 -10 1 -16 -7 -4 -17 -1 -22 6 -8 12 -9 11 -5 -1 2
-8 14 -16 26 -16 19 -1 22 3 19 30 -3 30 -29 48 -42 27z"/>
<path d="M1640 1835 c0 -33 2 -35 33 -34 17 1 24 3 15 6 -19 5 -22 13 -10 29
4 5 -1 1 -10 -9 -18 -19 -18 -19 -18 6 0 20 6 27 28 30 25 4 25 4 -5 6 -31 1
-33 -1 -33 -34z"/>
<path d="M1726 1861 c-3 -5 3 -7 14 -4 11 3 20 0 20 -6 0 -6 -6 -11 -12 -11
-10 0 -9 -3 1 -9 10 -7 10 -10 1 -16 -7 -4 -17 -1 -22 6 -8 12 -9 11 -5 -1 2
-8 14 -16 26 -16 19 -1 22 3 19 30 -3 30 -29 48 -42 27z"/>
<path d="M1793 1835 c0 -22 2 -30 4 -17 2 12 2 30 0 40 -3 9 -5 -1 -4 -23z"/>
<path d="M1866 1861 c-3 -5 3 -7 14 -4 11 3 20 0 20 -6 0 -6 -6 -11 -12 -11
-10 0 -9 -3 1 -9 10 -7 10 -10 1 -16 -7 -4 -17 -1 -22 6 -8 12 -9 11 -5 -1 2
-8 14 -16 26 -16 19 -1 22 3 19 30 -3 30 -29 48 -42 27z"/>
<path d="M1967 1864 c-4 -4 -7 -18 -7 -31 0 -26 26 -41 42 -25 8 8 5 9 -11 5
-12 -3 -21 -1 -21 6 0 6 9 11 21 11 14 0 19 5 17 17 -3 19 -29 29 -41 17z m33
-14 c0 -5 -7 -10 -15 -10 -8 0 -15 5 -15 10 0 6 7 10 15 10 8 0 15 -4 15 -10z"/>
<path d="M2031 1831 c1 -35 2 -35 8 -7 9 42 29 44 34 4 l5 -33 -2 35 c-1 29
-5 35 -23 36 -20 1 -23 -3 -22 -35z"/>
<path d="M2163 1835 c0 -22 2 -30 4 -17 2 12 2 30 0 40 -3 9 -5 -1 -4 -23z"/>
<path d="M2191 1831 c1 -35 2 -35 8 -7 9 42 29 44 34 4 l5 -33 -2 35 c-1 29
-5 35 -23 36 -20 1 -23 -3 -22 -35z"/>
<path d="M2257 1863 c6 -4 13 -22 16 -38 4 -27 5 -27 3 4 0 21 -7 36 -16 38
-10 3 -11 2 -3 -4z"/>
<path d="M2297 1864 c-4 -4 -7 -18 -7 -31 0 -26 26 -41 42 -25 8 8 5 9 -11 5
-12 -3 -21 -1 -21 6 0 6 9 11 21 11 14 0 19 5 17 17 -3 19 -29 29 -41 17z m33
-14 c0 -5 -7 -10 -15 -10 -8 0 -15 5 -15 10 0 6 7 10 15 10 8 0 15 -4 15 -10z"/>
<path d="M2464 1856 c-10 -26 0 -51 21 -51 16 0 20 7 20 30 0 33 -30 49 -41
21z m36 -21 c0 -16 -6 -25 -15 -25 -9 0 -15 9 -15 25 0 16 6 25 15 25 9 0 15
-9 15 -25z"/>
</g>
</svg>
