<?xml version="1.0" standalone="no"?>
<!DOCTYPE svg PUBLIC "-//W3C//DTD SVG 20010904//EN"
 "http://www.w3.org/TR/2001/REC-SVG-20010904/DTD/svg10.dtd">
<svg version="1.0" xmlns="http://www.w3.org/2000/svg"
 width="705.000000pt" height="484.000000pt" viewBox="0 0 705.000000 484.000000"
 preserveAspectRatio="xMidYMid meet">

<g transform="translate(0.000000,484.000000) scale(0.100000,-0.100000)"
fill="#000000" stroke="none">
<path d="M8 4693 c-2 -71 -2 -1153 0 -2405 l2 -2278 3505 0 3505 0 0 2405 0
2405 -3505 0 -3504 0 -3 -127z m942 45 l0 -72 -47 -48 -47 -48 -418 0 -418 0
0 120 0 120 465 0 465 0 0 -72z m6060 -2323 l0 -2395 -3495 0 -3495 0 0 2270
0 2270 417 0 417 0 53 52 53 52 0 73 0 73 3025 0 3025 0 0 -2395z"/>
<path d="M245 4721 c-3 -6 -17 -11 -30 -11 -25 0 -40 -26 -29 -53 4 -11 17
-15 42 -14 36 1 37 2 35 40 -1 42 -7 54 -18 38z m-21 -27 c28 -11 13 -44 -20
-44 -2 0 -4 11 -4 25 0 27 1 28 24 19z"/>
<path d="M320 4716 c-15 -20 -9 -56 12 -70 14 -8 21 -6 35 9 16 17 17 18 1 6
-25 -18 -48 -7 -48 24 0 31 24 42 48 24 15 -13 16 -12 3 4 -16 21 -35 22 -51
3z"/>
<path d="M402 4685 c0 -39 2 -43 7 -21 9 42 29 44 34 4 l5 -33 -2 35 c-1 24
-6 35 -16 35 -8 0 -18 7 -22 15 -4 8 -6 -7 -6 -35z"/>
<path d="M740 4716 c0 -8 -8 -13 -17 -12 -14 1 -18 -7 -18 -29 0 -24 4 -30 23
-31 20 -1 22 3 22 42 0 24 -2 44 -5 44 -3 0 -5 -6 -5 -14z m-5 -41 c0 -10 -6
-20 -12 -22 -8 -3 -13 5 -13 22 0 17 5 25 13 23 6 -3 12 -13 12 -23z"/>
<path d="M116 4702 c-4 -6 3 -8 16 -5 23 6 23 6 -1 -14 -28 -23 -21 -43 15
-43 22 0 25 4 22 33 -2 24 -8 33 -25 35 -11 2 -24 -1 -27 -6z m30 -49 c-10
-10 -19 5 -10 18 6 11 8 11 12 0 2 -7 1 -15 -2 -18z"/>
<path d="M466 4701 c-3 -5 3 -7 14 -4 11 3 20 0 20 -6 0 -6 -6 -11 -12 -11
-10 0 -9 -3 1 -9 10 -7 10 -10 1 -16 -7 -4 -17 -1 -22 6 -8 12 -9 11 -5 -1 2
-8 14 -16 26 -16 19 -1 22 3 19 30 -3 30 -29 48 -42 27z"/>
<path d="M531 4671 c1 -35 2 -35 8 -7 9 42 29 44 34 4 l5 -33 -2 35 c-1 29 -5
35 -23 36 -20 1 -23 -3 -22 -35z"/>
<path d="M597 4703 c6 -4 13 -22 16 -38 4 -27 5 -27 3 4 0 21 -7 36 -16 38
-10 3 -11 2 -3 -4z"/>
<path d="M636 4701 c-3 -5 3 -7 14 -4 11 3 20 0 20 -6 0 -6 -6 -11 -12 -11
-10 0 -9 -3 1 -9 10 -7 10 -10 1 -16 -7 -4 -17 -1 -22 6 -8 12 -9 11 -5 -1 2
-8 14 -16 26 -16 19 -1 22 3 19 30 -3 30 -29 48 -42 27z"/>
<path d="M764 4696 c-10 -26 0 -51 21 -51 16 0 20 7 20 30 0 33 -30 49 -41 21z
m36 -21 c0 -16 -6 -25 -15 -25 -9 0 -15 9 -15 25 0 16 6 25 15 25 9 0 15 -9
15 -25z"/>
<path d="M2825 3679 c-52 -14 -100 -64 -138 -141 -37 -75 -72 -218 -64 -260 4
-20 4 -20 6 5 3 61 34 183 62 243 32 67 101 138 143 146 42 8 83 -3 121 -34
48 -40 80 -92 110 -181 14 -39 22 -56 19 -37 -10 53 -41 127 -74 175 -48 70
-120 102 -185 84z"/>
<path d="M3097 3315 c3 -38 7 -72 9 -74 7 -8 3 64 -6 104 -7 31 -7 24 -3 -30z"/>
<path d="M1227 3233 c-13 -46 -17 -77 -9 -63 10 17 24 80 17 80 -2 0 -6 -8 -8
-17z"/>
<path d="M1687 3236 c-4 -9 -14 -12 -25 -9 -11 2 -23 0 -26 -5 -4 -6 2 -8 14
-5 11 3 20 0 20 -6 0 -6 -6 -11 -12 -11 -10 0 -9 -3 1 -9 10 -7 10 -10 1 -16
-7 -4 -17 -1 -22 6 -8 12 -9 11 -5 -1 7 -28 42 -18 48 15 l6 30 2 -32 c0 -18
4 -33 9 -33 7 0 7 78 -1 86 -2 3 -7 -2 -10 -10z"/>
<path d="M1900 3236 c0 -8 -8 -13 -17 -12 -14 1 -18 -7 -18 -29 0 -24 4 -30
23 -31 20 -1 22 3 22 42 0 24 -2 44 -5 44 -3 0 -5 -6 -5 -14z m-5 -41 c0 -10
-6 -20 -12 -22 -8 -3 -13 5 -13 22 0 17 5 25 13 23 6 -3 12 -13 12 -23z"/>
<path d="M2188 3240 c-5 -17 3 -80 11 -80 7 0 6 79 -2 86 -3 3 -7 0 -9 -6z"/>
<path d="M2612 3198 l-2 -58 -63 0 c-73 0 -87 -10 -87 -61 0 -24 -5 -39 -16
-43 -9 -3 -321 -6 -695 -6 -612 0 -679 2 -679 16 0 8 -13 29 -29 45 -24 24
-38 29 -76 29 -38 0 -52 -5 -76 -29 -24 -24 -29 -38 -29 -76 0 -38 5 -52 29
-76 24 -24 38 -29 76 -29 38 0 52 5 76 29 17 17 29 40 29 55 l0 26 680 0 c374
0 680 -2 680 -5 0 -2 -18 -14 -41 -25 -23 -12 -39 -23 -36 -26 2 -2 24 7 48
21 24 13 47 25 52 25 4 0 7 -16 7 -36 0 -70 7 -74 134 -74 l114 0 7 -77 c10
-125 14 -136 9 -25 l-4 102 250 0 c275 0 263 3 235 -63 -23 -57 -16 -58 9 -2
l22 50 14 -93 c18 -125 10 -246 -40 -598 -22 -159 -43 -301 -46 -316 l-6 -28
-109 0 -109 0 -2 63 -1 62 -6 -55 -6 -55 -52 100 c-29 55 -52 96 -52 90 0 -5
20 -48 44 -95 24 -46 43 -86 41 -87 -2 -2 -21 6 -42 17 -22 12 -31 15 -20 8
71 -50 79 -47 -144 -49 -113 -1 -248 -5 -300 -9 l-95 -7 73 -1 72 -2 0 -91 c0
-123 4 -129 90 -129 39 0 70 -3 70 -6 0 -3 -12 -26 -27 -52 -31 -54 -21 -50
13 5 22 36 23 36 25 13 l1 -25 7 23 c6 23 7 22 29 -17 13 -23 26 -41 29 -41 3
0 -7 20 -21 44 -14 25 -26 47 -26 50 0 3 40 6 88 6 l89 0 6 -127 c22 -426 143
-658 276 -532 49 46 105 209 115 335 l5 59 -9 -55 c-30 -170 -75 -293 -124
-339 -34 -32 -78 -32 -112 0 -76 71 -127 263 -141 532 l-6 127 196 0 c109 0
197 -3 197 -6 0 -3 -12 -26 -27 -52 -31 -54 -21 -50 13 5 l23 38 2 -60 2 -60
6 59 6 59 23 -42 c13 -22 26 -41 29 -41 3 0 -7 20 -21 44 -14 25 -26 47 -26
50 0 3 36 6 80 6 44 0 80 -3 80 -6 0 -3 -12 -26 -27 -52 -31 -54 -21 -50 13 5
18 30 24 34 24 18 1 -18 2 -18 9 -2 5 15 10 11 29 -22 13 -23 26 -41 29 -41 3
0 -7 20 -21 44 -14 25 -26 47 -26 50 0 3 17 6 38 6 61 0 72 20 72 128 l0 92
98 2 97 2 -120 6 c-66 4 -193 8 -282 9 -89 0 -164 4 -166 9 -3 4 10 111 29
237 66 449 74 582 48 745 l-5 35 31 -35 c17 -19 27 -26 21 -14 -5 11 -17 26
-25 34 -9 7 -16 19 -16 26 0 11 18 14 78 14 94 0 112 13 112 78 l0 42 353 3
352 2 -352 3 -353 2 0 36 c0 73 -3 74 -169 74 -161 0 -160 -1 -162 58 -1 27
-1 27 -8 -3 l-7 -30 -23 43 c-12 24 -24 42 -27 39 -2 -2 7 -24 21 -48 13 -24
25 -47 25 -51 0 -5 -108 -8 -240 -8 l-239 0 -4 58 -3 57 -2 -57z m816 -158 c2
-41 0 -85 -3 -97 l-5 -23 -468 2 -467 3 -3 84 c-2 46 -1 90 2 98 5 11 89 13
473 11 l468 -3 3 -75z m100 -1290 c2 -41 0 -85 -3 -97 l-5 -23 -523 2 -522 3
-3 84 c-2 46 -1 90 2 98 5 11 98 13 528 11 l523 -3 3 -75z"/>
<path d="M2670 3015 c0 -40 2 -45 23 -45 29 0 47 18 47 45 0 27 -18 45 -47 45
-21 0 -23 -5 -23 -45z m55 0 c0 -23 -5 -31 -22 -33 -20 -3 -23 1 -23 33 0 32
3 36 23 33 17 -2 22 -10 22 -33z"/>
<path d="M3203 3015 c0 -27 2 -38 4 -22 2 15 2 37 0 50 -2 12 -4 0 -4 -28z"/>
<path d="M2763 3005 c0 -22 2 -30 4 -17 2 12 2 30 0 40 -3 9 -5 -1 -4 -23z"/>
<path d="M2785 3030 c-8 -14 3 -30 21 -30 8 0 14 -5 14 -11 0 -6 -9 -9 -20 -6
-11 3 -18 1 -14 -4 7 -13 31 -11 40 2 4 7 -4 20 -17 31 l-24 20 23 -5 c12 -3
20 -1 16 4 -7 12 -31 11 -39 -1z"/>
<path d="M2841 2991 c0 -25 3 -39 7 -31 4 8 14 15 22 15 10 0 15 10 15 30 0
24 -4 30 -22 31 -21 1 -23 -3 -22 -45z m39 14 c0 -26 -14 -33 -25 -15 -9 14 1
40 15 40 5 0 10 -11 10 -25z"/>
<path d="M2914 3026 c-10 -26 0 -51 21 -51 16 0 20 7 20 30 0 33 -30 49 -41
21z m36 -21 c0 -16 -6 -25 -15 -25 -9 0 -15 9 -15 25 0 16 6 25 15 25 9 0 15
-9 15 -25z"/>
<path d="M2981 3001 c1 -35 2 -35 8 -7 9 42 29 44 34 4 l5 -33 -2 35 c-1 29
-5 35 -23 36 -20 1 -23 -3 -22 -35z"/>
<path d="M3043 3005 c0 -22 2 -30 4 -17 2 12 2 30 0 40 -3 9 -5 -1 -4 -23z"/>
<path d="M3076 3020 c13 -50 21 -54 33 -20 6 18 9 35 7 37 -2 3 -7 -6 -11 -18
l-7 -22 -15 24 -14 24 7 -25z"/>
<path d="M3147 3034 c-4 -4 -7 -18 -7 -31 0 -26 26 -41 42 -25 8 8 5 9 -11 5
-12 -3 -21 -1 -21 6 0 6 9 11 21 11 14 0 19 5 17 17 -3 19 -29 29 -41 17z m33
-14 c0 -5 -7 -10 -15 -10 -8 0 -15 5 -15 10 0 6 7 10 15 10 8 0 15 -4 15 -10z"/>
<path d="M2681 1748 c-5 -13 -11 -34 -15 -48 -6 -21 -5 -22 4 -7 6 9 17 17 25
17 8 0 19 -8 25 -17 9 -15 10 -14 4 7 -11 41 -23 70 -29 70 -3 0 -9 -10 -14
-22z m23 -13 c3 -9 0 -15 -9 -15 -9 0 -12 6 -9 15 4 8 7 15 9 15 2 0 5 -7 9
-15z"/>
<path d="M2748 1760 c-5 -17 3 -80 11 -80 7 0 6 79 -2 86 -3 3 -7 0 -9 -6z"/>
<path d="M2960 1756 c0 -8 -8 -13 -17 -12 -14 1 -18 -7 -18 -29 0 -24 4 -30
23 -31 20 -1 22 3 22 42 0 24 -2 44 -5 44 -3 0 -5 -6 -5 -14z m-5 -41 c0 -10
-6 -20 -12 -22 -8 -3 -13 5 -13 22 0 17 5 25 13 23 6 -3 12 -13 12 -23z"/>
<path d="M3237 1757 c-3 -9 -16 -13 -31 -12 -24 3 -26 0 -25 -33 1 -35 2 -36
8 -8 9 43 31 45 32 4 l2 -33 7 35 7 35 2 -32 c0 -18 4 -33 9 -33 7 0 7 78 -1
86 -2 3 -7 -2 -10 -9z"/>
<path d="M2787 1744 c-4 -4 -7 -18 -7 -31 0 -26 26 -41 42 -25 8 8 5 9 -11 5
-12 -3 -21 -1 -21 6 0 6 9 11 21 11 14 0 19 5 17 17 -3 19 -29 29 -41 17z m33
-14 c0 -5 -7 -10 -15 -10 -8 0 -15 5 -15 10 0 6 7 10 15 10 8 0 15 -4 15 -10z"/>
<path d="M2851 1711 c1 -35 2 -35 8 -7 9 42 29 44 34 4 l5 -33 -2 35 c-1 29
-5 35 -23 36 -20 1 -23 -3 -22 -35z"/>
<path d="M2983 1715 c0 -22 2 -30 4 -17 2 12 2 30 0 40 -3 9 -5 -1 -4 -23z"/>
<path d="M3011 1711 c1 -35 2 -35 8 -7 9 43 31 45 32 4 l1 -33 7 29 c9 42 29
44 34 4 l5 -33 -2 35 c-1 34 -2 35 -43 36 -43 0 -43 0 -42 -35z"/>
<path d="M3117 1744 c-4 -4 -7 -18 -7 -31 0 -26 26 -41 42 -25 8 8 5 9 -11 5
-12 -3 -21 -1 -21 6 0 6 9 11 21 11 14 0 19 5 17 17 -3 19 -29 29 -41 17z m33
-14 c0 -5 -7 -10 -15 -10 -8 0 -15 5 -15 10 0 6 7 10 15 10 8 0 15 -4 15 -10z"/>
<path d="M3284 1736 c-10 -26 0 -51 21 -51 16 0 20 7 20 30 0 33 -30 49 -41
21z m36 -21 c0 -16 -6 -25 -15 -25 -9 0 -15 9 -15 25 0 16 6 25 15 25 9 0 15
-9 15 -25z"/>
<path d="M3151 3211 c-29 -56 -26 -65 4 -12 14 24 23 46 21 48 -3 3 -14 -13
-25 -36z"/>
<path d="M1293 3195 c0 -22 2 -30 4 -17 2 12 2 30 0 40 -3 9 -5 -1 -4 -23z"/>
<path d="M1311 3191 c1 -35 2 -35 8 -7 9 42 29 44 34 4 l5 -33 -2 35 c-1 29
-5 35 -23 36 -20 1 -23 -3 -22 -35z"/>
<path d="M1383 3195 c0 -22 2 -30 4 -17 2 12 2 30 0 40 -3 9 -5 -1 -4 -23z"/>
<path d="M1417 3223 c-11 -10 -8 -51 4 -59 6 -3 16 -1 22 5 9 9 8 11 -5 6 -15
-6 -18 -2 -18 20 0 20 4 26 16 21 8 -3 12 -2 9 4 -7 12 -19 13 -28 3z"/>
<path d="M1473 3195 c0 -22 2 -30 4 -17 2 12 2 30 0 40 -3 9 -5 -1 -4 -23z"/>
<path d="M1494 3216 c-10 -26 0 -51 21 -51 16 0 20 7 20 30 0 33 -30 49 -41
21z m36 -21 c0 -16 -6 -25 -15 -25 -9 0 -15 9 -15 25 0 16 6 25 15 25 9 0 15
-9 15 -25z"/>
<path d="M1737 3224 c-4 -4 -7 -18 -7 -31 0 -26 26 -41 42 -25 8 8 5 9 -11 5
-12 -3 -21 -1 -21 6 0 6 9 11 21 11 14 0 19 5 17 17 -3 19 -29 29 -41 17z m33
-14 c0 -5 -7 -10 -15 -10 -8 0 -15 5 -15 10 0 6 7 10 15 10 8 0 15 -4 15 -10z"/>
<path d="M1791 3191 c1 -35 2 -35 8 -7 9 42 29 44 34 4 l5 -33 -2 35 c-1 29
-5 35 -23 36 -20 1 -23 -3 -22 -35z"/>
<path d="M1933 3195 c0 -22 2 -30 4 -17 2 12 2 30 0 40 -3 9 -5 -1 -4 -23z"/>
<path d="M1951 3191 c1 -35 2 -35 8 -7 9 42 29 44 34 4 l5 -33 -2 35 c-1 29
-5 35 -23 36 -20 1 -23 -3 -22 -35z"/>
<path d="M2017 3223 c6 -4 13 -22 16 -38 4 -27 5 -27 3 4 0 21 -7 36 -16 38
-10 3 -11 2 -3 -4z"/>
<path d="M2057 3224 c-4 -4 -7 -18 -7 -31 0 -26 26 -41 42 -25 8 8 5 9 -11 5
-12 -3 -21 -1 -21 6 0 6 9 11 21 11 14 0 19 5 17 17 -3 19 -29 29 -41 17z m33
-14 c0 -5 -7 -10 -15 -10 -8 0 -15 5 -15 10 0 6 7 10 15 10 8 0 15 -4 15 -10z"/>
<path d="M2121 3191 c1 -35 2 -35 8 -7 9 42 29 44 34 4 l5 -33 -2 35 c-1 29
-5 35 -23 36 -20 1 -23 -3 -22 -35z"/>
<path d="M2224 3216 c-10 -26 0 -51 21 -51 16 0 20 7 20 30 0 33 -30 49 -41
21z m36 -21 c0 -16 -6 -25 -15 -25 -9 0 -15 9 -15 25 0 16 6 25 15 25 9 0 15
-9 15 -25z"/>
<path d="M3767 3183 c-13 -46 -17 -77 -9 -63 10 17 24 80 17 80 -2 0 -6 -8 -8
-17z"/>
<path d="M3833 3188 c-5 -7 -6 -29 -2 -48 l6 -35 2 33 c0 17 1 35 0 39 0 4 8
10 18 14 15 6 15 8 2 8 -9 1 -21 -5 -26 -11z"/>
<path d="M4118 3190 c-5 -17 3 -80 11 -80 7 0 6 79 -2 86 -3 3 -7 0 -9 -6z"/>
<path d="M4330 3186 c0 -8 -8 -13 -17 -12 -14 1 -18 -7 -18 -29 0 -24 4 -30
23 -31 20 -1 22 3 22 42 0 24 -2 44 -5 44 -3 0 -5 -6 -5 -14z m-5 -41 c0 -10
-6 -20 -12 -22 -8 -3 -13 5 -13 22 0 17 5 25 13 23 6 -3 12 -13 12 -23z"/>
<path d="M4607 3187 c-3 -9 -16 -13 -31 -12 -24 3 -26 0 -25 -33 1 -35 2 -36
8 -8 9 43 31 45 32 4 l2 -33 7 35 7 35 2 -32 c0 -18 4 -33 9 -33 7 0 7 78 -1
86 -2 3 -7 -2 -10 -9z"/>
<path d="M3863 3145 c0 -22 2 -30 4 -17 2 12 2 30 0 40 -3 9 -5 -1 -4 -23z"/>
<path d="M3891 3141 c1 -35 2 -35 8 -7 9 42 29 44 34 4 l5 -33 -2 35 c-1 29
-5 35 -23 36 -20 1 -23 -3 -22 -35z"/>
<path d="M3957 3173 c6 -4 13 -22 16 -38 4 -27 5 -27 3 4 0 21 -7 36 -16 38
-10 3 -11 2 -3 -4z"/>
<path d="M4056 3171 c-3 -5 3 -7 14 -4 11 3 20 0 20 -6 0 -6 -6 -11 -12 -11
-10 0 -9 -3 1 -9 10 -7 10 -10 1 -16 -7 -4 -17 -1 -22 6 -8 12 -9 11 -5 -1 2
-8 14 -16 26 -16 19 -1 22 3 19 30 -3 30 -29 48 -42 27z"/>
<path d="M4157 3174 c-4 -4 -7 -18 -7 -31 0 -26 26 -41 42 -25 8 8 5 9 -11 5
-12 -3 -21 -1 -21 6 0 6 9 11 21 11 14 0 19 5 17 17 -3 19 -29 29 -41 17z m33
-14 c0 -5 -7 -10 -15 -10 -8 0 -15 5 -15 10 0 6 7 10 15 10 8 0 15 -4 15 -10z"/>
<path d="M4221 3141 c1 -35 2 -35 8 -7 9 42 29 44 34 4 l5 -33 -2 35 c-1 29
-5 35 -23 36 -20 1 -23 -3 -22 -35z"/>
<path d="M4353 3145 c0 -22 2 -30 4 -17 2 12 2 30 0 40 -3 9 -5 -1 -4 -23z"/>
<path d="M4381 3141 c1 -35 2 -35 8 -7 9 42 29 44 34 4 l5 -33 -2 35 c-1 29
-5 35 -23 36 -20 1 -23 -3 -22 -35z"/>
<path d="M4447 3173 c6 -4 13 -22 16 -38 4 -27 5 -27 3 4 0 21 -7 36 -16 38
-10 3 -11 2 -3 -4z"/>
<path d="M4487 3174 c-4 -4 -7 -18 -7 -31 0 -26 26 -41 42 -25 8 8 5 9 -11 5
-12 -3 -21 -1 -21 6 0 6 9 11 21 11 14 0 19 5 17 17 -3 19 -29 29 -41 17z m33
-14 c0 -5 -7 -10 -15 -10 -8 0 -15 5 -15 10 0 6 7 10 15 10 8 0 15 -4 15 -10z"/>
<path d="M4654 3166 c-10 -26 0 -51 21 -51 16 0 20 7 20 30 0 33 -30 49 -41
21z m36 -21 c0 -16 -6 -25 -15 -25 -9 0 -15 9 -15 25 0 16 6 25 15 25 9 0 15
-9 15 -25z"/>
<path d="M1568 3143 c12 -2 30 -2 40 0 9 3 -1 5 -23 4 -22 0 -30 -2 -17 -4z"/>
<path d="M4959 3111 c-16 -16 -29 -36 -29 -44 0 -8 -7 -18 -16 -21 -9 -3 -127
-7 -262 -8 l-247 -2 250 -6 250 -5 -43 -23 c-24 -13 -42 -25 -39 -28 2 -2 24
7 48 21 52 29 59 30 59 9 0 -8 13 -29 29 -45 24 -24 38 -29 76 -29 38 0 52 5
76 29 24 24 29 38 29 76 0 38 -5 52 -29 76 -24 24 -38 29 -76 29 -38 0 -52 -5
-76 -29z m136 -16 c56 -55 18 -147 -60 -147 -52 0 -85 33 -85 86 0 54 30 86
82 86 28 0 46 -7 63 -25z"/>
<path d="M4980 3090 c-26 -26 -26 -81 -2 -103 23 -21 86 -22 106 -1 20 20 20
73 0 102 -20 29 -76 30 -104 2z"/>
<path d="M3998 3093 c12 -2 30 -2 40 0 9 3 -1 5 -23 4 -22 0 -30 -2 -17 -4z"/>
<path d="M4820 3095 c0 -6 76 -45 87 -45 4 0 -12 11 -36 25 -44 26 -51 28 -51
20z"/>
<path d="M2350 3085 c0 -6 76 -45 87 -45 4 0 -12 11 -36 25 -44 26 -51 28 -51
20z"/>
<path d="M2733 2640 c0 -30 3 -84 7 -120 7 -61 7 -62 7 -15 0 28 -3 82 -7 120
-7 68 -7 69 -7 15z"/>
<path d="M1010 2595 c0 -30 3 -55 8 -55 4 0 7 25 7 55 0 30 -3 55 -7 55 -5 0
-8 -25 -8 -55z"/>
<path d="M1132 2605 c0 -39 2 -43 7 -21 9 42 29 44 34 4 l5 -33 -2 35 c-1 24
-6 35 -16 35 -8 0 -18 7 -22 15 -4 8 -6 -7 -6 -35z"/>
<path d="M1340 2631 c-14 -28 -13 -54 5 -77 14 -18 14 -17 3 9 -9 21 -9 36 -1
58 13 33 9 39 -7 10z"/>
<path d="M1438 2640 c-5 -17 3 -80 11 -80 7 0 6 79 -2 86 -3 3 -7 0 -9 -6z"/>
<path d="M1640 2636 c0 -8 -8 -13 -17 -12 -14 1 -18 -7 -18 -29 0 -24 4 -30
23 -31 20 -1 22 3 22 42 0 24 -2 44 -5 44 -3 0 -5 -6 -5 -14z m-5 -41 c0 -10
-6 -20 -12 -22 -8 -3 -13 5 -13 22 0 17 5 25 13 23 6 -3 12 -13 12 -23z"/>
<path d="M1928 2640 c-5 -17 3 -80 11 -80 7 0 6 79 -2 86 -3 3 -7 0 -9 -6z"/>
<path d="M2098 2640 c-5 -17 3 -80 11 -80 7 0 6 79 -2 86 -3 3 -7 0 -9 -6z"/>
<path d="M2312 2623 c9 -24 9 -38 0 -60 -11 -26 -11 -27 3 -9 19 25 19 57 0
82 -13 17 -13 16 -3 -13z"/>
<path d="M2345 2595 c0 -30 3 -55 8 -55 4 0 7 25 7 55 0 30 -3 55 -7 55 -5 0
-8 -25 -8 -55z"/>
<path d="M1036 2610 c12 -46 21 -56 29 -30 l7 23 13 -23 c12 -23 12 -23 24 10
6 18 9 35 7 37 -2 3 -7 -6 -11 -18 l-7 -22 -13 24 -13 24 -8 -29 -7 -29 -13
29 c-12 25 -13 26 -8 4z"/>
<path d="M1207 2624 c-4 -4 -7 -18 -7 -31 0 -26 26 -41 42 -25 8 8 5 9 -11 5
-12 -3 -21 -1 -21 6 0 6 9 11 21 11 14 0 19 5 17 17 -3 19 -29 29 -41 17z m33
-14 c0 -5 -7 -10 -15 -10 -8 0 -15 5 -15 10 0 6 7 10 15 10 8 0 15 -4 15 -10z"/>
<path d="M1261 2591 c1 -35 2 -35 8 -7 9 42 29 44 34 4 l5 -33 -2 35 c-1 29
-5 35 -23 36 -20 1 -23 -3 -22 -35z"/>
<path d="M1376 2621 c-3 -5 3 -7 14 -4 11 3 20 0 20 -6 0 -6 -6 -11 -12 -11
-10 0 -9 -3 1 -9 10 -7 10 -10 1 -16 -7 -4 -17 -1 -22 6 -8 12 -9 11 -5 -1 2
-8 14 -16 26 -16 19 -1 22 3 19 30 -3 30 -29 48 -42 27z"/>
<path d="M1477 2624 c-4 -4 -7 -18 -7 -31 0 -26 26 -41 42 -25 8 8 5 9 -11 5
-12 -3 -21 -1 -21 6 0 6 9 11 21 11 14 0 19 5 17 17 -3 19 -29 29 -41 17z m33
-14 c0 -5 -7 -10 -15 -10 -8 0 -15 5 -15 10 0 6 7 10 15 10 8 0 15 -4 15 -10z"/>
<path d="M1541 2591 c1 -35 2 -35 8 -7 9 42 29 44 34 4 l5 -33 -2 35 c-1 29
-5 35 -23 36 -20 1 -23 -3 -22 -35z"/>
<path d="M1673 2595 c0 -22 2 -30 4 -17 2 12 2 30 0 40 -3 9 -5 -1 -4 -23z"/>
<path d="M1701 2591 c1 -35 2 -35 8 -7 9 42 29 44 34 4 l5 -33 -2 35 c-1 29
-5 35 -23 36 -20 1 -23 -3 -22 -35z"/>
<path d="M1767 2623 c6 -4 13 -22 16 -38 4 -27 5 -27 3 4 0 21 -7 36 -16 38
-10 3 -11 2 -3 -4z"/>
<path d="M1807 2624 c-4 -4 -7 -18 -7 -31 0 -26 26 -41 42 -25 8 8 5 9 -11 5
-12 -3 -21 -1 -21 6 0 6 9 11 21 11 14 0 19 5 17 17 -3 19 -29 29 -41 17z m33
-14 c0 -5 -7 -10 -15 -10 -8 0 -15 5 -15 10 0 6 7 10 15 10 8 0 15 -4 15 -10z"/>
<path d="M1861 2591 c1 -35 2 -35 8 -7 9 42 29 44 34 4 l5 -33 -2 35 c-1 29
-5 35 -23 36 -20 1 -23 -3 -22 -35z"/>
<path d="M1964 2616 c-10 -26 0 -51 21 -51 16 0 20 7 20 30 0 33 -30 49 -41
21z m36 -21 c0 -16 -6 -25 -15 -25 -9 0 -15 9 -15 25 0 16 6 25 15 25 9 0 15
-9 15 -25z"/>
<path d="M2133 2595 c0 -22 2 -30 4 -17 2 12 2 30 0 40 -3 9 -5 -1 -4 -23z"/>
<path d="M2173 2598 c1 -26 7 -33 25 -34 19 -1 22 3 21 35 -1 35 -2 35 -8 7
-8 -40 -28 -44 -35 -7 l-6 31 3 -32z"/>
<path d="M2247 2624 c-4 -4 -7 -18 -7 -31 0 -26 26 -41 42 -25 8 8 5 9 -11 5
-12 -3 -21 -1 -21 6 0 6 9 11 21 11 14 0 19 5 17 17 -3 19 -29 29 -41 17z m33
-14 c0 -5 -7 -10 -15 -10 -8 0 -15 5 -15 10 0 6 7 10 15 10 8 0 15 -4 15 -10z"/>
<path d="M2033 2613 c9 -2 25 -2 35 0 9 3 1 5 -18 5 -19 0 -27 -2 -17 -5z"/>
<path d="M2033 2583 c9 -2 25 -2 35 0 9 3 1 5 -18 5 -19 0 -27 -2 -17 -5z"/>
<path d="M1017 2483 c-13 -46 -17 -77 -9 -63 10 17 24 80 17 80 -2 0 -6 -8 -8
-17z"/>
<path d="M1083 2455 c0 -27 2 -38 4 -22 2 15 2 37 0 50 -2 12 -4 0 -4 -28z"/>
<path d="M1441 2478 c-5 -13 -11 -34 -15 -48 -6 -21 -5 -22 4 -7 6 9 17 17 25
17 8 0 19 -8 25 -17 9 -15 10 -14 4 7 -11 41 -23 70 -29 70 -3 0 -9 -10 -14
-22z m23 -13 c3 -9 0 -15 -9 -15 -9 0 -12 6 -9 15 4 8 7 15 9 15 2 0 5 -7 9
-15z"/>
<path d="M1508 2490 c-5 -17 3 -80 11 -80 7 0 6 79 -2 86 -3 3 -7 0 -9 -6z"/>
<path d="M1720 2486 c0 -8 -8 -13 -17 -12 -14 1 -18 -7 -18 -29 0 -24 4 -30
23 -31 20 -1 22 3 22 42 0 24 -2 44 -5 44 -3 0 -5 -6 -5 -14z m-5 -41 c0 -10
-6 -20 -12 -22 -8 -3 -13 5 -13 22 0 17 5 25 13 23 6 -3 12 -13 12 -23z"/>
<path d="M1997 2487 c-3 -9 -16 -13 -31 -12 -24 3 -26 0 -25 -33 1 -35 2 -36
8 -8 9 43 31 45 32 4 l2 -33 7 35 7 35 2 -32 c0 -18 4 -33 9 -33 7 0 7 78 -1
86 -2 3 -7 -2 -10 -9z"/>
<path d="M3450 2435 c0 -30 3 -55 8 -55 4 0 7 25 7 55 0 30 -3 55 -7 55 -5 0
-8 -25 -8 -55z"/>
<path d="M3572 2445 c0 -39 2 -43 7 -21 9 42 29 44 34 4 l5 -33 -2 35 c-1 24
-6 35 -16 35 -8 0 -18 7 -22 15 -4 8 -6 -7 -6 -35z"/>
<path d="M3780 2471 c-14 -28 -13 -54 5 -77 14 -18 14 -17 3 9 -9 21 -9 36 -1
58 13 33 9 39 -7 10z"/>
<path d="M3878 2480 c-5 -17 3 -80 11 -80 7 0 6 79 -2 86 -3 3 -7 0 -9 -6z"/>
<path d="M4080 2476 c0 -8 -8 -13 -17 -12 -14 1 -18 -7 -18 -29 0 -24 4 -30
23 -31 20 -1 22 3 22 42 0 24 -2 44 -5 44 -3 0 -5 -6 -5 -14z m-5 -41 c0 -10
-6 -20 -12 -22 -8 -3 -13 5 -13 22 0 17 5 25 13 23 6 -3 12 -13 12 -23z"/>
<path d="M4368 2480 c-5 -17 3 -80 11 -80 7 0 6 79 -2 86 -3 3 -7 0 -9 -6z"/>
<path d="M4543 2478 c-5 -7 -6 -29 -2 -48 l6 -35 2 33 c0 17 1 35 0 38 0 4 5
11 13 15 8 5 9 9 2 9 -6 0 -16 -6 -21 -12z"/>
<path d="M4643 2445 c0 -27 2 -38 4 -22 2 15 2 37 0 50 -2 12 -4 0 -4 -28z"/>
<path d="M4792 2463 c9 -24 9 -38 0 -60 -11 -26 -11 -27 3 -9 19 25 19 57 0
82 -13 17 -13 16 -3 -13z"/>
<path d="M4825 2435 c0 -30 3 -55 8 -55 4 0 7 25 7 55 0 30 -3 55 -7 55 -5 0
-8 -25 -8 -55z"/>
<path d="M1111 2441 c1 -35 2 -35 8 -7 9 42 29 44 34 4 l5 -33 -2 35 c-1 29
-5 35 -23 36 -20 1 -23 -3 -22 -35z"/>
<path d="M1183 2445 c0 -22 2 -30 4 -17 2 12 2 30 0 40 -3 9 -5 -1 -4 -23z"/>
<path d="M1207 2473 c-11 -10 -8 -51 4 -59 6 -3 16 -1 22 5 9 9 8 11 -5 6 -15
-6 -18 -2 -18 20 0 20 4 26 16 21 8 -3 12 -2 9 4 -7 12 -19 13 -28 3z"/>
<path d="M1263 2445 c0 -22 2 -30 4 -17 2 12 2 30 0 40 -3 9 -5 -1 -4 -23z"/>
<path d="M1296 2471 c-3 -5 3 -7 14 -4 11 3 20 0 20 -6 0 -6 -6 -11 -12 -11
-10 0 -9 -3 1 -9 10 -7 10 -10 1 -16 -7 -4 -17 -1 -22 6 -8 12 -9 11 -5 -1 2
-8 14 -16 26 -16 19 -1 22 3 19 30 -3 30 -29 48 -42 27z"/>
<path d="M1363 2445 c0 -22 2 -30 4 -17 2 12 2 30 0 40 -3 9 -5 -1 -4 -23z"/>
<path d="M1547 2474 c-4 -4 -7 -18 -7 -31 0 -26 26 -41 42 -25 8 8 5 9 -11 5
-12 -3 -21 -1 -21 6 0 6 9 11 21 11 14 0 19 5 17 17 -3 19 -29 29 -41 17z m33
-14 c0 -5 -7 -10 -15 -10 -8 0 -15 5 -15 10 0 6 7 10 15 10 8 0 15 -4 15 -10z"/>
<path d="M1611 2441 c1 -35 2 -35 8 -7 9 42 29 44 34 4 l5 -33 -2 35 c-1 29
-5 35 -23 36 -20 1 -23 -3 -22 -35z"/>
<path d="M1743 2445 c0 -22 2 -30 4 -17 2 12 2 30 0 40 -3 9 -5 -1 -4 -23z"/>
<path d="M1771 2441 c1 -35 2 -35 8 -7 9 42 29 44 34 4 l5 -33 -2 35 c-1 29
-5 35 -23 36 -20 1 -23 -3 -22 -35z"/>
<path d="M1837 2473 c6 -4 13 -22 16 -38 4 -27 5 -27 3 4 0 21 -7 36 -16 38
-10 3 -11 2 -3 -4z"/>
<path d="M1877 2474 c-4 -4 -7 -18 -7 -31 0 -26 26 -41 42 -25 8 8 5 9 -11 5
-12 -3 -21 -1 -21 6 0 6 9 11 21 11 14 0 19 5 17 17 -3 19 -29 29 -41 17z m33
-14 c0 -5 -7 -10 -15 -10 -8 0 -15 5 -15 10 0 6 7 10 15 10 8 0 15 -4 15 -10z"/>
<path d="M2044 2466 c-10 -26 0 -51 21 -51 16 0 20 7 20 30 0 33 -30 49 -41
21z m36 -21 c0 -16 -6 -25 -15 -25 -9 0 -15 9 -15 25 0 16 6 25 15 25 9 0 15
-9 15 -25z"/>
<path d="M3476 2450 c12 -46 21 -56 29 -30 l7 23 13 -23 c12 -23 12 -23 24 10
6 18 9 35 7 37 -2 3 -7 -6 -11 -18 l-7 -22 -13 24 -13 24 -8 -29 -7 -29 -13
29 c-12 25 -13 26 -8 4z"/>
<path d="M3647 2464 c-4 -4 -7 -18 -7 -31 0 -26 26 -41 42 -25 8 8 5 9 -11 5
-12 -3 -21 -1 -21 6 0 6 9 11 21 11 14 0 19 5 17 17 -3 19 -29 29 -41 17z m33
-14 c0 -5 -7 -10 -15 -10 -8 0 -15 5 -15 10 0 6 7 10 15 10 8 0 15 -4 15 -10z"/>
<path d="M3701 2431 c1 -35 2 -35 8 -7 9 42 29 44 34 4 l5 -33 -2 35 c-1 29
-5 35 -23 36 -20 1 -23 -3 -22 -35z"/>
<path d="M3816 2461 c-3 -5 3 -7 14 -4 11 3 20 0 20 -6 0 -6 -6 -11 -12 -11
-10 0 -9 -3 1 -9 10 -7 10 -10 1 -16 -7 -4 -17 -1 -22 6 -8 12 -9 11 -5 -1 2
-8 14 -16 26 -16 19 -1 22 3 19 30 -3 30 -29 48 -42 27z"/>
<path d="M3917 2464 c-4 -4 -7 -18 -7 -31 0 -26 26 -41 42 -25 8 8 5 9 -11 5
-12 -3 -21 -1 -21 6 0 6 9 11 21 11 14 0 19 5 17 17 -3 19 -29 29 -41 17z m33
-14 c0 -5 -7 -10 -15 -10 -8 0 -15 5 -15 10 0 6 7 10 15 10 8 0 15 -4 15 -10z"/>
<path d="M3981 2431 c1 -35 2 -35 8 -7 9 42 29 44 34 4 l5 -33 -2 35 c-1 29
-5 35 -23 36 -20 1 -23 -3 -22 -35z"/>
<path d="M4113 2435 c0 -22 2 -30 4 -17 2 12 2 30 0 40 -3 9 -5 -1 -4 -23z"/>
<path d="M4141 2431 c1 -35 2 -35 8 -7 9 42 29 44 34 4 l5 -33 -2 35 c-1 29
-5 35 -23 36 -20 1 -23 -3 -22 -35z"/>
<path d="M4207 2463 c6 -4 13 -22 16 -38 4 -27 5 -27 3 4 0 21 -7 36 -16 38
-10 3 -11 2 -3 -4z"/>
<path d="M4247 2464 c-4 -4 -7 -18 -7 -31 0 -26 26 -41 42 -25 8 8 5 9 -11 5
-12 -3 -21 -1 -21 6 0 6 9 11 21 11 14 0 19 5 17 17 -3 19 -29 29 -41 17z m33
-14 c0 -5 -7 -10 -15 -10 -8 0 -15 5 -15 10 0 6 7 10 15 10 8 0 15 -4 15 -10z"/>
<path d="M4301 2431 c1 -35 2 -35 8 -7 9 42 29 44 34 4 l5 -33 -2 35 c-1 29
-5 35 -23 36 -20 1 -23 -3 -22 -35z"/>
<path d="M4404 2456 c-10 -26 0 -51 21 -51 16 0 20 7 20 30 0 33 -30 49 -41
21z m36 -21 c0 -16 -6 -25 -15 -25 -9 0 -15 9 -15 25 0 16 6 25 15 25 9 0 15
-9 15 -25z"/>
<path d="M4576 2461 c-3 -5 3 -7 14 -4 11 3 20 0 20 -6 0 -6 -6 -11 -12 -11
-10 0 -9 -3 1 -9 10 -7 10 -10 1 -16 -7 -4 -17 -1 -22 6 -8 12 -9 11 -5 -1 2
-8 14 -16 26 -16 19 -1 22 3 19 30 -3 30 -29 48 -42 27z"/>
<path d="M4675 2460 c-8 -14 3 -30 21 -30 8 0 14 -5 14 -11 0 -6 -9 -9 -20 -6
-11 3 -18 1 -14 -4 7 -13 31 -11 40 2 4 7 -4 20 -17 31 l-24 20 23 -5 c12 -3
20 -1 16 4 -7 12 -31 11 -39 -1z"/>
<path d="M4737 2464 c-4 -4 -7 -18 -7 -31 0 -26 26 -41 42 -25 8 8 5 9 -11 5
-12 -3 -21 -1 -21 6 0 6 9 11 21 11 14 0 19 5 17 17 -3 19 -29 29 -41 17z m33
-14 c0 -5 -7 -10 -15 -10 -8 0 -15 5 -15 10 0 6 7 10 15 10 8 0 15 -4 15 -10z"/>
<path d="M4473 2453 c9 -2 25 -2 35 0 9 3 1 5 -18 5 -19 0 -27 -2 -17 -5z"/>
<path d="M2753 2405 c0 -27 2 -38 4 -22 2 15 2 37 0 50 -2 12 -4 0 -4 -28z"/>
<path d="M4473 2423 c9 -2 25 -2 35 0 9 3 1 5 -18 5 -19 0 -27 -2 -17 -5z"/>
<path d="M2761 2323 c-1 -36 26 -183 35 -192 3 -3 3 10 -1 29 -4 19 -14 71
-20 115 -7 44 -13 66 -14 48z"/>
<path d="M2801 2110 c0 -8 4 -22 9 -30 12 -18 12 -2 0 25 -6 13 -9 15 -9 5z"/>
<path d="M2124 1815 c-91 -16 -179 -42 -227 -66 -76 -39 -148 -120 -147 -166
1 -10 7 -1 15 21 39 110 204 188 455 214 71 8 76 9 30 10 -30 0 -87 -6 -126
-13z"/>
<path d="M3797 1823 c18 -2 50 -2 70 0 21 2 7 4 -32 4 -38 0 -55 -2 -38 -4z"/>
<path d="M4002 1805 c250 -36 388 -98 404 -181 9 -49 -10 -87 -72 -142 -121
-108 -337 -182 -533 -182 -136 0 -236 34 -298 101 -26 28 -62 106 -63 133 0
11 -3 16 -6 13 -4 -4 -1 -28 7 -54 17 -64 104 -152 174 -177 72 -26 239 -32
340 -13 250 48 465 188 465 304 0 46 -54 103 -129 137 -72 32 -212 64 -312 71
-70 4 -68 4 23 -10z"/>
<path d="M1535 1599 c-3 -4 2 -6 10 -5 21 3 28 13 10 13 -9 0 -18 -4 -20 -8z"/>
<path d="M930 1545 c0 -30 3 -55 8 -55 4 0 7 25 7 55 0 30 -3 55 -7 55 -5 0
-8 -25 -8 -55z"/>
<path d="M1000 1586 c0 -8 -8 -13 -17 -12 -14 1 -18 -7 -18 -29 0 -24 4 -30
23 -31 20 -1 22 3 22 42 0 24 -2 44 -5 44 -3 0 -5 -6 -5 -14z m-5 -41 c0 -10
-6 -20 -12 -22 -8 -3 -13 5 -13 22 0 17 5 25 13 23 6 -3 12 -13 12 -23z"/>
<path d="M1098 1590 c-5 -17 3 -80 11 -80 7 0 6 79 -2 86 -3 3 -7 0 -9 -6z"/>
<path d="M1036 1571 c-3 -5 3 -7 14 -4 11 3 20 0 20 -6 0 -6 -6 -11 -12 -11
-10 0 -9 -3 1 -9 10 -7 10 -10 1 -16 -7 -4 -17 -1 -22 6 -8 12 -9 11 -5 -1 2
-8 14 -16 26 -16 19 -1 22 3 19 30 -3 30 -29 48 -42 27z"/>
<path d="M1136 1571 c-3 -5 3 -7 14 -4 11 3 20 0 20 -6 0 -6 -6 -11 -12 -11
-10 0 -9 -3 1 -9 10 -7 10 -10 1 -16 -7 -4 -17 -1 -22 6 -8 12 -9 11 -5 -1 2
-8 14 -16 26 -16 19 -1 22 3 19 30 -3 30 -29 48 -42 27z"/>
<path d="M1267 1573 c-11 -10 -8 -51 4 -59 6 -3 16 -1 22 5 9 9 8 11 -5 6 -15
-6 -18 -2 -18 20 0 20 4 26 16 21 8 -3 12 -2 9 4 -7 12 -19 13 -28 3z"/>
<path d="M1323 1545 c0 -22 2 -30 4 -17 2 12 2 30 0 40 -3 9 -5 -1 -4 -23z"/>
<path d="M1363 1545 c0 -22 2 -30 4 -17 2 12 2 30 0 40 -3 9 -5 -1 -4 -23z"/>
<path d="M1396 1571 c-3 -5 3 -7 14 -4 11 3 20 0 20 -6 0 -6 -6 -11 -12 -11
-10 0 -9 -3 1 -9 10 -7 10 -10 1 -16 -7 -4 -17 -1 -22 6 -8 12 -9 11 -5 -1 2
-8 14 -16 26 -16 19 -1 22 3 19 30 -3 30 -29 48 -42 27z"/>
<path d="M1463 1564 c-3 -10 -2 -30 4 -45 8 -20 8 -29 -1 -33 -6 -2 -3 -5 8
-5 11 -1 16 4 13 13 -3 7 0 19 6 25 9 9 8 11 -5 6 -15 -6 -18 -2 -18 20 0 20
4 26 16 21 8 -3 12 -2 9 4 -9 15 -25 12 -32 -6z"/>
<path d="M1526 1571 c-3 -5 3 -7 14 -4 11 3 20 0 20 -6 0 -6 -6 -11 -12 -11
-10 0 -9 -3 1 -9 10 -7 10 -10 1 -16 -7 -4 -17 -1 -22 6 -8 12 -9 11 -5 -1 2
-8 14 -16 26 -16 19 -1 22 3 19 30 -3 30 -29 48 -42 27z"/>
<path d="M1584 1566 c-10 -26 0 -51 21 -51 16 0 20 7 20 30 0 33 -30 49 -41
21z m36 -21 c0 -16 -6 -25 -15 -25 -9 0 -15 9 -15 25 0 16 6 25 15 25 9 0 15
-9 15 -25z"/>
<path d="M1746 1525 c24 -141 167 -283 351 -351 67 -25 93 -29 178 -29 87 0
106 3 148 25 56 28 116 90 146 149 27 52 51 146 50 191 -1 26 -4 19 -10 -25
-22 -150 -82 -250 -183 -303 -46 -25 -61 -27 -156 -26 -90 0 -115 4 -175 28
-139 54 -257 152 -311 258 -13 26 -24 58 -24 70 0 13 -5 30 -11 38 -7 11 -8 4
-3 -25z"/>
<path d="M1208 1493 c12 -2 30 -2 40 0 9 3 -1 5 -23 4 -22 0 -30 -2 -17 -4z"/>
<path d="M925 1395 c0 -30 3 -55 8 -55 4 0 7 25 7 55 0 30 -3 55 -7 55 -5 0
-8 -25 -8 -55z"/>
<path d="M3223 1400 c0 -30 2 -43 4 -27 2 15 2 39 0 55 -2 15 -4 2 -4 -28z"/>
<path d="M3717 1193 c-13 -46 -17 -77 -9 -63 10 17 24 80 17 80 -2 0 -6 -8 -8
-17z"/>
<path d="M3791 1188 c-5 -13 -11 -34 -15 -48 -6 -21 -5 -22 4 -7 6 9 17 17 25
17 8 0 19 -8 25 -17 9 -15 10 -14 4 7 -11 41 -23 70 -29 70 -3 0 -9 -10 -14
-22z m23 -13 c3 -9 0 -15 -9 -15 -9 0 -12 6 -9 15 4 8 7 15 9 15 2 0 5 -7 9
-15z"/>
<path d="M3858 1200 c-5 -17 3 -80 11 -80 7 0 6 79 -2 86 -3 3 -7 0 -9 -6z"/>
<path d="M4060 1196 c0 -8 -8 -13 -17 -12 -14 1 -18 -7 -18 -29 0 -24 4 -30
23 -31 20 -1 22 3 22 42 0 24 -2 44 -5 44 -3 0 -5 -6 -5 -14z m-5 -41 c0 -10
-6 -20 -12 -22 -8 -3 -13 5 -13 22 0 17 5 25 13 23 6 -3 12 -13 12 -23z"/>
<path d="M4348 1200 c-5 -17 3 -80 11 -80 7 0 6 79 -2 86 -3 3 -7 0 -9 -6z"/>
<path d="M4721 1169 c-1 -42 1 -46 22 -45 18 1 22 7 22 31 0 20 -5 30 -15 30
-8 0 -18 7 -22 15 -4 8 -7 -6 -7 -31z m39 -14 c0 -26 -14 -33 -25 -15 -9 14 1
40 15 40 5 0 10 -11 10 -25z"/>
<path d="M4850 1196 c0 -8 -8 -13 -17 -12 -14 1 -18 -7 -18 -29 0 -24 4 -30
23 -31 20 -1 22 3 22 42 0 24 -2 44 -5 44 -3 0 -5 -6 -5 -14z m-5 -41 c0 -10
-6 -20 -12 -22 -8 -3 -13 5 -13 22 0 17 5 25 13 23 6 -3 12 -13 12 -23z"/>
<path d="M3897 1184 c-4 -4 -7 -18 -7 -31 0 -26 26 -41 42 -25 8 8 5 9 -11 5
-12 -3 -21 -1 -21 6 0 6 9 11 21 11 14 0 19 5 17 17 -3 19 -29 29 -41 17z m33
-14 c0 -5 -7 -10 -15 -10 -8 0 -15 5 -15 10 0 6 7 10 15 10 8 0 15 -4 15 -10z"/>
<path d="M3961 1151 c1 -35 2 -35 8 -7 9 42 29 44 34 4 l5 -33 -2 35 c-1 29
-5 35 -23 36 -20 1 -23 -3 -22 -35z"/>
<path d="M4093 1155 c0 -22 2 -30 4 -17 2 12 2 30 0 40 -3 9 -5 -1 -4 -23z"/>
<path d="M4121 1151 c1 -35 2 -35 8 -7 9 42 29 44 34 4 l5 -33 -2 35 c-1 29
-5 35 -23 36 -20 1 -23 -3 -22 -35z"/>
<path d="M4187 1183 c6 -4 13 -22 16 -38 4 -27 5 -27 3 4 0 21 -7 36 -16 38
-10 3 -11 2 -3 -4z"/>
<path d="M4227 1184 c-4 -4 -7 -18 -7 -31 0 -26 26 -41 42 -25 8 8 5 9 -11 5
-12 -3 -21 -1 -21 6 0 6 9 11 21 11 14 0 19 5 17 17 -3 19 -29 29 -41 17z m33
-14 c0 -5 -7 -10 -15 -10 -8 0 -15 5 -15 10 0 6 7 10 15 10 8 0 15 -4 15 -10z"/>
<path d="M4281 1151 c1 -35 2 -35 8 -7 9 42 29 44 34 4 l5 -33 -2 35 c-1 29
-5 35 -23 36 -20 1 -23 -3 -22 -35z"/>
<path d="M4384 1176 c-10 -26 0 -51 21 -51 16 0 20 7 20 30 0 33 -30 49 -41
21z m36 -21 c0 -16 -6 -25 -15 -25 -9 0 -15 9 -15 25 0 16 6 25 15 25 9 0 15
-9 15 -25z"/>
<path d="M4483 1155 c0 -22 2 -30 4 -17 2 12 2 30 0 40 -3 9 -5 -1 -4 -23z"/>
<path d="M4527 1184 c-4 -4 -7 -18 -7 -31 0 -26 26 -41 42 -25 8 8 5 9 -11 5
-12 -3 -21 -1 -21 6 0 6 9 11 21 11 14 0 19 5 17 17 -3 19 -29 29 -41 17z m33
-14 c0 -5 -7 -10 -15 -10 -8 0 -15 5 -15 10 0 6 7 10 15 10 8 0 15 -4 15 -10z"/>
<path d="M4597 1183 c-11 -10 -8 -51 4 -59 6 -3 16 -1 22 5 9 9 8 11 -5 6 -15
-6 -18 -2 -18 20 0 20 4 26 16 21 8 -3 12 -2 9 4 -7 12 -19 13 -28 3z"/>
<path d="M4657 1184 c-4 -4 -7 -18 -7 -31 0 -26 26 -41 42 -25 8 8 5 9 -11 5
-12 -3 -21 -1 -21 6 0 6 9 11 21 11 14 0 19 5 17 17 -3 19 -29 29 -41 17z m33
-14 c0 -5 -7 -10 -15 -10 -8 0 -15 5 -15 10 0 6 7 10 15 10 8 0 15 -4 15 -10z"/>
<path d="M4783 1155 c0 -22 2 -30 4 -17 2 12 2 30 0 40 -3 9 -5 -1 -4 -23z"/>
<path d="M4884 1176 c-10 -26 0 -51 21 -51 16 0 20 7 20 30 0 33 -30 49 -41
21z m36 -21 c0 -16 -6 -25 -15 -25 -9 0 -15 9 -15 25 0 16 6 25 15 25 9 0 15
-9 15 -25z"/>
<path d="M2955 789 c-3 -4 2 -6 10 -5 21 3 28 13 10 13 -9 0 -18 -4 -20 -8z"/>
<path d="M2477 773 c-13 -46 -17 -77 -9 -63 10 17 24 80 17 80 -2 0 -6 -8 -8
-17z"/>
<path d="M2540 745 c0 -40 2 -45 23 -45 29 0 47 18 47 45 0 27 -18 45 -47 45
-21 0 -23 -5 -23 -45z m55 0 c0 -23 -5 -31 -22 -33 -20 -3 -23 1 -23 33 0 32
3 36 23 33 17 -2 22 -10 22 -33z"/>
<path d="M3168 780 c-5 -17 3 -80 11 -80 7 0 6 79 -2 86 -3 3 -7 0 -9 -6z"/>
<path d="M3380 776 c0 -8 -8 -13 -17 -12 -14 1 -18 -7 -18 -29 0 -24 4 -30 23
-31 20 -1 22 3 22 42 0 24 -2 44 -5 44 -3 0 -5 -6 -5 -14z m-5 -41 c0 -10 -6
-20 -12 -22 -8 -3 -13 5 -13 22 0 17 5 25 13 23 6 -3 12 -13 12 -23z"/>
<path d="M3657 777 c-3 -9 -16 -13 -31 -12 -24 3 -26 0 -25 -33 1 -35 2 -36 8
-8 9 43 31 45 32 4 l2 -33 7 35 7 35 2 -32 c0 -18 4 -33 9 -33 7 0 7 78 -1 86
-2 3 -7 -2 -10 -9z"/>
<path d="M2627 764 c-4 -4 -7 -18 -7 -31 0 -26 26 -41 42 -25 8 8 5 9 -11 5
-12 -3 -21 -1 -21 6 0 6 9 11 21 11 14 0 19 5 17 17 -3 19 -29 29 -41 17z m33
-14 c0 -5 -7 -10 -15 -10 -8 0 -15 5 -15 10 0 6 7 10 15 10 8 0 15 -4 15 -10z"/>
<path d="M2695 760 c-8 -14 3 -30 21 -30 8 0 14 -5 14 -11 0 -6 -9 -9 -20 -6
-11 3 -18 1 -14 -4 7 -13 31 -11 40 2 4 7 -4 20 -17 31 l-24 20 23 -5 c12 -3
20 -1 16 4 -7 12 -31 11 -39 -1z"/>
<path d="M2757 763 c-11 -10 -8 -51 4 -59 6 -3 16 -1 22 5 9 9 8 11 -5 6 -15
-6 -18 -2 -18 20 0 20 4 26 16 21 8 -3 12 -2 9 4 -7 12 -19 13 -28 3z"/>
<path d="M2813 735 c0 -22 2 -30 4 -17 2 12 2 30 0 40 -3 9 -5 -1 -4 -23z"/>
<path d="M2853 735 c0 -22 2 -30 4 -17 2 12 2 30 0 40 -3 9 -5 -1 -4 -23z"/>
<path d="M2883 754 c-3 -10 -2 -30 4 -45 8 -20 8 -29 -1 -33 -6 -2 -3 -5 8 -5
11 -1 16 4 13 13 -3 7 0 19 6 25 9 9 8 11 -5 6 -15 -6 -18 -2 -18 20 0 20 4
26 16 21 8 -3 12 -2 9 4 -9 15 -25 12 -32 -6z"/>
<path d="M2946 761 c-3 -5 3 -7 14 -4 11 3 20 0 20 -6 0 -6 -6 -11 -12 -11
-10 0 -9 -3 1 -9 10 -7 10 -10 1 -16 -7 -4 -17 -1 -22 6 -8 12 -9 11 -5 -1 2
-8 14 -16 26 -16 19 -1 22 3 19 30 -3 30 -29 48 -42 27z"/>
<path d="M3004 756 c-10 -26 0 -51 21 -51 16 0 20 7 20 30 0 33 -30 49 -41 21z
m36 -21 c0 -16 -6 -25 -15 -25 -9 0 -15 9 -15 25 0 16 6 25 15 25 9 0 15 -9
15 -25z"/>
<path d="M3106 761 c-3 -5 3 -7 14 -4 11 3 20 0 20 -6 0 -6 -6 -11 -12 -11
-10 0 -9 -3 1 -9 10 -7 10 -10 1 -16 -7 -4 -17 -1 -22 6 -8 12 -9 11 -5 -1 2
-8 14 -16 26 -16 19 -1 22 3 19 30 -3 30 -29 48 -42 27z"/>
<path d="M3207 764 c-4 -4 -7 -18 -7 -31 0 -26 26 -41 42 -25 8 8 5 9 -11 5
-12 -3 -21 -1 -21 6 0 6 9 11 21 11 14 0 19 5 17 17 -3 19 -29 29 -41 17z m33
-14 c0 -5 -7 -10 -15 -10 -8 0 -15 5 -15 10 0 6 7 10 15 10 8 0 15 -4 15 -10z"/>
<path d="M3271 731 c1 -35 2 -35 8 -7 9 42 29 44 34 4 l5 -33 -2 35 c-1 29 -5
35 -23 36 -20 1 -23 -3 -22 -35z"/>
<path d="M3403 735 c0 -22 2 -30 4 -17 2 12 2 30 0 40 -3 9 -5 -1 -4 -23z"/>
<path d="M3431 731 c1 -35 2 -35 8 -7 9 42 29 44 34 4 l5 -33 -2 35 c-1 29 -5
35 -23 36 -20 1 -23 -3 -22 -35z"/>
<path d="M3497 763 c6 -4 13 -22 16 -38 4 -27 5 -27 3 4 0 21 -7 36 -16 38
-10 3 -11 2 -3 -4z"/>
<path d="M3537 764 c-4 -4 -7 -18 -7 -31 0 -26 26 -41 42 -25 8 8 5 9 -11 5
-12 -3 -21 -1 -21 6 0 6 9 11 21 11 14 0 19 5 17 17 -3 19 -29 29 -41 17z m33
-14 c0 -5 -7 -10 -15 -10 -8 0 -15 5 -15 10 0 6 7 10 15 10 8 0 15 -4 15 -10z"/>
<path d="M3704 756 c-10 -26 0 -51 21 -51 16 0 20 7 20 30 0 33 -30 49 -41 21z
m36 -21 c0 -16 -6 -25 -15 -25 -9 0 -15 9 -15 25 0 16 6 25 15 25 9 0 15 -9
15 -25z"/>
</g>
</svg>
