<?xml version="1.0" standalone="no"?>
<!DOCTYPE svg PUBLIC "-//W3C//DTD SVG 20010904//EN"
 "http://www.w3.org/TR/2001/REC-SVG-20010904/DTD/svg10.dtd">
<svg version="1.0" xmlns="http://www.w3.org/2000/svg"
 width="729.000000pt" height="502.000000pt" viewBox="0 0 729.000000 502.000000"
 preserveAspectRatio="xMidYMid meet">

<g transform="translate(0.000000,502.000000) scale(0.100000,-0.100000)"
fill="#000000" stroke="none">
<path d="M30 2500 l0 -2470 3615 0 3615 0 0 2470 0 2470 -3615 0 -3615 0 0
-2470z m820 2388 l0 -72 -47 -48 -47 -48 -358 0 -358 0 0 120 0 120 405 0 405
0 0 -72z m6400 -2388 l0 -2460 -3605 0 -3605 0 0 2335 0 2335 357 0 357 0 53
52 53 52 0 73 0 73 3195 0 3195 0 0 -2460z"/>
<path d="M265 4871 c-3 -6 -17 -11 -30 -11 -25 0 -40 -26 -29 -53 4 -11 17
-15 42 -14 36 1 37 2 35 40 -1 42 -7 54 -18 38z m-21 -27 c28 -11 13 -44 -20
-44 -2 0 -4 11 -4 25 0 27 1 28 24 19z"/>
<path d="M342 4873 c12 -3 18 -17 21 -46 l4 -42 1 42 c2 30 7 43 20 46 9 3 -1
5 -23 5 -22 0 -32 -2 -23 -5z"/>
<path d="M136 4852 c-4 -6 3 -8 16 -5 23 6 23 6 -1 -14 -28 -23 -21 -43 15
-43 22 0 25 4 22 33 -2 24 -8 33 -25 35 -11 2 -24 -1 -27 -6z m30 -49 c-10
-10 -19 5 -10 18 6 11 8 11 12 0 2 -7 1 -15 -2 -18z"/>
<path d="M417 4854 c-4 -4 -7 -18 -7 -31 0 -26 26 -41 42 -25 8 8 5 9 -11 5
-12 -3 -21 -1 -21 6 0 6 9 11 21 11 14 0 19 5 17 17 -3 19 -29 29 -41 17z m33
-14 c0 -5 -7 -10 -15 -10 -8 0 -15 5 -15 10 0 6 7 10 15 10 8 0 15 -4 15 -10z"/>
<path d="M487 4853 c-11 -10 -8 -51 4 -59 6 -3 16 -1 22 5 9 9 8 11 -5 6 -15
-6 -18 -2 -18 20 0 20 4 26 16 21 8 -3 12 -2 9 4 -7 12 -19 13 -28 3z"/>
<path d="M541 4821 c1 -35 2 -35 8 -7 9 42 29 44 34 4 l5 -33 -2 35 c-1 29 -5
35 -23 36 -20 1 -23 -3 -22 -35z"/>
<path d="M613 4825 c0 -22 2 -30 4 -17 2 12 2 30 0 40 -3 9 -5 -1 -4 -23z"/>
<path d="M637 4853 c-11 -10 -8 -51 4 -59 6 -3 16 -1 22 5 9 9 8 11 -5 6 -15
-6 -18 -2 -18 20 0 20 4 26 16 21 8 -3 12 -2 9 4 -7 12 -19 13 -28 3z"/>
<path d="M694 4846 c-10 -26 0 -51 21 -51 16 0 20 7 20 30 0 33 -30 49 -41 21z
m36 -21 c0 -16 -6 -25 -15 -25 -9 0 -15 9 -15 25 0 16 6 25 15 25 9 0 15 -9
15 -25z"/>
<path d="M3915 4274 c-300 -35 -707 -222 -1810 -830 -358 -197 -360 -198 -430
-202 -38 -2 -76 -9 -82 -14 -7 -6 -13 -30 -13 -53 0 -30 -5 -45 -16 -49 -9 -3
-267 -6 -575 -6 l-559 0 0 21 c0 11 -13 34 -29 50 -24 24 -38 29 -76 29 -38 0
-52 -5 -76 -29 -24 -24 -29 -38 -29 -76 0 -38 5 -52 29 -76 24 -24 38 -29 76
-29 38 0 52 5 76 29 16 16 29 39 29 50 l0 21 560 0 c308 0 560 -2 560 -5 0 -2
-18 -14 -41 -25 -23 -12 -39 -23 -36 -26 2 -2 24 7 48 21 24 13 47 25 52 25 4
0 7 -17 7 -38 0 -21 5 -43 12 -50 9 -9 81 -12 261 -12 l250 0 -7 -37 c-3 -21
-9 -49 -12 -63 -4 -14 -4 -22 0 -18 4 3 13 28 20 54 l12 47 61 -184 c123 -372
213 -587 303 -719 49 -72 162 -178 230 -216 117 -66 274 -114 501 -153 87 -15
658 -91 684 -91 3 0 5 -37 5 -83 0 -51 5 -88 12 -95 17 -17 1179 -17 1196 0
15 15 16 181 2 209 -10 17 -22 19 -132 19 l-121 0 7 73 c3 39 8 128 10 197 l5
125 -10 -127 c-5 -69 -12 -157 -16 -195 l-8 -68 -212 -3 -212 -2 -6 37 c-11
67 -25 94 -18 37 3 -30 1 -54 -5 -58 -5 -3 -27 1 -47 10 -20 8 -39 13 -42 11
-2 -3 11 -11 29 -18 30 -13 10 -14 -187 -17 -206 -2 -221 -3 -237 -22 -16 -20
-17 -20 -299 15 -498 63 -676 102 -848 186 -89 43 -117 63 -185 133 -88 89
-137 166 -217 345 -60 136 -230 636 -223 656 5 13 39 15 208 15 144 0 205 3
214 12 7 7 12 29 12 50 0 21 3 38 6 38 3 0 26 -12 52 -27 54 -31 50 -21 -5 13
l-38 23 713 1 712 0 0 -44 c0 -24 6 -48 13 -54 7 -6 44 -12 82 -14 l70 -3 6
-40 6 -40 2 43 1 42 273 -2 c174 -2 272 -7 271 -13 -12 -85 -13 -108 -5 -90 5
11 10 33 10 50 2 54 20 13 55 -125 40 -156 63 -298 76 -460 l9 -115 -4 120
c-6 167 -60 459 -111 601 -7 18 -6 18 17 -1 52 -44 62 -47 24 -7 l-39 42 115
0 c76 0 119 4 127 12 7 7 12 34 12 60 l0 48 855 0 c470 0 855 -2 855 -5 0 -2
-18 -14 -41 -25 -23 -12 -39 -23 -36 -26 2 -2 24 7 48 21 52 29 59 30 59 9 0
-8 13 -29 29 -45 24 -24 38 -29 76 -29 38 0 52 5 76 29 24 24 29 38 29 76 0
38 -5 52 -29 76 -24 24 -38 29 -76 29 -38 0 -52 -5 -76 -29 -16 -16 -29 -36
-29 -44 0 -8 -7 -18 -16 -21 -9 -3 -400 -6 -870 -6 l-854 0 0 38 c0 65 -11 71
-135 74 -66 2 -109 7 -109 13 12 85 13 108 5 90 -5 -11 -10 -32 -10 -46 -1
-27 -25 -46 -36 -29 -3 5 -20 19 -38 31 -30 21 -30 20 8 -19 l39 -42 -247 0
c-203 0 -247 2 -247 14 0 7 7 19 16 26 8 8 20 23 25 34 6 12 -5 3 -25 -19 -29
-33 -35 -36 -36 -20 0 15 -3 17 -9 7 -6 -10 -13 -1 -25 28 -9 24 -19 40 -22
37 -3 -3 4 -23 15 -46 12 -22 21 -45 21 -51 0 -6 -34 -10 -88 -10 -55 0 -92
-4 -100 -12 -7 -7 -12 -34 -12 -60 l0 -48 -712 0 -713 1 38 23 c55 34 59 44 5
13 -26 -15 -49 -27 -52 -27 -3 0 -6 16 -6 36 0 69 -8 74 -125 74 -58 0 -105 4
-105 9 0 27 194 149 408 255 326 163 593 257 857 302 l80 13 -69 -5 c-98 -8
-311 -64 -472 -124 -309 -116 -679 -310 -808 -424 l-29 -26 -264 0 c-144 0
-263 3 -263 8 0 7 274 159 755 421 1007 546 1406 679 1661 550 166 -83 278
-261 468 -740 47 -117 85 -209 86 -204 1 31 -167 439 -242 590 -160 319 -333
438 -593 409z m-1370 -1154 l0 -95 -470 0 -470 0 -3 84 c-2 46 -1 90 2 98 5
11 89 13 473 11 l468 -3 0 -95z m2450 0 l0 -95 -480 0 -480 0 -3 84 c-2 46 -1
90 2 98 5 11 91 13 483 11 l478 -3 0 -95z m1930 65 c56 -55 18 -147 -60 -147
-52 0 -85 33 -85 86 0 54 30 86 82 86 28 0 46 -7 63 -25z m-1830 -1635 l0 -95
-585 0 -585 0 -3 84 c-2 46 -1 90 2 98 5 11 108 13 588 11 l583 -3 0 -95z"/>
<path d="M1790 3105 c0 -40 2 -45 23 -45 29 0 47 18 47 45 0 27 -18 45 -47 45
-21 0 -23 -5 -23 -45z m55 0 c0 -23 -5 -31 -22 -33 -20 -3 -23 1 -23 33 0 32
3 36 23 33 17 -2 22 -10 22 -33z"/>
<path d="M2323 3105 c0 -27 2 -38 4 -22 2 15 2 37 0 50 -2 12 -4 0 -4 -28z"/>
<path d="M1883 3095 c0 -22 2 -30 4 -17 2 12 2 30 0 40 -3 9 -5 -1 -4 -23z"/>
<path d="M1905 3120 c-8 -14 3 -30 21 -30 8 0 14 -5 14 -11 0 -6 -9 -9 -20 -6
-11 3 -18 1 -14 -4 7 -13 31 -11 40 2 4 7 -4 20 -17 31 l-24 20 23 -5 c12 -3
20 -1 16 4 -7 12 -31 11 -39 -1z"/>
<path d="M1961 3081 c0 -25 3 -39 7 -31 4 8 14 15 22 15 10 0 15 10 15 30 0
24 -4 30 -22 31 -21 1 -23 -3 -22 -45z m39 14 c0 -26 -14 -33 -25 -15 -9 14 1
40 15 40 5 0 10 -11 10 -25z"/>
<path d="M2034 3116 c-10 -26 0 -51 21 -51 16 0 20 7 20 30 0 33 -30 49 -41
21z m36 -21 c0 -16 -6 -25 -15 -25 -9 0 -15 9 -15 25 0 16 6 25 15 25 9 0 15
-9 15 -25z"/>
<path d="M2101 3091 c1 -35 2 -35 8 -7 9 42 29 44 34 4 l5 -33 -2 35 c-1 29
-5 35 -23 36 -20 1 -23 -3 -22 -35z"/>
<path d="M2163 3095 c0 -22 2 -30 4 -17 2 12 2 30 0 40 -3 9 -5 -1 -4 -23z"/>
<path d="M2196 3110 c13 -50 21 -54 33 -20 6 18 9 35 7 37 -2 3 -7 -6 -11 -18
l-7 -22 -15 24 -14 24 7 -25z"/>
<path d="M2267 3124 c-4 -4 -7 -18 -7 -31 0 -26 26 -41 42 -25 8 8 5 9 -11 5
-12 -3 -21 -1 -21 6 0 6 9 11 21 11 14 0 19 5 17 17 -3 19 -29 29 -41 17z m33
-14 c0 -5 -7 -10 -15 -10 -8 0 -15 5 -15 10 0 6 7 10 15 10 8 0 15 -4 15 -10z"/>
<path d="M4690 3136 c0 -8 -8 -13 -17 -12 -14 1 -18 -7 -18 -29 0 -24 4 -30
23 -31 20 -1 22 3 22 42 0 24 -2 44 -5 44 -3 0 -5 -6 -5 -14z m-5 -41 c0 -10
-6 -20 -12 -22 -8 -3 -13 5 -13 22 0 17 5 25 13 23 6 -3 12 -13 12 -23z"/>
<path d="M4227 3124 c-4 -4 -7 -18 -7 -31 0 -26 26 -41 42 -25 8 8 5 9 -11 5
-12 -3 -21 -1 -21 6 0 6 9 11 21 11 14 0 19 5 17 17 -3 19 -29 29 -41 17z m33
-14 c0 -5 -7 -10 -15 -10 -8 0 -15 5 -15 10 0 6 7 10 15 10 8 0 15 -4 15 -10z"/>
<path d="M4295 3120 c-8 -14 3 -30 21 -30 8 0 14 -5 14 -11 0 -6 -9 -9 -20 -6
-11 3 -18 1 -14 -4 7 -13 31 -11 40 2 4 7 -4 20 -17 31 l-24 20 23 -5 c12 -3
20 -1 16 4 -7 12 -31 11 -39 -1z"/>
<path d="M4351 3081 c0 -25 3 -39 7 -31 4 8 14 15 22 15 10 0 15 10 15 30 0
24 -4 30 -22 31 -21 1 -23 -3 -22 -45z m39 14 c0 -26 -14 -33 -25 -15 -9 14 1
40 15 40 5 0 10 -11 10 -25z"/>
<path d="M4417 3124 c-4 -4 -7 -18 -7 -31 0 -26 26 -41 42 -25 8 8 5 9 -11 5
-12 -3 -21 -1 -21 6 0 6 9 11 21 11 14 0 19 5 17 17 -3 19 -29 29 -41 17z m33
-14 c0 -5 -7 -10 -15 -10 -8 0 -15 5 -15 10 0 6 7 10 15 10 8 0 15 -4 15 -10z"/>
<path d="M4483 3095 c0 -22 2 -30 4 -17 2 12 2 30 0 40 -3 9 -5 -1 -4 -23z"/>
<path d="M4526 3121 c-3 -5 3 -7 14 -4 26 7 26 -14 -1 -22 -26 -8 -19 -30 10
-31 19 -1 22 3 19 30 -3 30 -29 48 -42 27z m29 -41 c-3 -5 -11 -10 -16 -10 -6
0 -7 5 -4 10 3 6 11 10 16 10 6 0 7 -4 4 -10z"/>
<path d="M4591 3091 c1 -35 2 -35 8 -7 9 42 29 44 34 4 l5 -33 -2 35 c-1 29
-5 35 -23 36 -20 1 -23 -3 -22 -35z"/>
<path d="M4724 3116 c-10 -26 0 -51 21 -51 16 0 20 7 20 30 0 33 -30 49 -41
21z m36 -21 c0 -16 -6 -25 -15 -25 -9 0 -15 9 -15 25 0 16 6 25 15 25 9 0 15
-9 15 -25z"/>
<path d="M6810 3180 c-26 -26 -26 -81 -2 -103 23 -21 86 -22 106 -1 20 20 20
73 0 102 -20 29 -76 30 -104 2z"/>
<path d="M4131 1558 c-5 -13 -11 -34 -15 -48 -6 -21 -5 -22 4 -7 6 9 17 17 25
17 8 0 19 -8 25 -17 9 -15 10 -14 4 7 -11 41 -23 70 -29 70 -3 0 -9 -10 -14
-22z m23 -13 c3 -9 0 -15 -9 -15 -9 0 -12 6 -9 15 4 8 7 15 9 15 2 0 5 -7 9
-15z"/>
<path d="M4198 1570 c-5 -17 3 -80 11 -80 7 0 6 79 -2 86 -3 3 -7 0 -9 -6z"/>
<path d="M4410 1566 c0 -8 -8 -13 -17 -12 -14 1 -18 -7 -18 -29 0 -24 4 -30
23 -31 20 -1 22 3 22 42 0 24 -2 44 -5 44 -3 0 -5 -6 -5 -14z m-5 -41 c0 -10
-6 -20 -12 -22 -8 -3 -13 5 -13 22 0 17 5 25 13 23 6 -3 12 -13 12 -23z"/>
<path d="M4633 1535 c0 -27 2 -38 4 -22 2 15 2 37 0 50 -2 12 -4 0 -4 -28z"/>
<path d="M4818 1570 c-5 -17 3 -80 11 -80 7 0 6 79 -2 86 -3 3 -7 0 -9 -6z"/>
<path d="M4237 1554 c-4 -4 -7 -18 -7 -31 0 -26 26 -41 42 -25 8 8 5 9 -11 5
-12 -3 -21 -1 -21 6 0 6 9 11 21 11 14 0 19 5 17 17 -3 19 -29 29 -41 17z m33
-14 c0 -5 -7 -10 -15 -10 -8 0 -15 5 -15 10 0 6 7 10 15 10 8 0 15 -4 15 -10z"/>
<path d="M4301 1521 c1 -35 2 -35 8 -7 9 42 29 44 34 4 l5 -33 -2 35 c-1 29
-5 35 -23 36 -20 1 -23 -3 -22 -35z"/>
<path d="M4437 1554 c-4 -4 -7 -18 -7 -31 0 -26 26 -41 42 -25 8 8 5 9 -11 5
-12 -3 -21 -1 -21 6 0 6 9 11 21 11 14 0 19 5 17 17 -3 19 -29 29 -41 17z m33
-14 c0 -5 -7 -10 -15 -10 -8 0 -15 5 -15 10 0 6 7 10 15 10 8 0 15 -4 15 -10z"/>
<path d="M4503 1525 c0 -22 2 -30 4 -17 2 12 2 30 0 40 -3 9 -5 -1 -4 -23z"/>
<path d="M4577 1553 c-11 -10 -8 -51 4 -59 6 -3 16 -1 22 5 9 9 8 11 -5 6 -15
-6 -18 -2 -18 20 0 20 4 26 16 21 8 -3 12 -2 9 4 -7 12 -19 13 -28 3z"/>
<path d="M4663 1525 c0 -22 2 -30 4 -17 2 12 2 30 0 40 -3 9 -5 -1 -4 -23z"/>
<path d="M4697 1554 c-4 -4 -7 -18 -7 -31 0 -26 26 -41 42 -25 8 8 5 9 -11 5
-12 -3 -21 -1 -21 6 0 6 9 11 21 11 14 0 19 5 17 17 -3 19 -29 29 -41 17z m33
-14 c0 -5 -7 -10 -15 -10 -8 0 -15 5 -15 10 0 6 7 10 15 10 8 0 15 -4 15 -10z"/>
<path d="M4751 1521 c1 -35 2 -35 8 -7 9 42 29 44 34 4 l5 -33 -2 35 c-1 29
-5 35 -23 36 -20 1 -23 -3 -22 -35z"/>
<path d="M4857 1554 c-4 -4 -7 -18 -7 -31 0 -26 26 -41 42 -25 8 8 5 9 -11 5
-12 -3 -21 -1 -21 6 0 6 9 11 21 11 14 0 19 5 17 17 -3 19 -29 29 -41 17z m33
-14 c0 -5 -7 -10 -15 -10 -8 0 -15 5 -15 10 0 6 7 10 15 10 8 0 15 -4 15 -10z"/>
<path d="M3790 3820 c132 -11 216 -35 282 -80 100 -69 145 -167 158 -345 l7
-100 1 75 c3 135 -32 248 -100 326 -74 84 -176 122 -343 129 l-110 4 105 -9z"/>
<path d="M5367 3273 c-13 -46 -17 -77 -9 -63 10 17 24 80 17 80 -2 0 -6 -8 -8
-17z"/>
<path d="M5431 3243 c1 -27 4 -38 6 -26 2 12 12 24 21 26 15 4 15 5 0 6 -26 2
-22 29 5 34 19 4 18 4 -5 6 -27 1 -28 -1 -27 -46z"/>
<path d="M5663 3245 c0 -27 2 -38 4 -22 2 15 2 37 0 50 -2 12 -4 0 -4 -28z"/>
<path d="M5950 3276 c0 -8 -8 -13 -17 -12 -14 1 -18 -7 -18 -29 0 -24 4 -30
23 -31 20 -1 22 3 22 42 0 24 -2 44 -5 44 -3 0 -5 -6 -5 -14z m-5 -41 c0 -10
-6 -20 -12 -22 -8 -3 -13 5 -13 22 0 17 5 25 13 23 6 -3 12 -13 12 -23z"/>
<path d="M6113 3245 c0 -27 2 -38 4 -22 2 15 2 37 0 50 -2 12 -4 0 -4 -28z"/>
<path d="M547 3253 c-13 -46 -17 -77 -9 -63 10 17 24 80 17 80 -2 0 -6 -8 -8
-17z"/>
<path d="M990 3256 c0 -8 -8 -13 -17 -12 -14 1 -18 -7 -18 -29 0 -24 4 -30 23
-31 20 -1 22 3 22 42 0 24 -2 44 -5 44 -3 0 -5 -6 -5 -14z m-5 -41 c0 -10 -6
-20 -12 -22 -8 -3 -13 5 -13 22 0 17 5 25 13 23 6 -3 12 -13 12 -23z"/>
<path d="M1153 3225 c0 -27 2 -38 4 -22 2 15 2 37 0 50 -2 12 -4 0 -4 -28z"/>
<path d="M5503 3235 c0 -22 2 -30 4 -17 2 12 2 30 0 40 -3 9 -5 -1 -4 -23z"/>
<path d="M5531 3231 c1 -35 2 -35 8 -7 9 42 29 44 34 4 l5 -33 -2 35 c-1 29
-5 35 -23 36 -20 1 -23 -3 -22 -35z"/>
<path d="M5596 3261 c-3 -5 3 -7 14 -4 11 3 20 0 20 -6 0 -6 -6 -11 -12 -11
-10 0 -9 -3 1 -9 10 -7 10 -10 1 -16 -7 -4 -17 -1 -22 6 -8 12 -9 11 -5 -1 2
-8 14 -16 26 -16 19 -1 22 3 19 30 -3 30 -29 48 -42 27z"/>
<path d="M5690 3235 c0 -33 2 -35 33 -34 17 1 24 3 15 6 -19 5 -22 13 -10 29
4 5 -1 1 -10 -9 -18 -19 -18 -19 -18 6 0 20 6 27 28 30 25 4 25 4 -5 6 -31 1
-33 -1 -33 -34z"/>
<path d="M5776 3261 c-3 -5 3 -7 14 -4 11 3 20 0 20 -6 0 -6 -6 -11 -12 -11
-10 0 -9 -3 1 -9 10 -7 10 -10 1 -16 -7 -4 -17 -1 -22 6 -8 12 -9 11 -5 -1 2
-8 14 -16 26 -16 19 -1 22 3 19 30 -3 30 -29 48 -42 27z"/>
<path d="M5841 3231 c1 -35 2 -35 8 -7 9 42 29 44 34 4 l5 -33 -2 35 c-1 29
-5 35 -23 36 -20 1 -23 -3 -22 -35z"/>
<path d="M5974 3256 c-10 -26 0 -51 21 -51 16 0 20 7 20 30 0 33 -30 49 -41
21z m36 -21 c0 -16 -6 -25 -15 -25 -9 0 -15 9 -15 25 0 16 6 25 15 25 9 0 15
-9 15 -25z"/>
<path d="M6134 3256 c-10 -26 0 -51 21 -51 16 0 20 7 20 30 0 33 -30 49 -41
21z m36 -21 c0 -16 -6 -25 -15 -25 -9 0 -15 9 -15 25 0 16 6 25 15 25 9 0 15
-9 15 -25z"/>
<path d="M6204 3255 c-9 -24 1 -50 19 -49 25 2 21 -14 -5 -19 -20 -5 -20 -5 2
-4 22 2 25 7 28 42 3 35 0 41 -18 42 -12 1 -23 -4 -26 -12z m31 -20 c0 -10 -6
-20 -12 -22 -8 -3 -13 5 -13 22 0 17 5 25 13 23 6 -3 12 -13 12 -23z"/>
<path d="M6273 3235 c0 -22 2 -30 4 -17 2 12 2 30 0 40 -3 9 -5 -1 -4 -23z"/>
<path d="M6291 3231 c1 -35 2 -35 8 -7 9 42 29 44 34 4 l5 -33 -2 35 c-1 29
-5 35 -23 36 -20 1 -23 -3 -22 -35z"/>
<path d="M613 3215 c0 -22 2 -30 4 -17 2 12 2 30 0 40 -3 9 -5 -1 -4 -23z"/>
<path d="M631 3211 c1 -35 2 -35 8 -7 9 42 29 44 34 4 l5 -33 -2 35 c-1 29 -5
35 -23 36 -20 1 -23 -3 -22 -35z"/>
<path d="M703 3215 c0 -22 2 -30 4 -17 2 12 2 30 0 40 -3 9 -5 -1 -4 -23z"/>
<path d="M737 3243 c-11 -10 -8 -51 4 -59 6 -3 16 -1 22 5 9 9 8 11 -5 6 -15
-6 -18 -2 -18 20 0 20 4 26 16 21 8 -3 12 -2 9 4 -7 12 -19 13 -28 3z"/>
<path d="M793 3215 c0 -22 2 -30 4 -17 2 12 2 30 0 40 -3 9 -5 -1 -4 -23z"/>
<path d="M816 3241 c-3 -5 3 -7 14 -4 11 3 20 0 20 -6 0 -6 -6 -11 -12 -11
-10 0 -9 -3 1 -9 10 -7 10 -10 1 -16 -7 -4 -17 -1 -22 6 -8 12 -9 11 -5 -1 2
-8 14 -16 26 -16 19 -1 22 3 19 30 -3 30 -29 48 -42 27z"/>
<path d="M881 3211 c1 -35 2 -35 8 -7 9 42 29 44 34 4 l5 -33 -2 35 c-1 29 -5
35 -23 36 -20 1 -23 -3 -22 -35z"/>
<path d="M1014 3236 c-10 -26 0 -51 21 -51 16 0 20 7 20 30 0 33 -30 49 -41
21z m36 -21 c0 -16 -6 -25 -15 -25 -9 0 -15 9 -15 25 0 16 6 25 15 25 9 0 15
-9 15 -25z"/>
<path d="M1174 3236 c-10 -26 0 -51 21 -51 16 0 20 7 20 30 0 33 -30 49 -41
21z m36 -21 c0 -16 -6 -25 -15 -25 -9 0 -15 9 -15 25 0 16 6 25 15 25 9 0 15
-9 15 -25z"/>
<path d="M1244 3235 c-9 -24 1 -50 19 -49 25 2 21 -14 -5 -19 -20 -5 -20 -5 2
-4 22 2 25 7 28 42 3 35 0 41 -18 42 -12 1 -23 -4 -26 -12z m31 -20 c0 -10 -6
-20 -12 -22 -8 -3 -13 5 -13 22 0 17 5 25 13 23 6 -3 12 -13 12 -23z"/>
<path d="M1313 3215 c0 -22 2 -30 4 -17 2 12 2 30 0 40 -3 9 -5 -1 -4 -23z"/>
<path d="M1331 3211 c1 -35 2 -35 8 -7 9 42 29 44 34 4 l5 -33 -2 35 c-1 29
-5 35 -23 36 -20 1 -23 -3 -22 -35z"/>
<path d="M6048 3183 c12 -2 30 -2 40 0 9 3 -1 5 -23 4 -22 0 -30 -2 -17 -4z"/>
<path d="M6650 3185 c0 -6 76 -45 87 -45 4 0 -12 11 -36 25 -44 26 -51 28 -51
20z"/>
<path d="M1470 3175 c0 -6 76 -45 87 -45 4 0 -12 11 -36 25 -44 26 -51 28 -51
20z"/>
<path d="M1088 3163 c12 -2 30 -2 40 0 9 3 -1 5 -23 4 -22 0 -30 -2 -17 -4z"/>
<path d="M2140 2977 c0 -2 15 -16 33 -33 l32 -29 -29 33 c-28 30 -36 37 -36
29z"/>
<path d="M4174 2800 c0 -58 1 -81 3 -52 2 28 2 76 0 105 -2 28 -3 5 -3 -53z"/>
<path d="M4165 2380 c1 -286 3 -309 24 -372 12 -38 24 -68 27 -68 4 0 3 8 -1
18 -33 86 -39 136 -45 427 l-7 300 2 -305z"/>
<path d="M2697 2403 c-13 -46 -17 -77 -9 -63 10 17 24 80 17 80 -2 0 -6 -8 -8
-17z"/>
<path d="M2830 2391 l-13 -33 -13 24 -12 23 -8 -29 -7 -29 -13 29 c-16 37 -18
27 -3 -16 12 -33 12 -33 24 -10 l13 23 7 -24 8 -24 13 30 13 30 2 -30 1 -30 7
29 c9 42 29 44 34 4 l5 -33 -2 35 c-1 24 -6 35 -16 35 -8 0 -18 6 -21 14 -3 9
-10 3 -19 -18z"/>
<path d="M3050 2401 c-14 -28 -13 -54 5 -77 14 -18 14 -17 3 9 -9 21 -9 36 -1
58 13 33 9 39 -7 10z"/>
<path d="M3148 2410 c-5 -17 3 -80 11 -80 7 0 6 79 -2 86 -3 3 -7 0 -9 -6z"/>
<path d="M3360 2406 c0 -8 -8 -13 -17 -12 -14 1 -18 -7 -18 -29 0 -24 4 -30
23 -31 20 -1 22 3 22 42 0 24 -2 44 -5 44 -3 0 -5 -6 -5 -14z m-5 -41 c0 -10
-6 -20 -12 -22 -8 -3 -13 5 -13 22 0 17 5 25 13 23 6 -3 12 -13 12 -23z"/>
<path d="M3637 2407 c-3 -9 -16 -13 -31 -12 -24 3 -26 0 -25 -33 1 -35 2 -36
8 -8 9 43 31 45 32 4 l2 -33 7 35 7 35 2 -32 c0 -18 4 -33 9 -33 7 0 7 78 -1
86 -2 3 -7 -2 -10 -9z"/>
<path d="M3808 2410 c-5 -17 3 -80 11 -80 7 0 6 79 -2 86 -3 3 -7 0 -9 -6z"/>
<path d="M4022 2393 c9 -24 9 -38 0 -60 -11 -26 -11 -27 3 -9 19 25 19 57 0
82 -13 17 -13 16 -3 -13z"/>
<path d="M2917 2394 c-4 -4 -7 -18 -7 -31 0 -26 26 -41 42 -25 8 8 5 9 -11 5
-12 -3 -21 -1 -21 6 0 6 9 11 21 11 14 0 19 5 17 17 -3 19 -29 29 -41 17z m33
-14 c0 -5 -7 -10 -15 -10 -8 0 -15 5 -15 10 0 6 7 10 15 10 8 0 15 -4 15 -10z"/>
<path d="M2981 2361 c1 -35 2 -35 8 -7 9 42 29 44 34 4 l5 -33 -2 35 c-1 29
-5 35 -23 36 -20 1 -23 -3 -22 -35z"/>
<path d="M3086 2391 c-3 -5 3 -7 14 -4 11 3 20 0 20 -6 0 -6 -6 -11 -12 -11
-10 0 -9 -3 1 -9 10 -7 10 -10 1 -16 -7 -4 -17 -1 -22 6 -8 12 -9 11 -5 -1 2
-8 14 -16 26 -16 19 -1 22 3 19 30 -3 30 -29 48 -42 27z"/>
<path d="M3187 2394 c-4 -4 -7 -18 -7 -31 0 -26 26 -41 42 -25 8 8 5 9 -11 5
-12 -3 -21 -1 -21 6 0 6 9 11 21 11 14 0 19 5 17 17 -3 19 -29 29 -41 17z m33
-14 c0 -5 -7 -10 -15 -10 -8 0 -15 5 -15 10 0 6 7 10 15 10 8 0 15 -4 15 -10z"/>
<path d="M3251 2361 c1 -35 2 -35 8 -7 9 42 29 44 34 4 l5 -33 -2 35 c-1 29
-5 35 -23 36 -20 1 -23 -3 -22 -35z"/>
<path d="M3383 2365 c0 -22 2 -30 4 -17 2 12 2 30 0 40 -3 9 -5 -1 -4 -23z"/>
<path d="M3411 2361 c1 -35 2 -35 8 -7 9 42 29 44 34 4 l5 -33 -2 35 c-1 29
-5 35 -23 36 -20 1 -23 -3 -22 -35z"/>
<path d="M3477 2393 c6 -4 13 -22 16 -38 4 -27 5 -27 3 4 0 21 -7 36 -16 38
-10 3 -11 2 -3 -4z"/>
<path d="M3517 2394 c-4 -4 -7 -18 -7 -31 0 -26 26 -41 42 -25 8 8 5 9 -11 5
-12 -3 -21 -1 -21 6 0 6 9 11 21 11 14 0 19 5 17 17 -3 19 -29 29 -41 17z m33
-14 c0 -5 -7 -10 -15 -10 -8 0 -15 5 -15 10 0 6 7 10 15 10 8 0 15 -4 15 -10z"/>
<path d="M3686 2393 c-3 -3 -6 -17 -6 -30 0 -27 24 -41 43 -25 6 6 26 12 42
15 l30 4 -32 2 c-42 1 -43 21 -1 21 17 0 29 2 27 4 -8 7 -97 15 -103 9z m34
-28 c0 -16 -6 -25 -15 -25 -9 0 -15 9 -15 25 0 16 6 25 15 25 9 0 15 -9 15
-25z"/>
<path d="M3853 2365 c0 -22 2 -30 4 -17 2 12 2 30 0 40 -3 9 -5 -1 -4 -23z"/>
<path d="M3893 2368 c1 -26 7 -33 25 -34 19 -1 22 3 21 35 -1 35 -2 35 -8 7
-8 -40 -28 -44 -35 -7 l-6 31 3 -32z"/>
<path d="M3957 2394 c-4 -4 -7 -18 -7 -31 0 -26 26 -41 42 -25 8 8 5 9 -11 5
-12 -3 -21 -1 -21 6 0 6 9 11 21 11 14 0 19 5 17 17 -3 19 -29 29 -41 17z m33
-14 c0 -5 -7 -10 -15 -10 -8 0 -15 5 -15 10 0 6 7 10 15 10 8 0 15 -4 15 -10z"/>
<path d="M5020 2275 c0 -30 3 -55 8 -55 4 0 7 25 7 55 0 30 -3 55 -7 55 -5 0
-8 -25 -8 -55z"/>
<path d="M5053 2318 c-5 -7 -6 -29 -2 -48 l6 -35 2 33 c0 17 1 35 0 38 0 4 5
11 13 15 8 5 9 9 2 9 -6 0 -16 -6 -21 -12z"/>
<path d="M5113 2285 c0 -27 2 -38 4 -22 2 15 2 37 0 50 -2 12 -4 0 -4 -28z"/>
<path d="M5280 2316 c0 -8 -8 -13 -17 -12 -14 1 -18 -7 -18 -29 0 -24 4 -30
23 -31 20 -1 22 3 22 42 0 24 -2 44 -5 44 -3 0 -5 -6 -5 -14z m-5 -41 c0 -10
-6 -20 -12 -22 -8 -3 -13 5 -13 22 0 17 5 25 13 23 6 -3 12 -13 12 -23z"/>
<path d="M5467 2316 c-4 -9 -14 -12 -25 -9 -11 2 -23 0 -26 -5 -4 -6 2 -8 14
-5 11 3 20 0 20 -6 0 -6 -6 -11 -12 -11 -10 0 -9 -3 1 -9 10 -7 10 -10 1 -16
-7 -4 -17 -1 -22 6 -8 12 -9 11 -5 -1 7 -28 42 -18 48 15 l6 30 2 -32 c0 -18
4 -33 9 -33 7 0 7 78 -1 86 -2 3 -7 -2 -10 -10z"/>
<path d="M5680 2316 c0 -8 -8 -13 -17 -12 -14 1 -18 -7 -18 -29 0 -24 4 -30
23 -31 20 -1 22 3 22 42 0 24 -2 44 -5 44 -3 0 -5 -6 -5 -14z m-5 -41 c0 -10
-6 -20 -12 -22 -8 -3 -13 5 -13 22 0 17 5 25 13 23 6 -3 12 -13 12 -23z"/>
<path d="M5968 2320 c-5 -17 3 -80 11 -80 7 0 6 79 -2 86 -3 3 -7 0 -9 -6z"/>
<path d="M6065 2275 c0 -30 3 -55 8 -55 4 0 7 25 7 55 0 30 -3 55 -7 55 -5 0
-8 -25 -8 -55z"/>
<path d="M6137 2313 c-13 -46 -17 -77 -9 -63 10 17 24 80 17 80 -2 0 -6 -8 -8
-17z"/>
<path d="M6273 2318 c-5 -7 -6 -29 -2 -48 l6 -35 2 33 c1 40 21 43 21 2 0 -16
3 -30 8 -30 6 0 7 38 3 83 -1 12 -28 8 -38 -5z"/>
<path d="M6476 2321 c-3 -5 3 -7 14 -4 22 6 26 -7 8 -25 -9 -9 -9 -12 0 -12 7
0 12 -7 12 -16 0 -12 -6 -15 -21 -11 -16 4 -19 3 -11 -5 21 -21 41 -1 39 39
-2 37 -27 58 -41 34z"/>
<path d="M6544 2317 c-3 -9 -4 -28 -2 -44 2 -20 8 -28 23 -28 17 0 20 7 20 40
0 30 -4 41 -18 43 -9 2 -20 -3 -23 -11z m31 -32 c0 -16 -6 -30 -12 -32 -9 -3
-13 7 -13 32 0 25 4 35 13 33 6 -3 12 -17 12 -33z"/>
<path d="M6898 2320 c-5 -17 3 -80 11 -80 7 0 6 79 -2 86 -3 3 -7 0 -9 -6z"/>
<path d="M5093 2275 c0 -22 2 -30 4 -17 2 12 2 30 0 40 -3 9 -5 -1 -4 -23z"/>
<path d="M5146 2301 c-3 -5 3 -7 14 -4 11 3 20 0 20 -6 0 -6 -6 -11 -12 -11
-10 0 -9 -3 1 -9 10 -7 10 -10 1 -16 -7 -4 -17 -1 -22 6 -8 12 -9 11 -5 -1 2
-8 14 -16 26 -16 19 -1 22 3 19 30 -3 30 -29 48 -42 27z"/>
<path d="M5317 2304 c-4 -4 -7 -18 -7 -31 0 -26 26 -41 42 -25 8 8 5 9 -11 5
-12 -3 -21 -1 -21 6 0 6 9 11 21 11 14 0 19 5 17 17 -3 19 -29 29 -41 17z m33
-14 c0 -5 -7 -10 -15 -10 -8 0 -15 5 -15 10 0 6 7 10 15 10 8 0 15 -4 15 -10z"/>
<path d="M5517 2304 c-4 -4 -7 -18 -7 -31 0 -26 26 -41 42 -25 8 8 5 9 -11 5
-12 -3 -21 -1 -21 6 0 6 9 11 21 11 14 0 19 5 17 17 -3 19 -29 29 -41 17z m33
-14 c0 -5 -7 -10 -15 -10 -8 0 -15 5 -15 10 0 6 7 10 15 10 8 0 15 -4 15 -10z"/>
<path d="M5571 2271 c1 -35 2 -35 8 -7 9 42 29 44 34 4 l5 -33 -2 35 c-1 29
-5 35 -23 36 -20 1 -23 -3 -22 -35z"/>
<path d="M5713 2275 c0 -22 2 -30 4 -17 2 12 2 30 0 40 -3 9 -5 -1 -4 -23z"/>
<path d="M5731 2271 c1 -35 2 -35 8 -7 9 42 29 44 34 4 l5 -33 -2 35 c-1 29
-5 35 -23 36 -20 1 -23 -3 -22 -35z"/>
<path d="M5797 2303 c6 -4 13 -22 16 -38 4 -27 5 -27 3 4 0 21 -7 36 -16 38
-10 3 -11 2 -3 -4z"/>
<path d="M5837 2304 c-4 -4 -7 -18 -7 -31 0 -26 26 -41 42 -25 8 8 5 9 -11 5
-12 -3 -21 -1 -21 6 0 6 9 11 21 11 14 0 19 5 17 17 -3 19 -29 29 -41 17z m33
-14 c0 -5 -7 -10 -15 -10 -8 0 -15 5 -15 10 0 6 7 10 15 10 8 0 15 -4 15 -10z"/>
<path d="M5901 2271 c1 -35 2 -35 8 -7 9 42 29 44 34 4 l5 -33 -2 35 c-1 29
-5 35 -23 36 -20 1 -23 -3 -22 -35z"/>
<path d="M6004 2296 c-10 -26 0 -51 21 -51 16 0 20 7 20 30 0 33 -30 49 -41
21z m36 -21 c0 -16 -6 -25 -15 -25 -9 0 -15 9 -15 25 0 16 6 25 15 25 9 0 15
-9 15 -25z"/>
<path d="M6206 2301 c-3 -5 3 -7 14 -4 11 3 20 0 20 -6 0 -6 -6 -11 -12 -11
-10 0 -9 -3 1 -9 10 -7 10 -10 1 -16 -7 -4 -17 -1 -22 6 -8 12 -9 11 -5 -1 2
-8 14 -16 26 -16 19 -1 22 3 19 30 -3 30 -29 48 -42 27z"/>
<path d="M6337 2304 c-4 -4 -7 -18 -7 -31 0 -26 26 -41 42 -25 8 8 5 9 -11 5
-12 -3 -21 -1 -21 6 0 6 9 11 21 11 14 0 19 5 17 17 -3 19 -29 29 -41 17z m33
-14 c0 -5 -7 -10 -15 -10 -8 0 -15 5 -15 10 0 6 7 10 15 10 8 0 15 -4 15 -10z"/>
<path d="M6403 2275 c0 -22 2 -30 4 -17 2 12 2 30 0 40 -3 9 -5 -1 -4 -23z"/>
<path d="M6641 2271 c1 -35 2 -35 8 -7 9 42 29 44 34 4 l5 -33 -2 35 c-1 29
-5 35 -23 36 -20 1 -23 -3 -22 -35z"/>
<path d="M6707 2303 c6 -4 13 -22 16 -38 4 -27 5 -27 3 4 0 21 -7 36 -16 38
-10 3 -11 2 -3 -4z"/>
<path d="M6743 2275 c0 -22 2 -30 4 -17 2 12 2 30 0 40 -3 9 -5 -1 -4 -23z"/>
<path d="M6771 2271 c1 -35 2 -35 8 -7 9 42 29 44 34 4 l5 -33 -2 35 c-1 29
-5 35 -23 36 -20 1 -23 -3 -22 -35z"/>
<path d="M6833 2278 c1 -26 7 -33 25 -34 19 -1 22 3 21 35 -1 35 -2 35 -8 7
-8 -40 -28 -44 -35 -7 l-6 31 3 -32z"/>
<path d="M6934 2296 c-10 -26 0 -51 21 -51 16 0 20 7 20 30 0 33 -30 49 -41
21z m36 -21 c0 -16 -6 -25 -15 -25 -9 0 -15 9 -15 25 0 16 6 25 15 25 9 0 15
-9 15 -25z"/>
<path d="M7005 2300 c-8 -14 3 -30 21 -30 8 0 14 -5 14 -11 0 -6 -9 -9 -20 -6
-11 3 -18 1 -14 -4 7 -13 31 -11 40 2 4 7 -4 20 -17 31 l-24 20 23 -5 c12 -3
20 -1 16 4 -7 12 -31 11 -39 -1z"/>
<path d="M4883 2165 c0 -33 2 -45 4 -27 2 18 2 45 0 60 -2 15 -4 0 -4 -33z"/>
<path d="M1337 1883 c-13 -46 -17 -77 -9 -63 10 17 24 80 17 80 -2 0 -6 -8 -8
-17z"/>
<path d="M1401 1853 c1 -27 4 -38 6 -26 2 12 12 24 21 26 15 4 15 5 0 6 -26 2
-22 29 5 34 19 4 18 4 -5 6 -27 1 -28 -1 -27 -46z"/>
<path d="M1633 1855 c0 -27 2 -38 4 -22 2 15 2 37 0 50 -2 12 -4 0 -4 -28z"/>
<path d="M1948 1890 c-5 -17 3 -80 11 -80 7 0 6 79 -2 86 -3 3 -7 0 -9 -6z"/>
<path d="M2160 1886 c0 -8 -8 -13 -17 -12 -14 1 -18 -7 -18 -29 0 -24 4 -30
23 -31 20 -1 22 3 22 42 0 24 -2 44 -5 44 -3 0 -5 -6 -5 -14z m-5 -41 c0 -10
-6 -20 -12 -22 -8 -3 -13 5 -13 22 0 17 5 25 13 23 6 -3 12 -13 12 -23z"/>
<path d="M2437 1887 c-3 -9 -16 -13 -31 -12 -24 3 -26 0 -25 -33 1 -35 2 -36
8 -8 9 43 31 45 32 4 l2 -33 7 35 7 35 2 -32 c0 -18 4 -33 9 -33 7 0 7 78 -1
86 -2 3 -7 -2 -10 -9z"/>
<path d="M4258 1858 c32 -50 125 -168 130 -164 2 3 -18 31 -45 63 -27 33 -59
76 -72 96 -12 20 -25 37 -28 37 -3 0 4 -15 15 -32z"/>
<path d="M1473 1845 c0 -22 2 -30 4 -17 2 12 2 30 0 40 -3 9 -5 -1 -4 -23z"/>
<path d="M1501 1841 c1 -35 2 -35 8 -7 9 42 29 44 34 4 l5 -33 -2 35 c-1 29
-5 35 -23 36 -20 1 -23 -3 -22 -35z"/>
<path d="M1566 1871 c-3 -5 3 -7 14 -4 11 3 20 0 20 -6 0 -6 -6 -11 -12 -11
-10 0 -9 -3 1 -9 10 -7 10 -10 1 -16 -7 -4 -17 -1 -22 6 -8 12 -9 11 -5 -1 2
-8 14 -16 26 -16 19 -1 22 3 19 30 -3 30 -29 48 -42 27z"/>
<path d="M1660 1845 c0 -33 2 -35 33 -34 17 1 24 3 15 6 -19 5 -22 13 -10 29
4 5 -1 1 -10 -9 -18 -19 -18 -19 -18 6 0 20 6 27 28 30 25 4 25 4 -5 6 -31 1
-33 -1 -33 -34z"/>
<path d="M1746 1871 c-3 -5 3 -7 14 -4 11 3 20 0 20 -6 0 -6 -6 -11 -12 -11
-10 0 -9 -3 1 -9 10 -7 10 -10 1 -16 -7 -4 -17 -1 -22 6 -8 12 -9 11 -5 -1 2
-8 14 -16 26 -16 19 -1 22 3 19 30 -3 30 -29 48 -42 27z"/>
<path d="M1813 1845 c0 -22 2 -30 4 -17 2 12 2 30 0 40 -3 9 -5 -1 -4 -23z"/>
<path d="M1886 1871 c-3 -5 3 -7 14 -4 11 3 20 0 20 -6 0 -6 -6 -11 -12 -11
-10 0 -9 -3 1 -9 10 -7 10 -10 1 -16 -7 -4 -17 -1 -22 6 -8 12 -9 11 -5 -1 2
-8 14 -16 26 -16 19 -1 22 3 19 30 -3 30 -29 48 -42 27z"/>
<path d="M1987 1874 c-4 -4 -7 -18 -7 -31 0 -26 26 -41 42 -25 8 8 5 9 -11 5
-12 -3 -21 -1 -21 6 0 6 9 11 21 11 14 0 19 5 17 17 -3 19 -29 29 -41 17z m33
-14 c0 -5 -7 -10 -15 -10 -8 0 -15 5 -15 10 0 6 7 10 15 10 8 0 15 -4 15 -10z"/>
<path d="M2051 1841 c1 -35 2 -35 8 -7 9 42 29 44 34 4 l5 -33 -2 35 c-1 29
-5 35 -23 36 -20 1 -23 -3 -22 -35z"/>
<path d="M2183 1845 c0 -22 2 -30 4 -17 2 12 2 30 0 40 -3 9 -5 -1 -4 -23z"/>
<path d="M2211 1841 c1 -35 2 -35 8 -7 9 42 29 44 34 4 l5 -33 -2 35 c-1 29
-5 35 -23 36 -20 1 -23 -3 -22 -35z"/>
<path d="M2277 1873 c6 -4 13 -22 16 -38 4 -27 5 -27 3 4 0 21 -7 36 -16 38
-10 3 -11 2 -3 -4z"/>
<path d="M2317 1874 c-4 -4 -7 -18 -7 -31 0 -26 26 -41 42 -25 8 8 5 9 -11 5
-12 -3 -21 -1 -21 6 0 6 9 11 21 11 14 0 19 5 17 17 -3 19 -29 29 -41 17z m33
-14 c0 -5 -7 -10 -15 -10 -8 0 -15 5 -15 10 0 6 7 10 15 10 8 0 15 -4 15 -10z"/>
<path d="M2484 1866 c-10 -26 0 -51 21 -51 16 0 20 7 20 30 0 33 -30 49 -41
21z m36 -21 c0 -16 -6 -25 -15 -25 -9 0 -15 9 -15 25 0 16 6 25 15 25 9 0 15
-9 15 -25z"/>
</g>
</svg>
