<svg version="1.1" xmlns="http://www.w3.org/2000/svg" xmlns:xlink="http://www.w3.org/1999/xlink" width="829" height="830"><defs/><g><text fill="#eeeeee" stroke="none" font-family="Arial" font-size="24px" font-style="normal" font-weight="normal" text-decoration="none" x="0" y="0">UNREGISTERED</text><text fill="#eeeeee" stroke="none" font-family="Arial" font-size="24px" font-style="normal" font-weight="normal" text-decoration="none" x="0" y="30">UNREGISTERED</text><text fill="#eeeeee" stroke="none" font-family="Arial" font-size="24px" font-style="normal" font-weight="normal" text-decoration="none" x="0" y="60">UNREGISTERED</text><text fill="#eeeeee" stroke="none" font-family="Arial" font-size="24px" font-style="normal" font-weight="normal" text-decoration="none" x="0" y="90">UNREGISTERED</text><text fill="#eeeeee" stroke="none" font-family="Arial" font-size="24px" font-style="normal" font-weight="normal" text-decoration="none" x="0" y="120">UNREGISTERED</text><text fill="#eeeeee" stroke="none" font-family="Arial" font-size="24px" font-style="normal" font-weight="normal" text-decoration="none" x="0" y="150">UNREGISTERED</text><text fill="#eeeeee" stroke="none" font-family="Arial" font-size="24px" font-style="normal" font-weight="normal" text-decoration="none" x="0" y="180">UNREGISTERED</text><text fill="#eeeeee" stroke="none" font-family="Arial" font-size="24px" font-style="normal" font-weight="normal" text-decoration="none" x="0" y="210">UNREGISTERED</text><text fill="#eeeeee" stroke="none" font-family="Arial" font-size="24px" font-style="normal" font-weight="normal" text-decoration="none" x="0" y="240">UNREGISTERED</text><text fill="#eeeeee" stroke="none" font-family="Arial" font-size="24px" font-style="normal" font-weight="normal" text-decoration="none" x="0" y="270">UNREGISTERED</text><text fill="#eeeeee" stroke="none" font-family="Arial" font-size="24px" font-style="normal" font-weight="normal" text-decoration="none" x="0" y="300">UNREGISTERED</text><text fill="#eeeeee" stroke="none" font-family="Arial" font-size="24px" font-style="normal" font-weight="normal" text-decoration="none" x="0" y="330">UNREGISTERED</text><text fill="#eeeeee" stroke="none" font-family="Arial" font-size="24px" font-style="normal" font-weight="normal" text-decoration="none" x="0" y="360">UNREGISTERED</text><text fill="#eeeeee" stroke="none" font-family="Arial" font-size="24px" font-style="normal" font-weight="normal" text-decoration="none" x="0" y="390">UNREGISTERED</text><text fill="#eeeeee" stroke="none" font-family="Arial" font-size="24px" font-style="normal" font-weight="normal" text-decoration="none" x="0" y="420">UNREGISTERED</text><text fill="#eeeeee" stroke="none" font-family="Arial" font-size="24px" font-style="normal" font-weight="normal" text-decoration="none" x="0" y="450">UNREGISTERED</text><text fill="#eeeeee" stroke="none" font-family="Arial" font-size="24px" font-style="normal" font-weight="normal" text-decoration="none" x="0" y="480">UNREGISTERED</text><text fill="#eeeeee" stroke="none" font-family="Arial" font-size="24px" font-style="normal" font-weight="normal" text-decoration="none" x="0" y="510">UNREGISTERED</text><text fill="#eeeeee" stroke="none" font-family="Arial" font-size="24px" font-style="normal" font-weight="normal" text-decoration="none" x="0" y="540">UNREGISTERED</text><text fill="#eeeeee" stroke="none" font-family="Arial" font-size="24px" font-style="normal" font-weight="normal" text-decoration="none" x="0" y="570">UNREGISTERED</text><text fill="#eeeeee" stroke="none" font-family="Arial" font-size="24px" font-style="normal" font-weight="normal" text-decoration="none" x="0" y="600">UNREGISTERED</text><text fill="#eeeeee" stroke="none" font-family="Arial" font-size="24px" font-style="normal" font-weight="normal" text-decoration="none" x="0" y="630">UNREGISTERED</text><text fill="#eeeeee" stroke="none" font-family="Arial" font-size="24px" font-style="normal" font-weight="normal" text-decoration="none" x="0" y="660">UNREGISTERED</text><text fill="#eeeeee" stroke="none" font-family="Arial" font-size="24px" font-style="normal" font-weight="normal" text-decoration="none" x="0" y="690">UNREGISTERED</text><text fill="#eeeeee" stroke="none" font-family="Arial" font-size="24px" font-style="normal" font-weight="normal" text-decoration="none" x="0" y="720">UNREGISTERED</text><text fill="#eeeeee" stroke="none" font-family="Arial" font-size="24px" font-style="normal" font-weight="normal" text-decoration="none" x="0" y="750">UNREGISTERED</text><text fill="#eeeeee" stroke="none" font-family="Arial" font-size="24px" font-style="normal" font-weight="normal" text-decoration="none" x="0" y="780">UNREGISTERED</text><text fill="#eeeeee" stroke="none" font-family="Arial" font-size="24px" font-style="normal" font-weight="normal" text-decoration="none" x="0" y="810">UNREGISTERED</text><text fill="#eeeeee" stroke="none" font-family="Arial" font-size="24px" font-style="normal" font-weight="normal" text-decoration="none" x="200" y="0">UNREGISTERED</text><text fill="#eeeeee" stroke="none" font-family="Arial" font-size="24px" font-style="normal" font-weight="normal" text-decoration="none" x="200" y="30">UNREGISTERED</text><text fill="#eeeeee" stroke="none" font-family="Arial" font-size="24px" font-style="normal" font-weight="normal" text-decoration="none" x="200" y="60">UNREGISTERED</text><text fill="#eeeeee" stroke="none" font-family="Arial" font-size="24px" font-style="normal" font-weight="normal" text-decoration="none" x="200" y="90">UNREGISTERED</text><text fill="#eeeeee" stroke="none" font-family="Arial" font-size="24px" font-style="normal" font-weight="normal" text-decoration="none" x="200" y="120">UNREGISTERED</text><text fill="#eeeeee" stroke="none" font-family="Arial" font-size="24px" font-style="normal" font-weight="normal" text-decoration="none" x="200" y="150">UNREGISTERED</text><text fill="#eeeeee" stroke="none" font-family="Arial" font-size="24px" font-style="normal" font-weight="normal" text-decoration="none" x="200" y="180">UNREGISTERED</text><text fill="#eeeeee" stroke="none" font-family="Arial" font-size="24px" font-style="normal" font-weight="normal" text-decoration="none" x="200" y="210">UNREGISTERED</text><text fill="#eeeeee" stroke="none" font-family="Arial" font-size="24px" font-style="normal" font-weight="normal" text-decoration="none" x="200" y="240">UNREGISTERED</text><text fill="#eeeeee" stroke="none" font-family="Arial" font-size="24px" font-style="normal" font-weight="normal" text-decoration="none" x="200" y="270">UNREGISTERED</text><text fill="#eeeeee" stroke="none" font-family="Arial" font-size="24px" font-style="normal" font-weight="normal" text-decoration="none" x="200" y="300">UNREGISTERED</text><text fill="#eeeeee" stroke="none" font-family="Arial" font-size="24px" font-style="normal" font-weight="normal" text-decoration="none" x="200" y="330">UNREGISTERED</text><text fill="#eeeeee" stroke="none" font-family="Arial" font-size="24px" font-style="normal" font-weight="normal" text-decoration="none" x="200" y="360">UNREGISTERED</text><text fill="#eeeeee" stroke="none" font-family="Arial" font-size="24px" font-style="normal" font-weight="normal" text-decoration="none" x="200" y="390">UNREGISTERED</text><text fill="#eeeeee" stroke="none" font-family="Arial" font-size="24px" font-style="normal" font-weight="normal" text-decoration="none" x="200" y="420">UNREGISTERED</text><text fill="#eeeeee" stroke="none" font-family="Arial" font-size="24px" font-style="normal" font-weight="normal" text-decoration="none" x="200" y="450">UNREGISTERED</text><text fill="#eeeeee" stroke="none" font-family="Arial" font-size="24px" font-style="normal" font-weight="normal" text-decoration="none" x="200" y="480">UNREGISTERED</text><text fill="#eeeeee" stroke="none" font-family="Arial" font-size="24px" font-style="normal" font-weight="normal" text-decoration="none" x="200" y="510">UNREGISTERED</text><text fill="#eeeeee" stroke="none" font-family="Arial" font-size="24px" font-style="normal" font-weight="normal" text-decoration="none" x="200" y="540">UNREGISTERED</text><text fill="#eeeeee" stroke="none" font-family="Arial" font-size="24px" font-style="normal" font-weight="normal" text-decoration="none" x="200" y="570">UNREGISTERED</text><text fill="#eeeeee" stroke="none" font-family="Arial" font-size="24px" font-style="normal" font-weight="normal" text-decoration="none" x="200" y="600">UNREGISTERED</text><text fill="#eeeeee" stroke="none" font-family="Arial" font-size="24px" font-style="normal" font-weight="normal" text-decoration="none" x="200" y="630">UNREGISTERED</text><text fill="#eeeeee" stroke="none" font-family="Arial" font-size="24px" font-style="normal" font-weight="normal" text-decoration="none" x="200" y="660">UNREGISTERED</text><text fill="#eeeeee" stroke="none" font-family="Arial" font-size="24px" font-style="normal" font-weight="normal" text-decoration="none" x="200" y="690">UNREGISTERED</text><text fill="#eeeeee" stroke="none" font-family="Arial" font-size="24px" font-style="normal" font-weight="normal" text-decoration="none" x="200" y="720">UNREGISTERED</text><text fill="#eeeeee" stroke="none" font-family="Arial" font-size="24px" font-style="normal" font-weight="normal" text-decoration="none" x="200" y="750">UNREGISTERED</text><text fill="#eeeeee" stroke="none" font-family="Arial" font-size="24px" font-style="normal" font-weight="normal" text-decoration="none" x="200" y="780">UNREGISTERED</text><text fill="#eeeeee" stroke="none" font-family="Arial" font-size="24px" font-style="normal" font-weight="normal" text-decoration="none" x="200" y="810">UNREGISTERED</text><text fill="#eeeeee" stroke="none" font-family="Arial" font-size="24px" font-style="normal" font-weight="normal" text-decoration="none" x="400" y="0">UNREGISTERED</text><text fill="#eeeeee" stroke="none" font-family="Arial" font-size="24px" font-style="normal" font-weight="normal" text-decoration="none" x="400" y="30">UNREGISTERED</text><text fill="#eeeeee" stroke="none" font-family="Arial" font-size="24px" font-style="normal" font-weight="normal" text-decoration="none" x="400" y="60">UNREGISTERED</text><text fill="#eeeeee" stroke="none" font-family="Arial" font-size="24px" font-style="normal" font-weight="normal" text-decoration="none" x="400" y="90">UNREGISTERED</text><text fill="#eeeeee" stroke="none" font-family="Arial" font-size="24px" font-style="normal" font-weight="normal" text-decoration="none" x="400" y="120">UNREGISTERED</text><text fill="#eeeeee" stroke="none" font-family="Arial" font-size="24px" font-style="normal" font-weight="normal" text-decoration="none" x="400" y="150">UNREGISTERED</text><text fill="#eeeeee" stroke="none" font-family="Arial" font-size="24px" font-style="normal" font-weight="normal" text-decoration="none" x="400" y="180">UNREGISTERED</text><text fill="#eeeeee" stroke="none" font-family="Arial" font-size="24px" font-style="normal" font-weight="normal" text-decoration="none" x="400" y="210">UNREGISTERED</text><text fill="#eeeeee" stroke="none" font-family="Arial" font-size="24px" font-style="normal" font-weight="normal" text-decoration="none" x="400" y="240">UNREGISTERED</text><text fill="#eeeeee" stroke="none" font-family="Arial" font-size="24px" font-style="normal" font-weight="normal" text-decoration="none" x="400" y="270">UNREGISTERED</text><text fill="#eeeeee" stroke="none" font-family="Arial" font-size="24px" font-style="normal" font-weight="normal" text-decoration="none" x="400" y="300">UNREGISTERED</text><text fill="#eeeeee" stroke="none" font-family="Arial" font-size="24px" font-style="normal" font-weight="normal" text-decoration="none" x="400" y="330">UNREGISTERED</text><text fill="#eeeeee" stroke="none" font-family="Arial" font-size="24px" font-style="normal" font-weight="normal" text-decoration="none" x="400" y="360">UNREGISTERED</text><text fill="#eeeeee" stroke="none" font-family="Arial" font-size="24px" font-style="normal" font-weight="normal" text-decoration="none" x="400" y="390">UNREGISTERED</text><text fill="#eeeeee" stroke="none" font-family="Arial" font-size="24px" font-style="normal" font-weight="normal" text-decoration="none" x="400" y="420">UNREGISTERED</text><text fill="#eeeeee" stroke="none" font-family="Arial" font-size="24px" font-style="normal" font-weight="normal" text-decoration="none" x="400" y="450">UNREGISTERED</text><text fill="#eeeeee" stroke="none" font-family="Arial" font-size="24px" font-style="normal" font-weight="normal" text-decoration="none" x="400" y="480">UNREGISTERED</text><text fill="#eeeeee" stroke="none" font-family="Arial" font-size="24px" font-style="normal" font-weight="normal" text-decoration="none" x="400" y="510">UNREGISTERED</text><text fill="#eeeeee" stroke="none" font-family="Arial" font-size="24px" font-style="normal" font-weight="normal" text-decoration="none" x="400" y="540">UNREGISTERED</text><text fill="#eeeeee" stroke="none" font-family="Arial" font-size="24px" font-style="normal" font-weight="normal" text-decoration="none" x="400" y="570">UNREGISTERED</text><text fill="#eeeeee" stroke="none" font-family="Arial" font-size="24px" font-style="normal" font-weight="normal" text-decoration="none" x="400" y="600">UNREGISTERED</text><text fill="#eeeeee" stroke="none" font-family="Arial" font-size="24px" font-style="normal" font-weight="normal" text-decoration="none" x="400" y="630">UNREGISTERED</text><text fill="#eeeeee" stroke="none" font-family="Arial" font-size="24px" font-style="normal" font-weight="normal" text-decoration="none" x="400" y="660">UNREGISTERED</text><text fill="#eeeeee" stroke="none" font-family="Arial" font-size="24px" font-style="normal" font-weight="normal" text-decoration="none" x="400" y="690">UNREGISTERED</text><text fill="#eeeeee" stroke="none" font-family="Arial" font-size="24px" font-style="normal" font-weight="normal" text-decoration="none" x="400" y="720">UNREGISTERED</text><text fill="#eeeeee" stroke="none" font-family="Arial" font-size="24px" font-style="normal" font-weight="normal" text-decoration="none" x="400" y="750">UNREGISTERED</text><text fill="#eeeeee" stroke="none" font-family="Arial" font-size="24px" font-style="normal" font-weight="normal" text-decoration="none" x="400" y="780">UNREGISTERED</text><text fill="#eeeeee" stroke="none" font-family="Arial" font-size="24px" font-style="normal" font-weight="normal" text-decoration="none" x="400" y="810">UNREGISTERED</text><text fill="#eeeeee" stroke="none" font-family="Arial" font-size="24px" font-style="normal" font-weight="normal" text-decoration="none" x="600" y="0">UNREGISTERED</text><text fill="#eeeeee" stroke="none" font-family="Arial" font-size="24px" font-style="normal" font-weight="normal" text-decoration="none" x="600" y="30">UNREGISTERED</text><text fill="#eeeeee" stroke="none" font-family="Arial" font-size="24px" font-style="normal" font-weight="normal" text-decoration="none" x="600" y="60">UNREGISTERED</text><text fill="#eeeeee" stroke="none" font-family="Arial" font-size="24px" font-style="normal" font-weight="normal" text-decoration="none" x="600" y="90">UNREGISTERED</text><text fill="#eeeeee" stroke="none" font-family="Arial" font-size="24px" font-style="normal" font-weight="normal" text-decoration="none" x="600" y="120">UNREGISTERED</text><text fill="#eeeeee" stroke="none" font-family="Arial" font-size="24px" font-style="normal" font-weight="normal" text-decoration="none" x="600" y="150">UNREGISTERED</text><text fill="#eeeeee" stroke="none" font-family="Arial" font-size="24px" font-style="normal" font-weight="normal" text-decoration="none" x="600" y="180">UNREGISTERED</text><text fill="#eeeeee" stroke="none" font-family="Arial" font-size="24px" font-style="normal" font-weight="normal" text-decoration="none" x="600" y="210">UNREGISTERED</text><text fill="#eeeeee" stroke="none" font-family="Arial" font-size="24px" font-style="normal" font-weight="normal" text-decoration="none" x="600" y="240">UNREGISTERED</text><text fill="#eeeeee" stroke="none" font-family="Arial" font-size="24px" font-style="normal" font-weight="normal" text-decoration="none" x="600" y="270">UNREGISTERED</text><text fill="#eeeeee" stroke="none" font-family="Arial" font-size="24px" font-style="normal" font-weight="normal" text-decoration="none" x="600" y="300">UNREGISTERED</text><text fill="#eeeeee" stroke="none" font-family="Arial" font-size="24px" font-style="normal" font-weight="normal" text-decoration="none" x="600" y="330">UNREGISTERED</text><text fill="#eeeeee" stroke="none" font-family="Arial" font-size="24px" font-style="normal" font-weight="normal" text-decoration="none" x="600" y="360">UNREGISTERED</text><text fill="#eeeeee" stroke="none" font-family="Arial" font-size="24px" font-style="normal" font-weight="normal" text-decoration="none" x="600" y="390">UNREGISTERED</text><text fill="#eeeeee" stroke="none" font-family="Arial" font-size="24px" font-style="normal" font-weight="normal" text-decoration="none" x="600" y="420">UNREGISTERED</text><text fill="#eeeeee" stroke="none" font-family="Arial" font-size="24px" font-style="normal" font-weight="normal" text-decoration="none" x="600" y="450">UNREGISTERED</text><text fill="#eeeeee" stroke="none" font-family="Arial" font-size="24px" font-style="normal" font-weight="normal" text-decoration="none" x="600" y="480">UNREGISTERED</text><text fill="#eeeeee" stroke="none" font-family="Arial" font-size="24px" font-style="normal" font-weight="normal" text-decoration="none" x="600" y="510">UNREGISTERED</text><text fill="#eeeeee" stroke="none" font-family="Arial" font-size="24px" font-style="normal" font-weight="normal" text-decoration="none" x="600" y="540">UNREGISTERED</text><text fill="#eeeeee" stroke="none" font-family="Arial" font-size="24px" font-style="normal" font-weight="normal" text-decoration="none" x="600" y="570">UNREGISTERED</text><text fill="#eeeeee" stroke="none" font-family="Arial" font-size="24px" font-style="normal" font-weight="normal" text-decoration="none" x="600" y="600">UNREGISTERED</text><text fill="#eeeeee" stroke="none" font-family="Arial" font-size="24px" font-style="normal" font-weight="normal" text-decoration="none" x="600" y="630">UNREGISTERED</text><text fill="#eeeeee" stroke="none" font-family="Arial" font-size="24px" font-style="normal" font-weight="normal" text-decoration="none" x="600" y="660">UNREGISTERED</text><text fill="#eeeeee" stroke="none" font-family="Arial" font-size="24px" font-style="normal" font-weight="normal" text-decoration="none" x="600" y="690">UNREGISTERED</text><text fill="#eeeeee" stroke="none" font-family="Arial" font-size="24px" font-style="normal" font-weight="normal" text-decoration="none" x="600" y="720">UNREGISTERED</text><text fill="#eeeeee" stroke="none" font-family="Arial" font-size="24px" font-style="normal" font-weight="normal" text-decoration="none" x="600" y="750">UNREGISTERED</text><text fill="#eeeeee" stroke="none" font-family="Arial" font-size="24px" font-style="normal" font-weight="normal" text-decoration="none" x="600" y="780">UNREGISTERED</text><text fill="#eeeeee" stroke="none" font-family="Arial" font-size="24px" font-style="normal" font-weight="normal" text-decoration="none" x="600" y="810">UNREGISTERED</text><text fill="#eeeeee" stroke="none" font-family="Arial" font-size="24px" font-style="normal" font-weight="normal" text-decoration="none" x="800" y="0">UNREGISTERED</text><text fill="#eeeeee" stroke="none" font-family="Arial" font-size="24px" font-style="normal" font-weight="normal" text-decoration="none" x="800" y="30">UNREGISTERED</text><text fill="#eeeeee" stroke="none" font-family="Arial" font-size="24px" font-style="normal" font-weight="normal" text-decoration="none" x="800" y="60">UNREGISTERED</text><text fill="#eeeeee" stroke="none" font-family="Arial" font-size="24px" font-style="normal" font-weight="normal" text-decoration="none" x="800" y="90">UNREGISTERED</text><text fill="#eeeeee" stroke="none" font-family="Arial" font-size="24px" font-style="normal" font-weight="normal" text-decoration="none" x="800" y="120">UNREGISTERED</text><text fill="#eeeeee" stroke="none" font-family="Arial" font-size="24px" font-style="normal" font-weight="normal" text-decoration="none" x="800" y="150">UNREGISTERED</text><text fill="#eeeeee" stroke="none" font-family="Arial" font-size="24px" font-style="normal" font-weight="normal" text-decoration="none" x="800" y="180">UNREGISTERED</text><text fill="#eeeeee" stroke="none" font-family="Arial" font-size="24px" font-style="normal" font-weight="normal" text-decoration="none" x="800" y="210">UNREGISTERED</text><text fill="#eeeeee" stroke="none" font-family="Arial" font-size="24px" font-style="normal" font-weight="normal" text-decoration="none" x="800" y="240">UNREGISTERED</text><text fill="#eeeeee" stroke="none" font-family="Arial" font-size="24px" font-style="normal" font-weight="normal" text-decoration="none" x="800" y="270">UNREGISTERED</text><text fill="#eeeeee" stroke="none" font-family="Arial" font-size="24px" font-style="normal" font-weight="normal" text-decoration="none" x="800" y="300">UNREGISTERED</text><text fill="#eeeeee" stroke="none" font-family="Arial" font-size="24px" font-style="normal" font-weight="normal" text-decoration="none" x="800" y="330">UNREGISTERED</text><text fill="#eeeeee" stroke="none" font-family="Arial" font-size="24px" font-style="normal" font-weight="normal" text-decoration="none" x="800" y="360">UNREGISTERED</text><text fill="#eeeeee" stroke="none" font-family="Arial" font-size="24px" font-style="normal" font-weight="normal" text-decoration="none" x="800" y="390">UNREGISTERED</text><text fill="#eeeeee" stroke="none" font-family="Arial" font-size="24px" font-style="normal" font-weight="normal" text-decoration="none" x="800" y="420">UNREGISTERED</text><text fill="#eeeeee" stroke="none" font-family="Arial" font-size="24px" font-style="normal" font-weight="normal" text-decoration="none" x="800" y="450">UNREGISTERED</text><text fill="#eeeeee" stroke="none" font-family="Arial" font-size="24px" font-style="normal" font-weight="normal" text-decoration="none" x="800" y="480">UNREGISTERED</text><text fill="#eeeeee" stroke="none" font-family="Arial" font-size="24px" font-style="normal" font-weight="normal" text-decoration="none" x="800" y="510">UNREGISTERED</text><text fill="#eeeeee" stroke="none" font-family="Arial" font-size="24px" font-style="normal" font-weight="normal" text-decoration="none" x="800" y="540">UNREGISTERED</text><text fill="#eeeeee" stroke="none" font-family="Arial" font-size="24px" font-style="normal" font-weight="normal" text-decoration="none" x="800" y="570">UNREGISTERED</text><text fill="#eeeeee" stroke="none" font-family="Arial" font-size="24px" font-style="normal" font-weight="normal" text-decoration="none" x="800" y="600">UNREGISTERED</text><text fill="#eeeeee" stroke="none" font-family="Arial" font-size="24px" font-style="normal" font-weight="normal" text-decoration="none" x="800" y="630">UNREGISTERED</text><text fill="#eeeeee" stroke="none" font-family="Arial" font-size="24px" font-style="normal" font-weight="normal" text-decoration="none" x="800" y="660">UNREGISTERED</text><text fill="#eeeeee" stroke="none" font-family="Arial" font-size="24px" font-style="normal" font-weight="normal" text-decoration="none" x="800" y="690">UNREGISTERED</text><text fill="#eeeeee" stroke="none" font-family="Arial" font-size="24px" font-style="normal" font-weight="normal" text-decoration="none" x="800" y="720">UNREGISTERED</text><text fill="#eeeeee" stroke="none" font-family="Arial" font-size="24px" font-style="normal" font-weight="normal" text-decoration="none" x="800" y="750">UNREGISTERED</text><text fill="#eeeeee" stroke="none" font-family="Arial" font-size="24px" font-style="normal" font-weight="normal" text-decoration="none" x="800" y="780">UNREGISTERED</text><text fill="#eeeeee" stroke="none" font-family="Arial" font-size="24px" font-style="normal" font-weight="normal" text-decoration="none" x="800" y="810">UNREGISTERED</text><g transform="translate(-102,-30) scale(1,1)"><path fill="#C0C0C0" stroke="none" d="M 279 171 C 279 159.954304 328.02481439999997 151 388.5 151 C 448.97518560000003 151 498 159.954304 498 171 C 498 182.045696 448.97518560000003 191 388.5 191 C 328.02481439999997 191 279 182.045696 279 171 Z" opacity="0.2"/></g><g transform="translate(-102,-30) scale(1,1)"><path fill="#ffffff" stroke="none" d="M 272 164 C 272 152.954304 321.02481439999997 144 381.5 144 C 441.97518560000003 144 491 152.954304 491 164 C 491 175.045696 441.97518560000003 184 381.5 184 C 321.02481439999997 184 272 175.045696 272 164 Z"/></g><g transform="translate(-102,-30) scale(1,1)"><path fill="none" stroke="#000000" d="M 272 164 C 272 152.954304 321.02481439999997 144 381.5 144 C 441.97518560000003 144 491 152.954304 491 164 C 491 175.045696 441.97518560000003 184 381.5 184 C 321.02481439999997 184 272 175.045696 272 164 Z" stroke-miterlimit="10"/></g><g transform="translate(-102,-30) scale(1,1)"><g><path fill="none" stroke="none"/><text fill="#000000" stroke="none" font-family="Arial" font-size="13px" font-style="normal" font-weight="bold" text-decoration="none" x="313.580078125" y="171">Cadastrar um chamado</text></g></g><g transform="translate(-102,-30) scale(1,1)"><path fill="#ffffff" stroke="none" d="M 140.02116672585228 137.68 C 140.02116672585228 132.886167936 143.90700905079774 129 148.700439453125 129 C 153.49386985545226 129 157.37971218039772 132.886167936 157.37971218039772 137.68 C 157.37971218039772 142.47383206400002 153.49386985545226 146.36 148.700439453125 146.36 C 143.90700905079774 146.36 140.02116672585228 142.47383206400002 140.02116672585228 137.68 Z"/></g><g transform="translate(-102,-30) scale(1,1)"><path fill="none" stroke="#000000" d="M 140.02116672585228 137.68 C 140.02116672585228 132.886167936 143.90700905079774 129 148.700439453125 129 C 153.49386985545226 129 157.37971218039772 132.886167936 157.37971218039772 137.68 C 157.37971218039772 142.47383206400002 153.49386985545226 146.36 148.700439453125 146.36 C 143.90700905079774 146.36 140.02116672585228 142.47383206400002 140.02116672585228 137.68 Z" stroke-miterlimit="10"/></g><g transform="translate(-102,-30) scale(1,1)"><path fill="none" stroke="#000000" d="M 148.700439453125 146.36 L 148.700439453125 163.64" stroke-miterlimit="10"/></g><g transform="translate(-102,-30) scale(1,1)"><path fill="none" stroke="#000000" d="M 139.51062127130683 152.84 L 157.89025763494317 152.84" stroke-miterlimit="10"/></g><g transform="translate(-102,-30) scale(1,1)"><path fill="none" stroke="#000000" d="M 148.700439453125 163.64 L 135.93680308948865 181" stroke-miterlimit="10"/></g><g transform="translate(-102,-30) scale(1,1)"><path fill="none" stroke="#000000" d="M 148.700439453125 163.64 L 161.46407581676135 181" stroke-miterlimit="10"/></g><g transform="translate(-102,-30) scale(1,1)"><g><path fill="none" stroke="none"/><text fill="#000000" stroke="none" font-family="Arial" font-size="13px" font-style="normal" font-weight="bold" text-decoration="none" x="126.302734375" y="201.5">Usuário</text></g></g><g transform="translate(-102,-30) scale(1,1)"><path fill="none" stroke="#000000" d="M 271 165 L 178 167" stroke-miterlimit="10"/></g><g transform="translate(-102,-30) scale(1,1)"><path fill="#C0C0C0" stroke="none" d="M 511 272 C 511 262.6111584 604.3486192 255 719.5 255 C 834.6513808 255 928 262.6111584 928 272 C 928 281.3888416 834.6513808 289 719.5 289 C 604.3486192 289 511 281.3888416 511 272 Z" opacity="0.2"/></g><g transform="translate(-102,-30) scale(1,1)"><path fill="#ffffff" stroke="none" d="M 504 265 C 504 255.6111584 597.3486192 248 712.5 248 C 827.6513808 248 921 255.6111584 921 265 C 921 274.3888416 827.6513808 282 712.5 282 C 597.3486192 282 504 274.3888416 504 265 Z"/></g><g transform="translate(-102,-30) scale(1,1)"><path fill="none" stroke="#000000" d="M 504 265 C 504 255.6111584 597.3486192 248 712.5 248 C 827.6513808 248 921 255.6111584 921 265 C 921 274.3888416 827.6513808 282 712.5 282 C 597.3486192 282 504 274.3888416 504 265 Z" stroke-miterlimit="10"/></g><g transform="translate(-102,-30) scale(1,1)"><g><path fill="none" stroke="none"/><text fill="#000000" stroke="none" font-family="Arial" font-size="13px" font-style="normal" font-weight="bold" text-decoration="none" x="579.983154296875" y="272">Tentar ajuda em "problemas frequentes"[FAQ]</text></g></g><g transform="translate(-102,-30) scale(1,1)"><path fill="none" stroke="#000000" d="M 450 185 L 653 247" stroke-miterlimit="10" stroke-dasharray="3"/></g><g transform="translate(-102,-30) scale(1,1)"><path fill="none" stroke="#000000" d="M 642.0509430776747 248.0574273079882 L 653 247 L 644.5101335825359 240.00556162271653" stroke-miterlimit="10"/></g><g transform="translate(-102,-30) scale(1,1)"><g><path fill="none" stroke="none"/><text fill="#000000" stroke="none" font-family="Arial" font-size="13px" font-style="normal" font-weight="normal" text-decoration="none" x="531.5" y="193.5">«include»</text></g></g><g transform="translate(-102,-30) scale(1,1)"><path fill="#C0C0C0" stroke="none" d="M 343 64 C 343 54.6111584 419.111584 47 513 47 C 606.888416 47 683 54.6111584 683 64 C 683 73.3888416 606.888416 81 513 81 C 419.111584 81 343 73.3888416 343 64 Z" opacity="0.2"/></g><g transform="translate(-102,-30) scale(1,1)"><path fill="#ffffff" stroke="none" d="M 336 57 C 336 47.6111584 412.111584 40 506 40 C 599.888416 40 676 47.6111584 676 57 C 676 66.3888416 599.888416 74 506 74 C 412.111584 74 336 66.3888416 336 57 Z"/></g><g transform="translate(-102,-30) scale(1,1)"><path fill="none" stroke="#000000" d="M 336 57 C 336 47.6111584 412.111584 40 506 40 C 599.888416 40 676 47.6111584 676 57 C 676 66.3888416 599.888416 74 506 74 C 412.111584 74 336 66.3888416 336 57 Z" stroke-miterlimit="10"/></g><g transform="translate(-102,-30) scale(1,1)"><g><path fill="none" stroke="none"/><text fill="#000000" stroke="none" font-family="Arial" font-size="13px" font-style="normal" font-weight="bold" text-decoration="none" x="397.5947265625" y="64">Receber código de acompanhamento</text></g></g><g transform="translate(-102,-30) scale(1,1)"><path fill="none" stroke="#000000" d="M 406 143 L 485 75" stroke-miterlimit="10" stroke-dasharray="3"/></g><g transform="translate(-102,-30) scale(1,1)"><path fill="none" stroke="#000000" d="M 480.04386658613015 84.82022105575648 L 485 75 L 474.5515395533111 78.43942935586372" stroke-miterlimit="10"/></g><g transform="translate(-102,-30) scale(1,1)"><g><path fill="none" stroke="none"/><text fill="#000000" stroke="none" font-family="Arial" font-size="13px" font-style="normal" font-weight="normal" text-decoration="none" x="397.5" y="92.5">«include»</text></g></g><g transform="translate(-102,-30) scale(1,1)"><path fill="#ffffff" stroke="none" d="M 140.38298313210228 481.68 C 140.38298313210228 476.886167936 144.26882545704774 473 149.062255859375 473 C 153.85568626170226 473 157.74152858664772 476.886167936 157.74152858664772 481.68 C 157.74152858664772 486.473832064 153.85568626170226 490.36 149.062255859375 490.36 C 144.26882545704774 490.36 140.38298313210228 486.473832064 140.38298313210228 481.68 Z"/></g><g transform="translate(-102,-30) scale(1,1)"><path fill="none" stroke="#000000" d="M 140.38298313210228 481.68 C 140.38298313210228 476.886167936 144.26882545704774 473 149.062255859375 473 C 153.85568626170226 473 157.74152858664772 476.886167936 157.74152858664772 481.68 C 157.74152858664772 486.473832064 153.85568626170226 490.36 149.062255859375 490.36 C 144.26882545704774 490.36 140.38298313210228 486.473832064 140.38298313210228 481.68 Z" stroke-miterlimit="10"/></g><g transform="translate(-102,-30) scale(1,1)"><path fill="none" stroke="#000000" d="M 149.062255859375 490.36 L 149.062255859375 507.64" stroke-miterlimit="10"/></g><g transform="translate(-102,-30) scale(1,1)"><path fill="none" stroke="#000000" d="M 139.87243767755683 496.84 L 158.25207404119317 496.84" stroke-miterlimit="10"/></g><g transform="translate(-102,-30) scale(1,1)"><path fill="none" stroke="#000000" d="M 149.062255859375 507.64 L 136.29861949573865 525" stroke-miterlimit="10"/></g><g transform="translate(-102,-30) scale(1,1)"><path fill="none" stroke="#000000" d="M 149.062255859375 507.64 L 161.82589222301135 525" stroke-miterlimit="10"/></g><g transform="translate(-102,-30) scale(1,1)"><g><path fill="none" stroke="none"/><text fill="#000000" stroke="none" font-family="Arial" font-size="13px" font-style="normal" font-weight="bold" text-decoration="none" x="126.302734375" y="545.5">Técnico</text></g></g><g transform="translate(-102,-30) scale(1,1)"><path fill="#C0C0C0" stroke="none" d="M 615 168 C 615 158.6111584 661.7862384 151 719.5 151 C 777.2137616 151 824 158.6111584 824 168 C 824 177.3888416 777.2137616 185 719.5 185 C 661.7862384 185 615 177.3888416 615 168 Z" opacity="0.2"/></g><g transform="translate(-102,-30) scale(1,1)"><path fill="#ffffff" stroke="none" d="M 608 161 C 608 151.6111584 654.7862384 144 712.5 144 C 770.2137616 144 817 151.6111584 817 161 C 817 170.3888416 770.2137616 178 712.5 178 C 654.7862384 178 608 170.3888416 608 161 Z"/></g><g transform="translate(-102,-30) scale(1,1)"><path fill="none" stroke="#000000" d="M 608 161 C 608 151.6111584 654.7862384 144 712.5 144 C 770.2137616 144 817 151.6111584 817 161 C 817 170.3888416 770.2137616 178 712.5 178 C 654.7862384 178 608 170.3888416 608 161 Z" stroke-miterlimit="10"/></g><g transform="translate(-102,-30) scale(1,1)"><g><path fill="none" stroke="none"/><text fill="#000000" stroke="none" font-family="Arial" font-size="13px" font-style="normal" font-weight="bold" text-decoration="none" x="648.550537109375" y="168">Fornecer identificação</text></g></g><g transform="translate(-102,-30) scale(1,1)"><path fill="none" stroke="#000000" d="M 492 163 L 607 162" stroke-miterlimit="10" stroke-dasharray="3"/></g><g transform="translate(-102,-30) scale(1,1)"><path fill="none" stroke="#000000" d="M 596.8743124610911 166.29772635987734 L 607 162 L 596.8011062243079 157.87900912981485" stroke-miterlimit="10"/></g><g transform="translate(-102,-30) scale(1,1)"><g><path fill="none" stroke="none"/><text fill="#000000" stroke="none" font-family="Arial" font-size="13px" font-style="normal" font-weight="normal" text-decoration="none" x="521.5" y="138.5">«include»</text></g></g><g transform="translate(-102,-30) scale(1,1)"><path fill="#C0C0C0" stroke="none" d="M 279 520 C 279 510.6111584 323.9953776 503 379.5 503 C 435.0046224 503 480 510.6111584 480 520 C 480 529.3888416 435.0046224 537 379.5 537 C 323.9953776 537 279 529.3888416 279 520 Z" opacity="0.2"/></g><g transform="translate(-102,-30) scale(1,1)"><path fill="#ffffff" stroke="none" d="M 272 513 C 272 503.6111584 316.9953776 496 372.5 496 C 428.0046224 496 473 503.6111584 473 513 C 473 522.3888416 428.0046224 530 372.5 530 C 316.9953776 530 272 522.3888416 272 513 Z"/></g><g transform="translate(-102,-30) scale(1,1)"><path fill="none" stroke="#000000" d="M 272 513 C 272 503.6111584 316.9953776 496 372.5 496 C 428.0046224 496 473 503.6111584 473 513 C 473 522.3888416 428.0046224 530 372.5 530 C 316.9953776 530 272 522.3888416 272 513 Z" stroke-miterlimit="10"/></g><g transform="translate(-102,-30) scale(1,1)"><g><path fill="none" stroke="none"/><text fill="#000000" stroke="none" font-family="Arial" font-size="13px" font-style="normal" font-weight="bold" text-decoration="none" x="324.81005859375" y="520">Listar chamados</text></g></g><g transform="translate(-102,-30) scale(1,1)"><path fill="#C0C0C0" stroke="none" d="M 535 520 C 535 510.6111584 597.9039855999999 503 675.5 503 C 753.0960144000001 503 816 510.6111584 816 520 C 816 529.3888416 753.0960144000001 537 675.5 537 C 597.9039855999999 537 535 529.3888416 535 520 Z" opacity="0.2"/></g><g transform="translate(-102,-30) scale(1,1)"><path fill="#ffffff" stroke="none" d="M 528 513 C 528 503.6111584 590.9039855999999 496 668.5 496 C 746.0960144000001 496 809 503.6111584 809 513 C 809 522.3888416 746.0960144000001 530 668.5 530 C 590.9039855999999 530 528 522.3888416 528 513 Z"/></g><g transform="translate(-102,-30) scale(1,1)"><path fill="none" stroke="#000000" d="M 528 513 C 528 503.6111584 590.9039855999999 496 668.5 496 C 746.0960144000001 496 809 503.6111584 809 513 C 809 522.3888416 746.0960144000001 530 668.5 530 C 590.9039855999999 530 528 522.3888416 528 513 Z" stroke-miterlimit="10"/></g><g transform="translate(-102,-30) scale(1,1)"><g><path fill="none" stroke="none"/><text fill="#000000" stroke="none" font-family="Arial" font-size="13px" font-style="normal" font-weight="bold" text-decoration="none" x="579.616943359375" y="520">Alterar estado de um chamado</text></g></g><g transform="translate(-102,-30) scale(1,1)"><path fill="none" stroke="#000000" d="M 179 511 L 271 512" stroke-miterlimit="10"/></g><g transform="translate(-102,-30) scale(1,1)"><path fill="none" stroke="#000000" d="M 527 513 L 474 513" stroke-miterlimit="10" stroke-dasharray="3"/></g><g transform="translate(-102,-30) scale(1,1)"><path fill="none" stroke="#000000" d="M 484.16267485762415 508.790482243984 L 474 513 L 484.16267485762415 517.209517756016" stroke-miterlimit="10"/></g><g transform="translate(-102,-30) scale(1,1)"><g><path fill="none" stroke="none"/><text fill="#000000" stroke="none" font-family="Arial" font-size="13px" font-style="normal" font-weight="normal" text-decoration="none" x="472.5" y="549.5">«extend»</text></g></g><g transform="translate(-102,-30) scale(1,1)"><path fill="#C0C0C0" stroke="none" d="M 447 424 C 447 414.6111584 491.9953776 407 547.5 407 C 603.0046224 407 648 414.6111584 648 424 C 648 433.3888416 603.0046224 441 547.5 441 C 491.9953776 441 447 433.3888416 447 424 Z" opacity="0.2"/></g><g transform="translate(-102,-30) scale(1,1)"><path fill="#ffffff" stroke="none" d="M 440 417 C 440 407.6111584 484.9953776 400 540.5 400 C 596.0046224 400 641 407.6111584 641 417 C 641 426.3888416 596.0046224 434 540.5 434 C 484.9953776 434 440 426.3888416 440 417 Z"/></g><g transform="translate(-102,-30) scale(1,1)"><path fill="none" stroke="#000000" d="M 440 417 C 440 407.6111584 484.9953776 400 540.5 400 C 596.0046224 400 641 407.6111584 641 417 C 641 426.3888416 596.0046224 434 540.5 434 C 484.9953776 434 440 426.3888416 440 417 Z" stroke-miterlimit="10"/></g><g transform="translate(-102,-30) scale(1,1)"><g><path fill="none" stroke="none"/><text fill="#000000" stroke="none" font-family="Arial" font-size="13px" font-style="normal" font-weight="bold" text-decoration="none" x="478.353271484375" y="424">Atender um chamado</text></g></g><g transform="translate(-102,-30) scale(1,1)"><path fill="none" stroke="#000000" d="M 509 435 L 404 495" stroke-miterlimit="10" stroke-dasharray="3"/></g><g transform="translate(-102,-30) scale(1,1)"><path fill="none" stroke="#000000" d="M 410.7351670803088 486.30301636196066 L 404 495 L 414.91217842123683 493.6127862085847" stroke-miterlimit="10"/></g><g transform="translate(-102,-30) scale(1,1)"><g><path fill="none" stroke="none"/><text fill="#000000" stroke="none" font-family="Arial" font-size="13px" font-style="normal" font-weight="normal" text-decoration="none" x="462.5" y="476.5">«extend»</text></g></g><g transform="translate(-102,-30) scale(1,1)"><path fill="#C0C0C0" stroke="none" d="M 223 256 C 223 246.6111584 282.9938368 239 357 239 C 431.0061632 239 491 246.6111584 491 256 C 491 265.3888416 431.0061632 273 357 273 C 282.9938368 273 223 265.3888416 223 256 Z" opacity="0.2"/></g><g transform="translate(-102,-30) scale(1,1)"><path fill="#ffffff" stroke="none" d="M 216 249 C 216 239.6111584 275.9938368 232 350 232 C 424.0061632 232 484 239.6111584 484 249 C 484 258.3888416 424.0061632 266 350 266 C 275.9938368 266 216 258.3888416 216 249 Z"/></g><g transform="translate(-102,-30) scale(1,1)"><path fill="none" stroke="#000000" d="M 216 249 C 216 239.6111584 275.9938368 232 350 232 C 424.0061632 232 484 239.6111584 484 249 C 484 258.3888416 424.0061632 266 350 266 C 275.9938368 266 216 258.3888416 216 249 Z" stroke-miterlimit="10"/></g><g transform="translate(-102,-30) scale(1,1)"><g><path fill="none" stroke="none"/><text fill="#000000" stroke="none" font-family="Arial" font-size="13px" font-style="normal" font-weight="bold" text-decoration="none" x="267.2646484375" y="256">Listar histórico de chamados</text></g></g><g transform="translate(-102,-30) scale(1,1)"><path fill="none" stroke="#000000" d="M 178 179 L 306 231" stroke-miterlimit="10"/></g><g transform="translate(-102,-30) scale(1,1)"><path fill="none" stroke="#000000" d="M 564 435 L 644 495" stroke-miterlimit="10" stroke-dasharray="3"/></g><g transform="translate(-102,-30) scale(1,1)"><path fill="none" stroke="#000000" d="M 633.3441494602911 492.2700092902383 L 644 495 L 638.3955707675103 485.53478088061274" stroke-miterlimit="10"/></g><g transform="translate(-102,-30) scale(1,1)"><g><path fill="none" stroke="none"/><text fill="#000000" stroke="none" font-family="Arial" font-size="13px" font-style="normal" font-weight="normal" text-decoration="none" x="593.5" y="446.5">«include»</text></g></g><g transform="translate(-102,-30) scale(1,1)"><path fill="#ffffff" stroke="none" d="M 143.57707492897728 721.6800000000001 C 143.57707492897728 716.8861679360001 147.46291725392274 713 152.25634765625 713 C 157.04977805857726 713 160.93562038352272 716.8861679360001 160.93562038352272 721.6800000000001 C 160.93562038352272 726.473832064 157.04977805857726 730.36 152.25634765625 730.36 C 147.46291725392274 730.36 143.57707492897728 726.473832064 143.57707492897728 721.6800000000001 Z"/></g><g transform="translate(-102,-30) scale(1,1)"><path fill="none" stroke="#000000" d="M 143.57707492897728 721.6800000000001 C 143.57707492897728 716.8861679360001 147.46291725392274 713 152.25634765625 713 C 157.04977805857726 713 160.93562038352272 716.8861679360001 160.93562038352272 721.6800000000001 C 160.93562038352272 726.473832064 157.04977805857726 730.36 152.25634765625 730.36 C 147.46291725392274 730.36 143.57707492897728 726.473832064 143.57707492897728 721.6800000000001 Z" stroke-miterlimit="10"/></g><g transform="translate(-102,-30) scale(1,1)"><path fill="none" stroke="#000000" d="M 152.25634765625 730.36 L 152.25634765625 747.64" stroke-miterlimit="10"/></g><g transform="translate(-102,-30) scale(1,1)"><path fill="none" stroke="#000000" d="M 143.06652947443183 736.84 L 161.44616583806817 736.84" stroke-miterlimit="10"/></g><g transform="translate(-102,-30) scale(1,1)"><path fill="none" stroke="#000000" d="M 152.25634765625 747.64 L 139.49271129261365 765" stroke-miterlimit="10"/></g><g transform="translate(-102,-30) scale(1,1)"><path fill="none" stroke="#000000" d="M 152.25634765625 747.64 L 165.01998401988635 765" stroke-miterlimit="10"/></g><g transform="translate(-102,-30) scale(1,1)"><g><path fill="none" stroke="none"/><text fill="#000000" stroke="none" font-family="Arial" font-size="13px" font-style="normal" font-weight="bold" text-decoration="none" x="119.3818359375" y="785.5">Admin user</text></g></g><g transform="translate(-102,-30) scale(1,1)"><path fill="#C0C0C0" stroke="none" d="M 311 752 C 311 742.6111584 359.3532416 735 419 735 C 478.6467584 735 527 742.6111584 527 752 C 527 761.3888416 478.6467584 769 419 769 C 359.3532416 769 311 761.3888416 311 752 Z" opacity="0.2"/></g><g transform="translate(-102,-30) scale(1,1)"><path fill="#ffffff" stroke="none" d="M 304 745 C 304 735.6111584 352.3532416 728 412 728 C 471.6467584 728 520 735.6111584 520 745 C 520 754.3888416 471.6467584 762 412 762 C 352.3532416 762 304 754.3888416 304 745 Z"/></g><g transform="translate(-102,-30) scale(1,1)"><path fill="none" stroke="#000000" d="M 304 745 C 304 735.6111584 352.3532416 728 412 728 C 471.6467584 728 520 735.6111584 520 745 C 520 754.3888416 471.6467584 762 412 762 C 352.3532416 762 304 754.3888416 304 745 Z" stroke-miterlimit="10"/></g><g transform="translate(-102,-30) scale(1,1)"><g><path fill="none" stroke="none"/><text fill="#000000" stroke="none" font-family="Arial" font-size="13px" font-style="normal" font-weight="bold" text-decoration="none" x="344.080078125" y="752">Cadastrar sua empresa</text></g></g><g transform="translate(-102,-30) scale(1,1)"><path fill="none" stroke="#000000" d="M 194 750 L 303 748" stroke-miterlimit="10"/></g><g transform="translate(-102,-30) scale(1,1)"><path fill="#C0C0C0" stroke="none" d="M 255 840 C 255 830.6111584 349.4679072 823 466 823 C 582.5320928 823 677 830.6111584 677 840 C 677 849.3888416 582.5320928 857 466 857 C 349.4679072 857 255 849.3888416 255 840 Z" opacity="0.2"/></g><g transform="translate(-102,-30) scale(1,1)"><path fill="#ffffff" stroke="none" d="M 248 833 C 248 823.6111584 342.4679072 816 459 816 C 575.5320928 816 670 823.6111584 670 833 C 670 842.3888416 575.5320928 850 459 850 C 342.4679072 850 248 842.3888416 248 833 Z"/></g><g transform="translate(-102,-30) scale(1,1)"><path fill="none" stroke="#000000" d="M 248 833 C 248 823.6111584 342.4679072 816 459 816 C 575.5320928 816 670 823.6111584 670 833 C 670 842.3888416 575.5320928 850 459 850 C 342.4679072 850 248 842.3888416 248 833 Z" stroke-miterlimit="10"/></g><g transform="translate(-102,-30) scale(1,1)"><g><path fill="none" stroke="none"/><text fill="#000000" stroke="none" font-family="Arial" font-size="13px" font-style="normal" font-weight="bold" text-decoration="none" x="324.7216796875" y="840">Vincular técnicos e usuários com sua empresa</text></g></g><g transform="translate(-102,-30) scale(1,1)"><path fill="none" stroke="#000000" d="M 194 762 L 392 815" stroke-miterlimit="10"/></g></g></svg>